<svg id="Group_6489" data-name="Group 6489" xmlns="http://www.w3.org/2000/svg" width="51" height="51" viewBox="0 0 51 51">
  <g id="Ellipse_241" data-name="Ellipse 241" fill="#fff" stroke="#161837" stroke-width="2">
    <circle cx="25.5" cy="25.5" r="25.5" stroke="none"/>
    <circle cx="25.5" cy="25.5" r="24.5" fill="none"/>
  </g>
  <g id="AdobeStock_475549923" transform="translate(8.949 8.948)">
    <path id="Path_1705" data-name="Path 1705" d="M33.31,25.729c-2.236-2.044-4.479-4.073-6.708-6.117a3.63,3.63,0,0,1-.377-.47c.783-1.089,2.158-1.652,2.321-3.154-.206-.093-.385-.185-.57-.271a4.76,4.76,0,0,1-2.293-1.844c-.278-.441-.9-.662-1.389-.983-.99.726-1.858,1.367-2.813,2.065-1.353-1.339-2.684-2.613-3.973-3.931a5.115,5.115,0,0,0-4.365-1.809c-.584.064-1.182,0-1.759.071A2.99,2.99,0,0,1,8.623,8.163C7.448,6.846,6.174,5.621,4.942,4.353c-.406-.42-.847-.762-1.424-.363A8.969,8.969,0,0,0,0,7.607c.271.313.527.641.812.94A27.985,27.985,0,0,0,3.738,11.5,4.7,4.7,0,0,1,5.6,16.352a5.385,5.385,0,0,0,1.609,4.714c.292.306.57.619.854.933.79.862,1.574,1.723,2.442,2.677A130.249,130.249,0,0,0,.741,33.6a17.324,17.324,0,0,0,2.884,4.158,1.249,1.249,0,0,0,1.9.028c1.787-1.538,3.553-3.09,5.333-4.628,1.36-1.175,2.734-2.343,4.1-3.518a3.843,3.843,0,0,1,.506.363q3.226,3.546,6.437,7.106c.285.313.541.648.84.94a3.124,3.124,0,0,0,4.322.42,5.642,5.642,0,0,0,.883-.7c1.93-1.93,3.881-3.852,5.761-5.832A8.91,8.91,0,0,0,35.1,29.859a2.288,2.288,0,0,0-.356-2.7A15.085,15.085,0,0,0,33.31,25.729ZM3.055,34.288c-.228-.064-.406-.313-.719-.577.342-.2.6-.441.719-.392.214.1.349.385.513.584C3.4,34.046,3.183,34.324,3.055,34.288ZM2.378,7.607c-.221-.157-.441-.32-.826-.6.57-.5,1.054-.933,1.552-1.353.37-.313.691-.235.961.214a1.723,1.723,0,0,1-.178.292C3.4,6.632,2.919,7.095,2.378,7.607Zm8,13.486c-1.559-1.389-3-2.734-2.791-5.07a5.7,5.7,0,0,0-2.393-5.6A17.162,17.162,0,0,1,3.062,8.255c.534-.5,1.047-.983,1.631-1.531.249.221.506.413.726.641.876.911,1.766,1.809,2.6,2.749A3.124,3.124,0,0,0,10.7,11.225a24.45,24.45,0,0,1,3.147.071,2.244,2.244,0,0,1,1.239.5c.812.719,1.538,1.531,2.357,2.371C15.11,16.458,12.774,18.744,10.382,21.094ZM5.511,35.271c-.064.256-.356.449-.548.676-.192-.178-.527-.356-.534-.541-.007-.242.256-.491.506-.911C5.234,34.879,5.547,35.121,5.511,35.271Zm-.05-2.378a1.358,1.358,0,0,1-.612-.619c-.043-.078.285-.484.406-.47a3.654,3.654,0,0,1,.961.477C5.839,32.6,5.575,32.943,5.462,32.893Zm2-2.314c-.142-.164-.385-.32-.392-.5-.007-.157.235-.328.449-.591.192.3.427.491.4.655S7.626,30.436,7.462,30.579Zm1.154,2.357c-.1.007-.335-.37-.3-.534a.662.662,0,0,1,.491-.392c.15-.007.313.256.605.52C9.057,32.729,8.844,32.921,8.616,32.935Zm2.044-3.361c-.014.185-.228.356-.441.655-.256-.271-.555-.449-.57-.641a.754.754,0,0,1,.42-.591C10.453,28.905,10.7,29.2,10.66,29.575Zm3.5-1.4c-.37.328-.755.641-1.2,1.011-.769-.9-1.474-1.716-2.293-2.677,4.116-4.059,8.687-7.548,13.045-11.315,1.061.292,2.093.577,3.368.933a9.659,9.659,0,0,1-.869,1.1c-2.25,2.086-4.507,4.173-6.779,6.231C17.688,25.06,15.922,26.619,14.163,28.179ZM32.235,29.66c-2.25,2.25-4.571,4.436-6.864,6.644a.9.9,0,0,1-1.431-.057c-1.168-1.31-2.314-2.635-3.567-4.066,1.04-1.061,1.908-1.965,2.8-2.841q2.19-2.168,4.415-4.308c.662-.641.926-.684,1.609-.121,1.032.854,2.036,1.752,2.991,2.692C32.954,28.357,33,28.884,32.235,29.66Z" transform="translate(0 -3.542)" fill="#e81919"/>
    <path id="Path_1706" data-name="Path 1706" d="M363.8,9.463a1.879,1.879,0,0,0,.085-.392,3.093,3.093,0,0,1,1.581-3.062,8.159,8.159,0,0,0,1.453-1.2A3.066,3.066,0,0,0,366.525,0a2.23,2.23,0,0,0-.15.328,7.146,7.146,0,0,1-2.613,4.322,6.1,6.1,0,0,0-1.132,1.175,2.439,2.439,0,0,0-.157,2.407A1.651,1.651,0,0,0,363.8,9.463Z" transform="translate(-336.44)" fill="#e81919"/>
    <path id="Path_1707" data-name="Path 1707" d="M397.828,53.239a3.832,3.832,0,0,0-2.321,3.2c-.071.619.093,1.082.968,1.125.164-.285.335-.52.456-.783A4.1,4.1,0,0,1,400,54.257a5.541,5.541,0,0,0,1.73-.7c1.51-.876,1.624-2.585.228-3.852a5.371,5.371,0,0,1-3.411,3.283A4.107,4.107,0,0,0,397.828,53.239Z" transform="translate(-367.33 -46.161)" fill="#e81919"/>
  </g>
</svg>
