<svg xmlns="http://www.w3.org/2000/svg" width="1346" height="300.746" viewBox="0 0 1346 300.746">
  <g id="bg-add" transform="translate(-271 -551.254)">
    <g id="Group_6554" data-name="Group 6554" transform="translate(271 551.254)" opacity="0.6">
      <path id="Path_1790" data-name="Path 1790" d="M187.511,560.367h6.737l3.205-25.984H187.51Z" transform="translate(-93.755 -267.192)" fill="#a0616a"/>
      <path id="Path_1791" data-name="Path 1791" d="M351.385,731.206h13.267a8.455,8.455,0,0,1,8.454,8.454v.275H351.385Z" transform="translate(-259.347 -440.23)" fill="#2f2e41"/>
      <path id="Path_1792" data-name="Path 1792" d="M276.511,560.367h6.737l3.2-25.984H276.51Z" transform="translate(-138.255 -267.192)" fill="#a0616a"/>
      <path id="Path_1793" data-name="Path 1793" d="M440.385,731.206h13.267a8.455,8.455,0,0,1,8.454,8.454v.275H440.385Z" transform="translate(-303.847 -440.23)" fill="#2f2e41"/>
      <rect id="Rectangle_1503" data-name="Rectangle 1503" width="303.048" height="1" transform="translate(0 299.746)" fill="#e6e6e6"/>
      <path id="Path_1794" data-name="Path 1794" d="M176.231,441.87h17.451l11.153-97.661,20.507,97.661h11.775V325.412l-55.982-16.754Z" transform="translate(-88.116 -154.329)" fill="#2f2e41"/>
      <circle id="Ellipse_267" data-name="Ellipse 267" cx="15.218" cy="15.218" r="15.218" transform="translate(102.652 37.965)" fill="#a0616a"/>
      <path id="Path_1795" data-name="Path 1795" d="M350.493,380.682c16.329,12.77,34.353,19.207,54.756,16.754-8.617-30.256-11.173-60.282-2.86-89.9l-17.162-7.764-19.292-1.226-14.021,4.124a9.375,9.375,0,0,0-6.725,9.179C345.683,337.107,344,360.744,350.493,380.682Z" transform="translate(-256.248 -223.901)" fill="#e6e6e6"/>
      <path id="Path_1796" data-name="Path 1796" d="M372.632,229.629c1.464-2.762,3.324-8.267,6.279-9.288a23.493,23.493,0,0,1,5.057-1.077l5.023,1.932-2.734-2.126q.8-.048,1.6-.078l3.389,1.3-1.734-1.348c3.159-.032,6.421.3,8.869,2.219,2.087,1.64,4.155,7.851,4.489,10.484a20.052,20.052,0,0,1-.369,7.554l-.858.816a10.53,10.53,0,0,1-.673-2.143,10.15,10.15,0,0,0-4.859-6.592l-.047-.026a9.108,9.108,0,0,0-4.837-.713l-7.84.282c-1.886.068-3.917.187-5.388,1.37a8.87,8.87,0,0,0-2.154,3.121,66.069,66.069,0,0,0-2.158,7.037s-.808-1.05-1.2-.268a27.02,27.02,0,0,1-1.125-6.272,12.288,12.288,0,0,1,1.268-6.186Z" transform="translate(-269.327 -184.099)" fill="#2f2e41"/>
      <path id="Path_1797" data-name="Path 1797" d="M823.018,293.056H647.335a11.343,11.343,0,0,1-11.33-11.33V160.584a11.343,11.343,0,0,1,11.33-11.33H823.017a11.343,11.343,0,0,1,11.33,11.33V281.726A11.343,11.343,0,0,1,823.018,293.056Zm-175.682-142.8a10.342,10.342,0,0,0-10.33,10.33V281.726a10.342,10.342,0,0,0,10.33,10.33H823.017a10.342,10.342,0,0,0,10.33-10.33V160.584a10.342,10.342,0,0,0-10.33-10.33Z" transform="translate(-401.657 -149.254)" fill="#f0f0f0"/>
      <path id="Path_1798" data-name="Path 1798" d="M599.006,325.226V204.084a10.842,10.842,0,0,1,10.83-10.83H785.518a10.842,10.842,0,0,1,10.83,10.83V325.226a10.842,10.842,0,0,1-10.83,10.83H609.836A10.842,10.842,0,0,1,599.006,325.226Z" transform="translate(-383.158 -171.254)" fill="#e4e4e4"/>
      <path id="Path_1799" data-name="Path 1799" d="M612.825,332.717V211.149a3.342,3.342,0,0,1,3.338-3.338H793.01a3.342,3.342,0,0,1,3.338,3.338V332.717a3.342,3.342,0,0,1-3.338,3.338H616.163A3.342,3.342,0,0,1,612.825,332.717Z" transform="translate(-390.067 -178.532)" fill="#fff"/>
      <circle id="Ellipse_268" data-name="Ellipse 268" cx="4.922" cy="4.922" r="4.922" transform="translate(289.091 180.045)" fill="#e6e6e6"/>
      <circle id="Ellipse_269" data-name="Ellipse 269" cx="4.922" cy="4.922" r="4.922" transform="translate(309.597 180.045)" fill="#e6e6e6"/>
      <circle id="Ellipse_270" data-name="Ellipse 270" cx="4.922" cy="4.922" r="4.922" transform="translate(330.104 180.045)" fill="#e6e6e6"/>
      <path id="Path_1800" data-name="Path 1800" d="M760.618,336.055a35.73,35.73,0,1,1,35.73-35.73h0a35.771,35.771,0,0,1-35.73,35.73Z" transform="translate(-446.099 -206.924)" fill="#020413"/>
      <path id="Path_1801" data-name="Path 1801" d="M792.823,314.908H782.249V304.334a3.525,3.525,0,0,0-7.049,0v10.574H764.626a3.525,3.525,0,0,0,0,7.049H775.2v10.574a3.525,3.525,0,1,0,7.049,0V321.957h10.574a3.525,3.525,0,1,0,.01-7.049Z" transform="translate(-464.206 -225.032)" fill="#fff"/>
      <path id="Path_1802" data-name="Path 1802" d="M252.456,656.064a51.267,51.267,0,0,0-4.5-14.443l-.322-.665-2.388,2.648,1.77-3.944-.116-.229a94.306,94.306,0,0,0-5.184-8.994l-.351-.537-.468.519.328-.731-.164-.246c-2.343-3.514-4.143-5.737-4.161-5.759l-.509-.626-.327.747c-.06.137-6.009,13.846-6.8,27.393l-.012.211,4,4.84-4.083-2.564.007.93a39.631,39.631,0,0,0,.324,4.761q.27,2.038.635,3.978a2.121,2.121,0,0,1,1.086.339q-.423-2.169-.73-4.458c-.158-1.218-.257-2.456-.3-3.69l7.9,4.959-7.822-9.455c.712-11.453,5.132-22.993,6.373-26.039.666.864,1.922,2.541,3.425,4.781l-2.732,6.091,3.9-4.319a93.256,93.256,0,0,1,4.661,8.126l-4.207,9.379,5.688-6.308a50.189,50.189,0,0,1,4.085,13.46c1,7.521.8,14.745-.547,20.343-1.292,5.362-3.568,8.659-6.246,9.044a4.234,4.234,0,0,1-1.65-.1,2.449,2.449,0,0,1-1.48.452H241.4a5.8,5.8,0,0,0,2.712.728,4.9,4.9,0,0,0,.7-.05c3.149-.452,5.663-3.941,7.08-9.822C253.269,671.091,253.471,663.725,252.456,656.064Z" transform="translate(-198.243 -386.155)" fill="#e6e6e6"/>
      <path id="Path_1803" data-name="Path 1803" d="M227.623,723.008c-4.118,0-10.056-2.266-15.946-6.39a25.443,25.443,0,0,1-2.478-1.993l-.66-.6,2.494-.718-3.321-.122-.14-.147c-6.225-6.52-10.1-15.728-10.137-15.82l-.3-.728.787.036c.078,0,1.95.092,4.762.491l.175.025h0l.617.094a61.886,61.886,0,0,1,6.815,1.432l.24.065.748,1.843-.114-1.653.687.2a33.115,33.115,0,0,1,9.164,4.249c8.957,6.272,13.913,14.111,11.293,17.852C231.409,722.4,229.761,723.008,227.623,723.008Zm-17.072-8.524c.547.463,1.116.9,1.7,1.316,8.2,5.745,17.012,7.917,19.234,4.745s-2.833-10.708-11.037-16.453a32.078,32.078,0,0,0-8.19-3.907l.444,6.458-2.914-7.178c-1.919-.509-3.883-.928-5.848-1.248l.322,4.688-2.006-4.94c-1.554-.213-2.807-.329-3.569-.388a57.984,57.984,0,0,0,9.468,14.622l9.165.335Z" transform="translate(-182.22 -422.871)" fill="#e6e6e6"/>
      <path id="Path_1804" data-name="Path 1804" d="M355.886,461.531a5.216,5.216,0,0,0-6.156-5.107L340.6,440.293l-3.768,7.724,8.728,14.856a5.244,5.244,0,0,0,10.329-1.342Z" transform="translate(-252.069 -294.774)" fill="#a0616a"/>
      <path id="Path_1805" data-name="Path 1805" d="M455.995,492.675a5.216,5.216,0,0,1,2.977-7.424l.338-18.534,7.944,5.449-1.538,16.765a5.245,5.245,0,0,1-9.72,3.744Z" transform="translate(-311.342 -307.986)" fill="#a0616a"/>
      <path id="Path_1806" data-name="Path 1806" d="M328.744,392.328l6.538-6.129-3.355-33.1,3.882-46.788h0c-8.433,2.65-17.487,9.77-18.979,18.482L311.5,355.961Z" transform="translate(-239.403 -227.783)" fill="#e6e6e6"/>
      <path id="Path_1807" data-name="Path 1807" d="M180.962,215.083l-5.312,21.248,8.055,30.152-5.194-28.518Z" transform="translate(-87.825 -107.541)" opacity="0.2"/>
      <path id="Path_1808" data-name="Path 1808" d="M451.827,405.608l10.624,1.226-2.488-78.892a18.363,18.363,0,0,0-11.291-16.372l-3.792-1.58L445.9,346.97Z" transform="translate(-306.095 -229.622)" fill="#e6e6e6"/>
      <path id="Path_1809" data-name="Path 1809" d="M280.666,237.114l4.1,45.531-6.943-45.214Z" transform="translate(-138.911 -118.557)" opacity="0.2"/>
    </g>
    <g id="Group_6555" data-name="Group 6555" transform="translate(1192 569.023)" opacity="0.5">
      <path id="Path_1810" data-name="Path 1810" d="M529.631,152.544h1.745V110.03c0-13.589,12.386-24.606,27.665-24.606h101.27c15.279,0,27.665,11.016,27.665,24.606V343.262c0,13.589-12.386,24.606-27.665,24.606H559.041c-15.279,0-27.665-11.016-27.665-24.606V182.805h-1.745Z" transform="translate(-444.771 -85.424)" fill="#e6e6e6"/>
      <path id="Path_1811" data-name="Path 1811" d="M547.127,120.3V353.184c0,10.148,9.25,18.376,20.661,18.376H669.543c11.41,0,20.661-8.227,20.661-18.376V120.3c0-10.148-9.25-18.376-20.661-18.376H657.2a7.918,7.918,0,0,1-.946,8.165,10.2,10.2,0,0,1-8.143,3.862H590.094a10.2,10.2,0,0,1-8.143-3.862,7.919,7.919,0,0,1-.946-8.165H567.788c-11.41,0-20.66,8.227-20.661,18.376Z" transform="translate(-454.634 -95.518)" fill="#fff"/>
      <path id="Path_1812" data-name="Path 1812" d="M281.349,611.944a3.527,3.527,0,0,0,2.153-.715l4.852-3.765a2.7,2.7,0,0,0,.318-4.108l-35.284-35.98a2.45,2.45,0,0,0-.225-.208,3.577,3.577,0,0,0-4.39-.07l-4.856,3.764a2.807,2.807,0,0,0-1.113,2h0a2.71,2.71,0,0,0,.8,2.112l35.278,35.98a3.46,3.46,0,0,0,2.466.994Z" transform="translate(78.888 -379.726)" fill="#020413"/>
      <path id="Path_1813" data-name="Path 1813" d="M446.662,535.638a3.778,3.778,0,0,0,1-.137,3.192,3.192,0,0,0,1.914-1.439l2.95-5.092a2.681,2.681,0,0,0-.745-3.515,3.137,3.137,0,0,0-.662-.406l-47.711-21.877A3.487,3.487,0,0,0,399,504.424l-2.95,5.092a2.769,2.769,0,0,0,1.408,3.921l47.709,21.877A3.578,3.578,0,0,0,446.662,535.638Z" transform="translate(-151.245 -340.851)" fill="#020413"/>
      <path id="Path_1814" data-name="Path 1814" d="M420.284,553.23a3.375,3.375,0,0,0,2.935-1.609l2.889-5.119a2.611,2.611,0,0,0,.252-2c-.013-.052-.032-.108-.05-.162l-.017-.051c-.051-.134-.1-.324-.16-.545l-.034-.128a4.626,4.626,0,0,0-1.013-2.277.964.964,0,0,0-.223-.138l-20.946-11.294a3.65,3.65,0,0,0-2.529-.177,3.206,3.206,0,0,0-1.894,1.456l-5.29,9.7a2.772,2.772,0,0,0,1.461,3.9l23.2,8.145A3.463,3.463,0,0,0,420.284,553.23Z" transform="translate(-124.008 -357.209)" fill="#2f2e41"/>
      <ellipse id="Ellipse_271" data-name="Ellipse 271" cx="23.353" cy="20.77" rx="23.353" ry="20.77" transform="translate(288.609 127.608)" fill="#020413"/>
      <path id="Path_1815" data-name="Path 1815" d="M339.637,728.422h6.44a3.111,3.111,0,0,0,3.273-2.911V677a3.111,3.111,0,0,0-3.273-2.911h-6.441a3.543,3.543,0,0,0-1.184.2,2.936,2.936,0,0,0-2.079,2.576.68.68,0,0,0-.01.135v48.516A3.111,3.111,0,0,0,339.637,728.422Z" transform="translate(-21.814 -445.632)" fill="#020413"/>
      <path id="Path_1816" data-name="Path 1816" d="M358.988,697.143a1.593,1.593,0,0,1,.1-.132,2.636,2.636,0,0,1,.332-.524L370.4,682.827l9.045-11.251h15.429l-1.091,1.354-1.942,2.418-6.017,7.482-12.894,16.04,11.952,21.353c.489.869-.345,2.119-1.85,2.786l-5.764,2.554a4.665,4.665,0,0,1-1.846.411,1.949,1.949,0,0,1-1.772-.776l-14.857-26.545A1.4,1.4,0,0,1,358.988,697.143Z" transform="translate(-77.063 -444.096)" fill="#020413"/>
      <path id="Path_1817" data-name="Path 1817" d="M312.17,580.532a3.5,3.5,0,0,0,2.283-.836l8.739-7.454a2.782,2.782,0,0,0,.941-1.662,2.24,2.24,0,0,0,.037-.4,2.358,2.358,0,0,0-.038-.448,2.761,2.761,0,0,0-.907-1.617l-18.583-14.288c-.5-.462-1.781-.366-2.907-.282l-.17.013q-.311.03-.625.032c-.077.007-.167,0-.249.007a3.491,3.491,0,0,0-2.078.832l-4.586,4.021a2.692,2.692,0,0,0-.033,4.116L309.8,579.643a3.473,3.473,0,0,0,2.367.89Z" transform="translate(22.264 -371.833)" fill="#2f2e41"/>
      <path id="Path_1818" data-name="Path 1818" d="M375.9,468.755l.024-.776a7.951,7.951,0,0,1-4.13-.83,2.319,2.319,0,0,1-1.039-1.757,1.291,1.291,0,0,1,.5-1.123,2.928,2.928,0,0,1,2.7-.021l.722.294-1.385-9-.865.105,1.178,7.656a3.4,3.4,0,0,0-2.914.373,2.016,2.016,0,0,0-.812,1.743,3.07,3.07,0,0,0,1.4,2.357A8.843,8.843,0,0,0,375.9,468.755Z" transform="translate(-63.01 -311.903)" fill="#2f2e41"/>
      <rect id="Rectangle_1504" data-name="Rectangle 1504" width="4.7" height="0.776" transform="translate(300.444 144.405)" fill="#2f2e41"/>
      <rect id="Rectangle_1505" data-name="Rectangle 1505" width="4.7" height="0.776" transform="translate(315.28 144.405)" fill="#2f2e41"/>
      <path id="Path_1819" data-name="Path 1819" d="M321.97,597.051h41.453c1.59,0,2.836-2.272,2.836-5.172V555.526c0-9.141-6.662-17.227-16.46-19.986a3.254,3.254,0,0,0,.1-.777,3.941,3.941,0,0,0-4.145-3.687h-6.109a3.941,3.941,0,0,0-4.145,3.687,3.254,3.254,0,0,0,.1.779,24.69,24.69,0,0,0-6.462,2.847c-.406.253-.807.522-1.19.8a21.151,21.151,0,0,0-7.429,9.267,18.9,18.9,0,0,0-.634,1.821h0a18.9,18.9,0,0,0-.744,5.249v36.353c0,2.828,1.2,5.083,2.745,5.162a.358.358,0,0,0,.091.01Z" transform="translate(-31.205 -358.123)" fill="#2f2e41"/>
      <path id="Path_1820" data-name="Path 1820" d="M325.97,708.764h16.581a2.7,2.7,0,0,0,2.836-2.523V694.6a2.7,2.7,0,0,0-2.836-2.523H325.97a2.7,2.7,0,0,0-2.836,2.523v11.643A2.7,2.7,0,0,0,325.97,708.764Z" transform="translate(-12.078 -456.64)" fill="#2f2e41"/>
      <path id="Path_1821" data-name="Path 1821" d="M392.476,702.493a2.849,2.849,0,0,0,2.662-1.644l4.559-10.914a2.455,2.455,0,0,0-1.671-3.243l-15.543-5.136a2.954,2.954,0,0,0-3.647,1.486l-4.559,10.914a2.455,2.455,0,0,0,1.671,3.243l15.543,5.136A3.139,3.139,0,0,0,392.476,702.493Z" transform="translate(-88.803 -450.106)" fill="#2f2e41"/>
      <path id="Path_1822" data-name="Path 1822" d="M346.651,401.118c-4.328-2.225-9.576-.518-14.047.415-4.777,1-9.826,1.213-14.328-.8-3.747-1.677-6.722-4.982-7.079-8.769a8.53,8.53,0,0,1,5.7-8.641c3.863-1.353,8.78.417,10.189,3.943l-1.2-.139c4.63-5.406,10.337-10.985,18.3-12.037a16.4,16.4,0,0,1,10.439,1.772,13.856,13.856,0,0,1,5.791,7.188,35.428,35.428,0,0,1,1.819,10.347c.049.748-1.26.746-1.309,0-.358-5.458-.94-12.04-5.957-15.853a13.991,13.991,0,0,0-9.439-2.429,20.665,20.665,0,0,0-9.74,3.429,41.786,41.786,0,0,0-8.776,8.172.7.7,0,0,1-.648.27.65.65,0,0,1-.548-.409c-1.131-2.83-5.1-4.15-8.187-3.255a7.355,7.355,0,0,0-5.131,7.644c.335,3.561,3.4,6.556,6.942,7.981,4.268,1.717,8.944,1.3,13.361.35,4.691-1.007,9.99-2.5,14.5-.181a.546.546,0,0,1,.216.787.7.7,0,0,1-.876.219Z" transform="translate(-23.709 -262.564)" fill="#2f2e41"/>
      <path id="Path_1823" data-name="Path 1823" d="M588.87,157.575c7.712,0,13.963,5.56,13.963,12.419s-6.251,12.419-13.963,12.419h0c-7.712,0-13.963-5.56-13.963-12.419S581.158,157.575,588.87,157.575Z" transform="translate(-379.384 -129.574)" fill="#f2f2f2"/>
      <path id="Path_1824" data-name="Path 1824" d="M666.737,206.785h73.306a3.126,3.126,0,1,0,0-6.209H666.737a3.126,3.126,0,1,0,0,6.209Z" transform="translate(-558.631 -155.887)" fill="#f2f2f2"/>
      <path id="Path_1825" data-name="Path 1825" d="M666.737,172.785h23.126a3.126,3.126,0,1,0,0-6.209H666.737a3.126,3.126,0,1,0,0,6.209Z" transform="translate(-508.451 -135.082)" fill="#f2f2f2"/>
      <path id="Path_1826" data-name="Path 1826" d="M588.87,291.575c7.712,0,13.963,5.56,13.963,12.419s-6.251,12.419-13.963,12.419h0c-7.712,0-13.963-5.56-13.963-12.419S581.158,291.575,588.87,291.575Z" transform="translate(-379.384 -211.57)" fill="#f2f2f2"/>
      <path id="Path_1827" data-name="Path 1827" d="M666.737,340.785h73.306a3.126,3.126,0,1,0,0-6.209H666.737a3.126,3.126,0,1,0,0,6.209Z" transform="translate(-558.631 -237.883)" fill="#f2f2f2"/>
      <path id="Path_1828" data-name="Path 1828" d="M666.737,306.785h23.126a3.126,3.126,0,1,0,0-6.209H666.737a3.126,3.126,0,1,0,0,6.209Z" transform="translate(-508.451 -217.078)" fill="#f2f2f2"/>
      <path id="Path_1829" data-name="Path 1829" d="M588.87,559.576c7.712,0,13.963,5.56,13.963,12.419s-6.251,12.419-13.963,12.419h0c-7.712,0-13.963-5.56-13.963-12.419S581.158,559.576,588.87,559.576Z" transform="translate(-379.384 -375.562)" fill="#f2f2f2"/>
      <path id="Path_1830" data-name="Path 1830" d="M666.737,608.785h73.306a3.126,3.126,0,1,0,0-6.209H666.737a3.126,3.126,0,1,0,0,6.209Z" transform="translate(-558.631 -401.875)" fill="#f2f2f2"/>
      <path id="Path_1831" data-name="Path 1831" d="M666.737,574.785h23.126a3.126,3.126,0,1,0,0-6.209H666.737a3.126,3.126,0,1,0,0,6.209Z" transform="translate(-508.451 -381.07)" fill="#f2f2f2"/>
      <path id="Path_1832" data-name="Path 1832" d="M588.87,693.576c7.712,0,13.963,5.56,13.963,12.419s-6.251,12.419-13.963,12.419h0c-7.712,0-13.963-5.56-13.963-12.419S581.158,693.576,588.87,693.576Z" transform="translate(-379.384 -457.558)" fill="#f2f2f2"/>
      <path id="Path_1833" data-name="Path 1833" d="M666.737,742.785h73.306a3.126,3.126,0,1,0,0-6.209H666.737a3.126,3.126,0,1,0,0,6.209Z" transform="translate(-558.631 -483.87)" fill="#f2f2f2"/>
      <path id="Path_1834" data-name="Path 1834" d="M666.737,708.785h23.126a3.126,3.126,0,1,0,0-6.209H666.737a3.126,3.126,0,1,0,0,6.209Z" transform="translate(-508.451 -463.066)" fill="#f2f2f2"/>
      <path id="Path_1835" data-name="Path 1835" d="M508.777,438.506H677.206c3.974,0,7.2-2.869,7.2-6.4V383.979c0-3.535-3.225-6.4-7.2-6.4H508.777c-3.974,0-7.2,2.869-7.2,6.4V432.1c0,3.535,3.225,6.4,7.2,6.4Z" transform="translate(-428.959 -264.195)" fill="#fff"/>
      <path id="Path_1836" data-name="Path 1836" d="M588.87,424.076c7.712,0,13.963,5.56,13.963,12.419s-6.251,12.419-13.963,12.419h0c-7.712,0-13.963-5.56-13.963-12.419S581.158,424.076,588.87,424.076Z" transform="translate(-379.384 -292.649)" fill="#020413"/>
      <path id="Path_1837" data-name="Path 1837" d="M666.737,473.285h73.306a3.126,3.126,0,1,0,0-6.209H666.737a3.126,3.126,0,1,0,0,6.209Z" transform="translate(-558.631 -318.961)" fill="#ccc"/>
      <path id="Path_1838" data-name="Path 1838" d="M666.737,439.285h23.126a3.126,3.126,0,1,0,0-6.209H666.737a3.126,3.126,0,1,0,0,6.209Z" transform="translate(-508.451 -298.156)" fill="#ccc"/>
      <path id="Path_1839" data-name="Path 1839" d="M508.777,438.506H677.206c3.974,0,7.2-2.869,7.2-6.4V383.979c0-3.535-3.225-6.4-7.2-6.4H508.777c-3.974,0-7.2,2.869-7.2,6.4V432.1c0,3.535,3.225,6.4,7.2,6.4Zm168.429-60.542c3.734,0,6.759,2.695,6.763,6.015V432.1c0,3.321-3.03,6.012-6.763,6.015H508.777c-3.734,0-6.759-2.695-6.763-6.015V383.979c0-3.321,3.03-6.012,6.763-6.015Z" transform="translate(-428.959 -264.195)" fill="#3f3d56"/>
      <path id="Path_395" data-name="Path 395" d="M596.633,451.791a1.813,1.813,0,0,1-1.006-.3l-.018-.012-3.789-2.578a1.39,1.39,0,0,1-.312-2.1,1.827,1.827,0,0,1,2.361-.277l2.454,1.674,5.8-6.729a1.826,1.826,0,0,1,2.36-.277h0l-.036.044.037-.044a1.391,1.391,0,0,1,.311,2.1l-6.821,7.911a1.766,1.766,0,0,1-1.339.584Z" transform="translate(-388.665 -302.861)" fill="#fff"/>
      <path id="Path_1840" data-name="Path 1840" d="M113.436,813.352H537.564a.391.391,0,1,0,0-.776H113.436a.391.391,0,1,0,0,.776Z" transform="translate(-113 -530.376)" fill="#ccc"/>
    </g>
  </g>
</svg>
