<svg xmlns="http://www.w3.org/2000/svg" width="18.09" height="18.217" viewBox="0 0 18.09 18.217">
  <path id="Icon_awesome-pencil-alt" data-name="Icon awesome-pencil-alt" d="M16.618,4.745,15.079,6.284a.4.4,0,0,1-.567,0l-3.7-3.7a.4.4,0,0,1,0-.567L12.346.473a1.605,1.605,0,0,1,2.266,0l2.006,2.006A1.6,1.6,0,0,1,16.618,4.745ZM9.486,3.334.722,12.1.014,16.152a.8.8,0,0,0,.928.928L5,16.369l8.764-8.764a.4.4,0,0,0,0-.567l-3.7-3.7a.4.4,0,0,0-.571,0ZM4.143,11.347a.465.465,0,0,1,0-.661l5.14-5.14a.467.467,0,1,1,.661.661L4.8,11.347a.465.465,0,0,1-.661,0Zm-1.2,2.807h1.6v1.211l-2.153.377L1.349,14.7l.377-2.153H2.938Z" transform="translate(0.502 0.622)" fill="none" stroke="#fff" stroke-width="1"/>
</svg>
