<svg id="Group_6489" data-name="Group 6489" xmlns="http://www.w3.org/2000/svg" width="51" height="51" viewBox="0 0 51 51">
  <g id="Ellipse_241" data-name="Ellipse 241" fill="#fff" stroke="#161837" stroke-width="2">
    <circle cx="25.5" cy="25.5" r="25.5" stroke="none"/>
    <circle cx="25.5" cy="25.5" r="24.5" fill="none"/>
  </g>
  <g id="Group_403" data-name="Group 403" transform="translate(-246.792 84.329)">
    <g id="Group_402" data-name="Group 402" transform="translate(252.792 -73.344)">
      <g id="Group_2" data-name="Group 2" transform="translate(16.909 4.6)">
        <g id="Group_1" data-name="Group 1" transform="translate(0 0)">
          <path id="Path_4" data-name="Path 4" d="M2896.664,1523.359a.922.922,0,0,0-.84-1.033,39.264,39.264,0,0,1-8.82-1.252l-.577-.126h0l-.021-.008-3.7,12.238.018,0c2.448.729,3.563,3.14,3.986,4.542.1.338-.245.658-.528.489a16.184,16.184,0,0,0-4.279-2.291l-.023-.006-2.03,6.719a1.566,1.566,0,0,0,.53.056C2893.788,1541.8,2896.244,1527.294,2896.664,1523.359Zm-7.678,10.475-.029-.009a.924.924,0,0,1-.408-1.519l1.057-1.124a.169.169,0,0,1,.291.087l.265,1.52A.924.924,0,0,1,2888.986,1533.833Zm2.535-4.456a3.769,3.769,0,0,1-4.857-4.216.223.223,0,0,1,.4-.094,10.592,10.592,0,0,0,4.513,3.9A.223.223,0,0,1,2891.521,1529.378Z" transform="translate(-2873.149 -1516.81)" fill="#fc9603"/>
          <path id="Path_5" data-name="Path 5" d="M2642.5,1390.951a.391.391,0,0,1-.172-.7,6.194,6.194,0,0,1,5.81-1.605l3.7-12.238-.53-.2a39.926,39.926,0,0,1-8.064-3.81.921.921,0,0,0-1.265.392c-1.846,3.489-7.941,16.933,2.778,25.056a1.568,1.568,0,0,0,.5.252l.005,0,.022.006,2.031-6.718A19.676,19.676,0,0,0,2642.5,1390.951Zm.716-9.916a.22.22,0,0,1,.169-.369,10.452,10.452,0,0,0,5.768-1.157.22.22,0,0,1,.289.293,3.718,3.718,0,0,1-6.225,1.232Z" transform="translate(-2638.579 -1372.28)" fill="#ffa515"/>
        </g>
      </g>
      <g id="Group_4" data-name="Group 4" transform="translate(0 0)">
        <g id="Group_3" data-name="Group 3">
          <path id="Path_7" data-name="Path 7" d="M2039.53,1371.79a.39.39,0,0,1,.166-.7,17.071,17.071,0,0,0,4.674-.433l-4.22-14.049-.127.05h0l-.575.131a39.929,39.929,0,0,1-8.818,1.334.922.922,0,0,0-.831,1.031c.414,3.925,2.85,18.484,16.277,19.25a1.568,1.568,0,0,0,.552-.067l.005,0,.04-.013-1.482-4.933C2042.821,1374.028,2040.635,1372.694,2039.53,1371.79Zm-4.789-6.209a.22.22,0,0,1-.322-.257,3.718,3.718,0,0,1,6.036-1.96.22.22,0,0,1-.124.386,10.454,10.454,0,0,0-5.59,1.832Z" transform="translate(-2029.792 -1352.443)" fill="#e7302a"/>
          <path id="Path_8" data-name="Path 8" d="M2412.415,1207.165a.922.922,0,0,0-1.273-.39,39.266,39.266,0,0,1-8.02,3.878l-.421.167,4.221,14.049.155-.052a19.583,19.583,0,0,0,4.258-2.33c.282-.172.631.145.532.484a6.188,6.188,0,0,1-3.944,4.578c-.061.019-.121.036-.181.052l1.482,4.933a1.557,1.557,0,0,0,.453-.243C2420.312,1224.079,2414.261,1210.666,2412.415,1207.165Zm-.558,8.077a10.589,10.589,0,0,0-5.693,1.773.223.223,0,0,1-.322-.266,3.769,3.769,0,0,1,6.146-1.9A.223.223,0,0,1,2411.857,1215.242Z" transform="translate(-2392.344 -1206.656)" fill="#d31e1e"/>
        </g>
      </g>
    </g>
  </g>
</svg>
