<svg xmlns="http://www.w3.org/2000/svg" xmlns:xlink="http://www.w3.org/1999/xlink" width="65" height="65" viewBox="0 0 65 65">
  <defs>
    <linearGradient id="linear-gradient" y1="0.5" x2="1" y2="0.5" gradientUnits="objectBoundingBox">
      <stop offset="0" stop-color="#fff"/>
      <stop offset="1" stop-color="#8585ff"/>
    </linearGradient>
    <linearGradient id="linear-gradient-2" x1="-6.041" y1="-3.05" x2="-5.041" y2="-3.05" xlink:href="#linear-gradient"/>
    <linearGradient id="linear-gradient-3" x1="-2.919" y1="4.254" x2="-1.919" y2="4.254" xlink:href="#linear-gradient"/>
  </defs>
  <g id="Group_6560" data-name="Group 6560" transform="translate(-622 -608)">
    <g id="Ellipse_241" data-name="Ellipse 241" transform="translate(622 608)" fill="#fff" stroke="#161837" stroke-width="2">
      <circle cx="32.5" cy="32.5" r="32.5" stroke="none"/>
      <circle cx="32.5" cy="32.5" r="31.5" fill="none"/>
    </g>
    <g id="Group_383" data-name="Group 383" transform="translate(-5541.939 -723.942)">
      <path id="Path_1615" data-name="Path 1615" d="M6182.214,1379.8c-5.083,2.875-1.3,8.79-6.693,10.369-10.762,3.15-10.762,13.256-2.1,18.768,2.931,1.865-1.852,11.3,1.313,13.387,3.281,2.166,15.378-1.175,20.606-1.116,5.775.066,12.654,1.187,18.309,1.378s17.768-11.191,8.946-18.468c-4.024-3.319-8.284.011-6.321-11.457,1.537-8.983-9.246-7.275-12.994-8.137S6188.143,1376.449,6182.214,1379.8Z" transform="translate(0 -38.246)" fill="#d6d6ff" opacity="0.5"/>
      <circle id="Ellipse_59" data-name="Ellipse 59" cx="9.314" cy="9.314" r="9.314" transform="translate(6168.999 1351.925) rotate(-45)" opacity="0.5" fill="url(#linear-gradient)"/>
      <path id="Path_1616" data-name="Path 1616" d="M6279.418,1745.3c.941,1.381,2.378.877,2.624,1.846s-2.175-.384-2.539-.16-1.179,2.214-.463,2.726,3.568-.858,4.141-.525.884,1.68-1.492,1.922-2.682.044-2.83.537-.746,2.783.591,3.08,5.581-2.314,5.837-1.953-.3,1.688-2.521,2.939-3.768,1.131-3.724,1.639.293,2.6,1.469,2.875,6.269-2.854,6.928-2.624,1.125,1.883.481,2.2-2.764,1.65-4.49,1.642-2.459.025-1.691.756,3.076,2.989,5.4,2.529,4.469-2.6,4.512-2.475-.675,1.4-.5,1.578,1.043.228,2.023-1.712,3.359-2.5,3.5-4.528-.269-5.954-1.074-5.659-.561,2.7-2.46,3.637-3.439,1.23-2.491.028,3.221-4.439,2.606-6.335-1.923-2.228-2.163-1.7-1.024,3.606-2.791,4.241-.119-.629.784-1.987a4.17,4.17,0,0,0,.612-3.57c-.307-.58-.479.01-.9-.464s-.7-1.025-1.084-.7-.021,2.3-1.078,3-1.577.97-1.633.336,1.393-1.242,1.262-2.732-.158-1.073-.693-1.345-.968-.458-1.038-.164.132,2.226-.477,2.567-1.07.19-.609-.746.549-1.391.083-1.605-.853-.244-.8.038.077,1.24-.147.876-.43-1.624-1.537-1.846S6278.9,1744.545,6279.418,1745.3Z" transform="translate(-106.108 -385.344)" fill="#afc1fa"/>
      <circle id="Ellipse_60" data-name="Ellipse 60" cx="13.998" cy="13.998" r="13.998" transform="translate(6191.931 1344.167)" opacity="0.5" fill="url(#linear-gradient-2)"/>
      <circle id="Ellipse_61" data-name="Ellipse 61" cx="7.92" cy="7.92" r="7.92" transform="translate(6182.411 1378.93) rotate(-45)" opacity="0.5" fill="url(#linear-gradient-3)"/>
      <path id="Path_1617" data-name="Path 1617" d="M6680.319,1638.374c-.925,1.877-.066,5.58-1.116,5.376s-.159-4.7-.4-4.836-2.391-.029-2.889.946,1.039,5.776.524,6.185-2.292-3.623-2.589-4.152-3.042,1.08-3.514,1.823.105,3.852,2.031,6.84,1.926,4.3-.532,2.457-2.622-7.445-3.161-7.659-3.526.859-4.191,3.163a5.372,5.372,0,0,0,1.413,5.159c.929,1.016,2.871,1.955,2.627,2.271a4.39,4.39,0,0,1-3.956.176c-1.361-.845-1.589.89,0,2.16s4.882,1.693,8.173,1.206,2.093,1.659,4.292,2.4,7.6-.113,6.452-1.525c-.076-.093-.267-.079-3.3-.478-3.134-.412-2.863-1.9-2.312-2.029s6.725,1,8.129-.437,2.659-5.748,1.49-5.993-5.059,1.741-7.069,1.151-1.893-1-.19-1.453,6.8-1.458,7.052-3.025-.482-2.381-1.361-2.153-4.53,1.445-4.4.234,3.081-.346,3.411-2.606-.795-.862-1.849-.668-1.978.088-.984-1.008,1.759-1.765.694-3.388A1.421,1.421,0,0,0,6680.319,1638.374Z" transform="translate(-472.572 -284.665)" fill="#afc1fa"/>
      <g id="Group_355" data-name="Group 355" transform="translate(6198.243 1347.227)">
        <g id="Group_354" data-name="Group 354" transform="translate(0 0)">
          <g id="Group_344" data-name="Group 344" transform="translate(3.229 1.958)">
            <path id="Path_1618" data-name="Path 1618" d="M6885.571,1573.177a.085.085,0,0,1-.1-.043,5.568,5.568,0,0,1,.52-5.073c.583-.954,1.2-1.862,1.8-2.74a17.932,17.932,0,0,0,2.334-4.024,9.158,9.158,0,0,0,.285-2.444,3.815,3.815,0,0,1,.276-1.775.085.085,0,1,1,.143.091,3.758,3.758,0,0,0-.249,1.687,9.33,9.33,0,0,1-.292,2.488,17.989,17.989,0,0,1-2.356,4.07c-.6.876-1.213,1.782-1.793,2.733a5.386,5.386,0,0,0-.512,4.911.085.085,0,0,1-.04.113Z" transform="translate(-6885.087 -1557.04)" fill="#94b5ff"/>
          </g>
          <g id="Group_345" data-name="Group 345" transform="translate(7.8)">
            <path id="Path_1619" data-name="Path 1619" d="M6981.572,1519.156a1.756,1.756,0,0,1-.68-2.1c.562-1.259,1.3-1,1.394-.9.278.318-.008.821-.008.821s.632-.734.919-.228.05.958-.5,1.339A7.067,7.067,0,0,0,6981.572,1519.156Z" transform="translate(-6980.747 -1516.069)" fill="#94b5ff"/>
          </g>
          <g id="Group_346" data-name="Group 346" transform="translate(5.88 3.831)">
            <path id="Path_1620" data-name="Path 1620" d="M6943.162,1597.962c-.265-.529-.393-1.568-1.076-1.706s-.515.477-.515.477-.9,0-1,.6,1.23.359,1.55.376A6.206,6.206,0,0,1,6943.162,1597.962Z" transform="translate(-6940.563 -1596.236)" fill="#94b5ff"/>
          </g>
          <g id="Group_347" data-name="Group 347" transform="translate(8.446 4.112)">
            <path id="Path_1621" data-name="Path 1621" d="M6994.262,1603.721s1.627-1.931,2.141-1.548.023.695.023.695.733-.127.628.388-.565.442-1.256.173A1.97,1.97,0,0,0,6994.262,1603.721Z" transform="translate(-6994.262 -1602.123)" fill="#94b5ff"/>
          </g>
          <g id="Group_348" data-name="Group 348" transform="translate(4.461 6.827)">
            <path id="Path_1622" data-name="Path 1622" d="M6913.879,1660.2a1.536,1.536,0,0,0-1.271-1.167c-.829-.214-1.286-.026-1.346.234s.37.425.37.425-.7.048-.762.585,1.337-.156,1.869-.258A2.182,2.182,0,0,1,6913.879,1660.2Z" transform="translate(-6910.868 -1658.942)" fill="#94b5ff"/>
          </g>
          <g id="Group_349" data-name="Group 349" transform="translate(7.471 7.092)">
            <path id="Path_1623" data-name="Path 1623" d="M6973.856,1665.478a4.83,4.83,0,0,1,1.969-.943c1.2-.264.815.54.815.54s.744.229.467.855-1.165-.172-1.725-.383A3.927,3.927,0,0,0,6973.856,1665.478Z" transform="translate(-6973.856 -1664.482)" fill="#94b5ff"/>
          </g>
          <g id="Group_350" data-name="Group 350" transform="translate(2.679 9.29)">
            <path id="Path_1624" data-name="Path 1624" d="M6876.872,1711.429s.229-.633-.908-.874-1.772.127-1.975.451.38.579.38.579-.823.105-.792.692.966.092,1.736-.384A3.19,3.19,0,0,1,6876.872,1711.429Z" transform="translate(-6873.576 -1710.477)" fill="#94b5ff"/>
          </g>
          <g id="Group_351" data-name="Group 351" transform="translate(6.044 9.684)">
            <path id="Path_1625" data-name="Path 1625" d="M6943.986,1719.3a2.846,2.846,0,0,1,1.806-.572c.895.124,1.87.609,1.884,1.277s-.841.269-.841.269.517.89-.229,1.133-.1-1.049-.977-1.635A2.519,2.519,0,0,0,6943.986,1719.3Z" transform="translate(-6943.986 -1718.715)" fill="#94b5ff"/>
          </g>
          <g id="Group_352" data-name="Group 352" transform="translate(0 12.896)">
            <path id="Path_1626" data-name="Path 1626" d="M6821.164,1787.14c-.4-.661-.879-.1-1.337-.472s-.662-.877-1.111-.685-.1.582-.1.582-1.5.265-1,.9,1.634.078,2.326-.169A2.705,2.705,0,0,1,6821.164,1787.14Z" transform="translate(-6817.511 -1785.941)" fill="#94b5ff"/>
          </g>
          <g id="Group_353" data-name="Group 353" transform="translate(3.695 13.073)">
            <path id="Path_1627" data-name="Path 1627" d="M6894.832,1790.7s.2-.317,1.172-.069,1.736-1.116,2.209-.981.173.778.173.778,1.21.149.449,1.04-2.718-.555-3.1-.669A3.448,3.448,0,0,0,6894.832,1790.7Z" transform="translate(-6894.832 -1789.641)" fill="#94b5ff"/>
          </g>
        </g>
      </g>
      <g id="Group_367" data-name="Group 367" transform="translate(6175.702 1345.505)">
        <g id="Group_366" data-name="Group 366" transform="translate(0 0)">
          <g id="Group_356" data-name="Group 356" transform="translate(2.549 2.198)">
            <path id="Path_1628" data-name="Path 1628" d="M6405.077,1544.172a.1.1,0,0,0,.116-.048,6.253,6.253,0,0,0-.583-5.7c-.654-1.072-1.348-2.091-2.019-3.077a20.133,20.133,0,0,1-2.621-4.518,10.324,10.324,0,0,1-.32-2.744,4.293,4.293,0,0,0-.31-1.993.1.1,0,0,0-.161.1,4.219,4.219,0,0,1,.28,1.895,10.464,10.464,0,0,0,.329,2.794,20.2,20.2,0,0,0,2.646,4.571c.67.984,1.363,2,2.014,3.069a6.049,6.049,0,0,1,.575,5.513.094.094,0,0,0,.044.127Z" transform="translate(-6399.164 -1526.052)" fill="#94b5ff"/>
          </g>
          <g id="Group_357" data-name="Group 357" transform="translate(0.981)">
            <path id="Path_1629" data-name="Path 1629" d="M6368.313,1483.515a1.971,1.971,0,0,0,.764-2.354c-.631-1.414-1.463-1.124-1.564-1.007-.312.358.009.922.009.922s-.71-.824-1.032-.256-.058,1.075.563,1.5A7.885,7.885,0,0,1,6368.313,1483.515Z" transform="translate(-6366.35 -1480.048)" fill="#94b5ff"/>
          </g>
          <g id="Group_358" data-name="Group 358" transform="translate(3.109 4.302)">
            <path id="Path_1630" data-name="Path 1630" d="M6410.883,1572c.3-.594.441-1.761,1.208-1.915s.578.536.578.536,1.016,0,1.126.675-1.381.4-1.74.422A7,7,0,0,0,6410.883,1572Z" transform="translate(-6410.883 -1570.064)" fill="#94b5ff"/>
          </g>
          <g id="Group_359" data-name="Group 359" transform="translate(0 4.617)">
            <path id="Path_1631" data-name="Path 1631" d="M6348.965,1578.467s-1.826-2.168-2.4-1.738-.027.78-.027.78-.823-.142-.7.436.634.5,1.41.194A2.212,2.212,0,0,1,6348.965,1578.467Z" transform="translate(-6345.819 -1576.673)" fill="#94b5ff"/>
          </g>
          <g id="Group_360" data-name="Group 360" transform="translate(4.241 7.666)">
            <path id="Path_1632" data-name="Path 1632" d="M6434.567,1641.886a1.722,1.722,0,0,1,1.427-1.311c.931-.24,1.445-.029,1.512.263s-.417.477-.417.477.787.054.855.657-1.5-.175-2.1-.29A2.446,2.446,0,0,0,6434.567,1641.886Z" transform="translate(-6434.567 -1640.471)" fill="#94b5ff"/>
          </g>
          <g id="Group_361" data-name="Group 361" transform="translate(0.522 7.963)">
            <path id="Path_1633" data-name="Path 1633" d="M6360.455,1647.81a5.42,5.42,0,0,0-2.21-1.058c-1.341-.3-.915.607-.915.607s-.836.256-.525.96,1.309-.193,1.937-.43A4.412,4.412,0,0,1,6360.455,1647.81Z" transform="translate(-6356.735 -1646.692)" fill="#94b5ff"/>
          </g>
          <g id="Group_362" data-name="Group 362" transform="translate(5.901 10.431)">
            <path id="Path_1634" data-name="Path 1634" d="M6469.316,1699.4s-.259-.71,1.019-.982,1.99.143,2.217.506-.426.65-.426.65.924.118.889.777-1.085.1-1.949-.431A3.58,3.58,0,0,0,6469.316,1699.4Z" transform="translate(-6469.295 -1698.335)" fill="#94b5ff"/>
          </g>
          <g id="Group_363" data-name="Group 363" transform="translate(1.701 10.873)">
            <path id="Path_1635" data-name="Path 1635" d="M6385.56,1708.245a3.194,3.194,0,0,0-2.026-.642c-1.006.139-2.1.684-2.116,1.433s.945.3.945.3-.581,1,.256,1.272.114-1.177,1.1-1.836A2.831,2.831,0,0,1,6385.56,1708.245Z" transform="translate(-6381.417 -1707.586)" fill="#94b5ff"/>
          </g>
          <g id="Group_364" data-name="Group 364" transform="translate(8.529 14.48)">
            <path id="Path_1636" data-name="Path 1636" d="M6524.307,1784.415c.449-.742.986-.112,1.5-.53s.743-.985,1.247-.769.118.653.118.653,1.685.3,1.117,1.016-1.834.087-2.611-.19A3.032,3.032,0,0,0,6524.307,1784.415Z" transform="translate(-6524.307 -1783.068)" fill="#94b5ff"/>
          </g>
          <g id="Group_365" data-name="Group 365" transform="translate(3.705 14.679)">
            <path id="Path_1637" data-name="Path 1637" d="M6428.125,1788.413s-.229-.356-1.316-.078-1.95-1.253-2.481-1.1-.193.873-.193.873-1.359.168-.5,1.168,3.052-.623,3.482-.751A3.869,3.869,0,0,1,6428.125,1788.413Z" transform="translate(-6423.349 -1787.224)" fill="#94b5ff"/>
          </g>
        </g>
      </g>
      <path id="Path_1638" data-name="Path 1638" d="M6469.021,1522.622v32.262a.227.227,0,0,1-.228.228h-23.4a.228.228,0,0,1-.229-.228v-32.262a.513.513,0,0,1,.006-.078.573.573,0,0,1,.569-.5h22.709A.573.573,0,0,1,6469.021,1522.622Z" transform="translate(-264.713 -174.536)" fill="#fafbff"/>
      <path id="Path_1639" data-name="Path 1639" d="M6469.145,1522.354v1.847h-23.852v-1.847a.31.31,0,0,1,.31-.31h23.231A.31.31,0,0,1,6469.145,1522.354Z" transform="translate(-264.837 -174.532)" fill="#5372db"/>
      <circle id="Ellipse_62" data-name="Ellipse 62" cx="0.23" cy="0.23" r="0.23" transform="translate(6181.749 1348.361)" fill="#b1bff0"/>
      <circle id="Ellipse_63" data-name="Ellipse 63" cx="0.23" cy="0.23" r="0.23" transform="translate(6182.395 1348.361)" fill="#415aad"/>
      <circle id="Ellipse_64" data-name="Ellipse 64" cx="0.23" cy="0.23" r="0.23" transform="translate(6183.041 1348.361)" fill="#415aad"/>
      <rect id="Rectangle_150" data-name="Rectangle 150" width="18.825" height="8.673" rx="4.337" transform="translate(6182.966 1370.246)" fill="#95a9f0"/>
      <g id="Group_378" data-name="Group 378" transform="translate(6188.721 1371.752)">
        <g id="Group_377" data-name="Group 377" transform="translate(0 0)">
          <g id="Group_368" data-name="Group 368">
            <path id="Path_1640" data-name="Path 1640" d="M6620.54,2034.619a.1.1,0,0,1-.093-.065.106.106,0,0,1,.055-.136l1.212-.515.008,0-2.209-4.394a.043.043,0,0,0-.034-.012h-1.122a.1.1,0,0,1,0-.208h1.122a.237.237,0,0,1,.212.125l2.213,4.4a.2.2,0,0,1,.01.159.221.221,0,0,1-.124.129l-1.211.515A.1.1,0,0,1,6620.54,2034.619Z" transform="translate(-6618.256 -2029.284)" fill="#fff"/>
          </g>
          <g id="Group_369" data-name="Group 369" transform="translate(3.604 4.572)">
            <path id="Path_1641" data-name="Path 1641" d="M6695.826,2125.767l-2.146-.6.054-.206,2.146.6Z" transform="translate(-6693.681 -2124.96)" fill="#fff"/>
          </g>
          <g id="Group_370" data-name="Group 370" transform="translate(1.769 0.908)">
            <path id="Path_1642" data-name="Path 1642" d="M6659.979,2051.207h-3.3a.107.107,0,0,1,0-.214h3.3a.039.039,0,0,0,.031-.012l.6-1.858s-.008-.006-.024-.008l-5.224-.625a.106.106,0,0,1-.091-.118.1.1,0,0,1,.115-.094l5.224.625a.236.236,0,0,1,.175.11.215.215,0,0,1,.021.179l-.6,1.858A.235.235,0,0,1,6659.979,2051.207Z" transform="translate(-6655.274 -2048.276)" fill="#fff"/>
          </g>
          <g id="Group_371" data-name="Group 371" transform="translate(2.78 3.008)">
            <path id="Path_1643" data-name="Path 1643" d="M6680.374,2092.379h-3.883a.071.071,0,0,1,0-.143h3.883a.071.071,0,0,1,0,.143Z" transform="translate(-6676.422 -2092.236)" fill="#fff"/>
          </g>
          <g id="Group_372" data-name="Group 372" transform="translate(2.433 2.123)">
            <path id="Path_1644" data-name="Path 1644" d="M6673.744,2074.012h0l-4.51-.156a.076.076,0,0,1-.071-.079.074.074,0,0,1,.077-.074l4.51.156a.077.077,0,0,1,0,.154Z" transform="translate(-6669.16 -2073.703)" fill="#fff"/>
          </g>
          <g id="Group_373" data-name="Group 373" transform="translate(3.841 1.211)">
            <path id="Path_1645" data-name="Path 1645" d="M6698.7,2057.159a.075.075,0,0,1-.074-.077v-2.39a.074.074,0,1,1,.148,0v2.39A.075.075,0,0,1,6698.7,2057.159Z" transform="translate(-6698.629 -2054.616)" fill="#fff"/>
          </g>
          <g id="Group_374" data-name="Group 374" transform="translate(5.335 1.418)">
            <path id="Path_1646" data-name="Path 1646" d="M6729.961,2061.283h-.007a.072.072,0,0,1-.063-.08l.2-2.188a.071.071,0,0,1,.077-.066.074.074,0,0,1,.064.08l-.2,2.188A.071.071,0,0,1,6729.961,2061.283Z" transform="translate(-6729.89 -2058.948)" fill="#fff"/>
          </g>
          <g id="Group_375" data-name="Group 375" transform="translate(1.673 4.855)">
            <ellipse id="Ellipse_65" data-name="Ellipse 65" cx="0.462" cy="0.404" rx="0.462" ry="0.404" fill="#fff"/>
          </g>
          <g id="Group_376" data-name="Group 376" transform="translate(5.552 4.855)">
            <ellipse id="Ellipse_66" data-name="Ellipse 66" cx="0.462" cy="0.404" rx="0.462" ry="0.404" fill="#fff"/>
          </g>
        </g>
      </g>
      <rect id="Rectangle_151" data-name="Rectangle 151" width="8.735" height="8.369" rx="4.185" transform="translate(6182.983 1351.072)" fill="#cfd9ff"/>
      <path id="Rectangle_152" data-name="Rectangle 152" d="M4.185,0H4.55A4.185,4.185,0,0,1,8.735,4.185v0A4.185,4.185,0,0,1,4.55,8.369H4.185A4.185,4.185,0,0,1,0,4.185v0A4.185,4.185,0,0,1,4.185,0Z" transform="translate(6193.04 1351.072)" fill="#cfd9ff"/>
      <path id="Rectangle_153" data-name="Rectangle 153" d="M4.185,0H4.55A4.185,4.185,0,0,1,8.735,4.185v0A4.185,4.185,0,0,1,4.55,8.369H4.185A4.185,4.185,0,0,1,0,4.185v0A4.185,4.185,0,0,1,4.185,0Z" transform="translate(6182.983 1360.564)" fill="#cfd9ff"/>
      <path id="Rectangle_154" data-name="Rectangle 154" d="M4.185,0H4.55A4.185,4.185,0,0,1,8.735,4.185v0A4.185,4.185,0,0,1,4.55,8.369H4.185A4.185,4.185,0,0,1,0,4.185v0A4.185,4.185,0,0,1,4.185,0Z" transform="translate(6193.04 1360.564)" fill="#cfd9ff"/>
      <g id="Group_379" data-name="Group 379" transform="translate(6194.536 1352.76)">
        <path id="Path_1647" data-name="Path 1647" d="M6799.42,1632.693a.9.9,0,0,0,.839-.8.039.039,0,0,1,.044-.032,6,6,0,0,1,1.259.3c.473.172.655.249.723.279a.041.041,0,0,1,.02.053l-.544,1.253a.04.04,0,0,1-.051.022l-.729-.271a.04.04,0,0,0-.054.038v3.28a.041.041,0,0,1-.041.04h-1.437a.041.041,0,0,1-.041-.04l.013-4.121" transform="translate(-6796.565 -1631.861)" fill="#9c96ff"/>
        <path id="Path_1648" data-name="Path 1648" d="M6742.83,1632.693a.9.9,0,0,1-.839-.8.039.039,0,0,0-.044-.032,6.016,6.016,0,0,0-1.259.3c-.473.172-.655.249-.722.279a.04.04,0,0,0-.021.053l.544,1.253a.04.04,0,0,0,.051.022l.729-.271a.04.04,0,0,1,.054.038v3.28a.041.041,0,0,0,.041.04h1.438a.04.04,0,0,0,.04-.04l-.013-4.121" transform="translate(-6739.943 -1631.861)" fill="#9c96ff"/>
      </g>
      <g id="Group_381" data-name="Group 381" transform="translate(6184.798 1352.409)">
        <g id="Group_380" data-name="Group 380" transform="translate(0 0)">
          <path id="Path_1649" data-name="Path 1649" d="M6538.715,1625.326c-.554,0-.748-.559-.8-.772a.061.061,0,0,0-.091-.037l-1.644.991a.061.061,0,0,0-.023.078l.362.778a.06.06,0,0,0,.064.035l.814-.131a.061.061,0,0,1,.058.022c.111.139.6.764.568,1.01a31.246,31.246,0,0,1-1.509,2.812.061.061,0,0,0,.054.092h2.324Z" transform="translate(-6536.149 -1624.509)" fill="#9c96ff"/>
          <path id="Path_1650" data-name="Path 1650" d="M6585.771,1625.326c.555,0,.748-.559.8-.772a.061.061,0,0,1,.091-.037l1.645.991a.062.062,0,0,1,.023.078l-.362.778a.061.061,0,0,1-.065.035l-.813-.131a.061.061,0,0,0-.058.022c-.112.139-.6.764-.568,1.01a31.213,31.213,0,0,0,1.508,2.812.061.061,0,0,1-.053.092h-2.325Z" transform="translate(-6583.232 -1624.509)" fill="#9c96ff"/>
        </g>
      </g>
      <g id="Group_382" data-name="Group 382" transform="translate(6185.383 1362.038)">
        <path id="Path_1651" data-name="Path 1651" d="M6587.328,1826.006h1.536a.144.144,0,0,1,.133.088,6.226,6.226,0,0,1,.4,2.232,23.883,23.883,0,0,1-.168,2.975.145.145,0,0,1-.144.128h-.74a.144.144,0,0,1-.142-.115l-.786-3.743Z" transform="translate(-6585.468 -1826.006)" fill="#9c96ff"/>
        <path id="Path_1652" data-name="Path 1652" d="M6550.482,1826.006h-1.536a.145.145,0,0,0-.133.088,6.226,6.226,0,0,0-.4,2.232,23.759,23.759,0,0,0,.168,2.975.145.145,0,0,0,.144.128h.74a.145.145,0,0,0,.142-.115l.786-3.743Z" transform="translate(-6548.408 -1826.006)" fill="#9c96ff"/>
      </g>
      <path id="Path_1653" data-name="Path 1653" d="M6737.49,1854.232c.4,0,.44.529.984.661s1.4-.073,1.454.088.03,1.366-.309,1.659a11.946,11.946,0,0,1-4.64.162c-.822-.294-1.513-.734-1.351-1.043s1.454.059,2.584-.587A5.79,5.79,0,0,0,6737.49,1854.232Z" transform="translate(-539.371 -490.846)" fill="#9c96ff"/>
      <circle id="Ellipse_67" data-name="Ellipse 67" cx="1.01" cy="1.01" r="1.01" transform="translate(6190.11 1367.307)" fill="#3dbd00"/>
      <path id="Path_1654" data-name="Path 1654" d="M6653.253,1943.79a.008.008,0,0,0,0,.014,2.061,2.061,0,0,1,.251.294c.2.288.274.434.289.434s.1-.252.258-.537a9.548,9.548,0,0,1,.6-.8.008.008,0,0,0-.01-.012,7.147,7.147,0,0,0-.672.549,1.65,1.65,0,0,0-.2.254.007.007,0,0,1-.01,0,1.941,1.941,0,0,0-.309-.165A.465.465,0,0,0,6653.253,1943.79Z" transform="translate(-462.852 -575.546)" fill="#fff"/>
      <circle id="Ellipse_68" data-name="Ellipse 68" cx="1.01" cy="1.01" r="1.01" transform="translate(6200.163 1357.771)" fill="#3dbd00"/>
      <path id="Path_1655" data-name="Path 1655" d="M6863.628,1744.243a.008.008,0,0,0,0,.014,2.135,2.135,0,0,1,.251.294c.2.288.274.434.288.434s.1-.252.259-.537a9.771,9.771,0,0,1,.595-.8c.007-.007,0-.016-.01-.012a7.26,7.26,0,0,0-.673.549,1.6,1.6,0,0,0-.2.254.008.008,0,0,1-.011,0,1.911,1.911,0,0,0-.309-.165A.461.461,0,0,0,6863.628,1744.243Z" transform="translate(-663.174 -385.534)" fill="#fff"/>
      <path id="Path_1656" data-name="Path 1656" d="M6975.182,1860.909c-.014.015-.027.028-.042.041a1.225,1.225,0,0,1-.351-.228.176.176,0,0,1-.025-.058,3.012,3.012,0,0,1-.071-.425,4.5,4.5,0,0,1-.033-1.31c.092,0,.926-.158,1.137.357a.481.481,0,0,1,.032.1A1.76,1.76,0,0,1,6975.182,1860.909Z" transform="translate(-768.874 -495.297)" fill="#5b3702"/>
      <path id="Path_1657" data-name="Path 1657" d="M6974.855,1868.478a.7.7,0,0,1-.416-.244.619.619,0,0,1-.156-.313c0-.045.028-.08.085-.111.2-.11.7-.173.938-.513.151-.217.19-.284.166-.44a.517.517,0,0,1,.032.1A1.757,1.757,0,0,1,6974.855,1868.478Z" transform="translate(-768.548 -502.866)" fill="#ccc" style="mix-blend-mode: multiply;isolation: isolate"/>
      <path id="Path_1658" data-name="Path 1658" d="M6979.478,1880.932c.223-.234.364-.166.426-.037a.6.6,0,0,1-.21.53.484.484,0,0,1-.345,0C6979.343,1881.394,6979.478,1880.932,6979.478,1880.932Z" transform="translate(-773.372 -516.122)" fill="#fcd9bb"/>
      <path id="Path_1659" data-name="Path 1659" d="M6974.565,1895.654a2.838,2.838,0,0,1-1.072.161,3.826,3.826,0,0,0-.041-.481,1.057,1.057,0,0,0-.077-.313c-.078-.126.395-.543.422-.567h0a.664.664,0,0,1,.088.095A6.2,6.2,0,0,1,6974.565,1895.654Z" transform="translate(-767.675 -529.144)" fill="#fcd9bb"/>
      <path id="Path_1660" data-name="Path 1660" d="M6973.886,1894.547a1.29,1.29,0,0,1-.434.786,1.057,1.057,0,0,0-.077-.313c-.078-.126.395-.543.422-.567h0A.664.664,0,0,1,6973.886,1894.547Z" transform="translate(-767.675 -529.144)" fill="#e6e6e6" style="mix-blend-mode: multiply;isolation: isolate"/>
      <path id="Path_1661" data-name="Path 1661" d="M6947.381,1871.861a2.385,2.385,0,0,0,.329,1.823c.427.443,1.256-.386,1.3-.452a9.063,9.063,0,0,0,.094-1.175A11.269,11.269,0,0,0,6947.381,1871.861Z" transform="translate(-742.894 -507.632)" fill="#fcd9bb"/>
      <path id="Path_1662" data-name="Path 1662" d="M6943.815,1847.856l0,.031s.018-.168-.437-.275a6.33,6.33,0,0,0-1.286-.07.667.667,0,0,1-.259-.8c.127-.439.25-.575.275-.583s.267.333.374.37,1.146.123,1.293.287a1.431,1.431,0,0,1,.3.567C6944.08,1847.489,6943.815,1847.856,6943.815,1847.856Z" transform="translate(-737.614 -483.161)" fill="#5b3702"/>
      <path id="Path_1663" data-name="Path 1663" d="M6948.244,1846.165a6.065,6.065,0,0,0,.756.168,2.962,2.962,0,0,1,1.231.209,1.007,1.007,0,0,1,.425.566.652.652,0,0,0-.281-.221,3.572,3.572,0,0,0-.889-.138,2.2,2.2,0,0,1-.979-.216A.542.542,0,0,1,6948.244,1846.165Z" transform="translate(-743.754 -483.164)" fill="#704402"/>
      <path id="Path_1664" data-name="Path 1664" d="M6912.979,2021.937a.548.548,0,0,1-.036.063.344.344,0,0,1-.049.063.791.791,0,0,1-.218.179,1.265,1.265,0,0,1-.308.109c-.47.12-1.211.19-1.226.094-.018-.123.29-.252.622-.351a4.976,4.976,0,0,0,.839-.329,1.5,1.5,0,0,0,.135-.078s.036.008.083.021a.566.566,0,0,1,.188.072A.221.221,0,0,1,6912.979,2021.937Z" transform="translate(-708.425 -650.299)" fill="#e3c5a8"/>
      <path id="Path_1665" data-name="Path 1665" d="M6949.795,2202.038a3.149,3.149,0,0,1-.283.511c-.154.248-.343.537-.489.743a1.582,1.582,0,0,1-.214.267,6.382,6.382,0,0,1-1.373.1,3.457,3.457,0,0,1-.906-.053c-.043-.091.26-.423.825-.67s.776-.392.782-.549a4.342,4.342,0,0,1,.037-.694,4.956,4.956,0,0,1,.727-.254,3.314,3.314,0,0,1,.893.592A.026.026,0,0,1,6949.795,2202.038Z" transform="translate(-742.117 -821.456)" fill="#821e1d"/>
      <path id="Path_1666" data-name="Path 1666" d="M6999.248,2214.28a.039.039,0,0,1-.008.012,5.386,5.386,0,0,1-.812.8h0a.98.98,0,0,1,.05-.521,1.185,1.185,0,0,1,.1-.218,1.474,1.474,0,0,1,.619-.526A.3.3,0,0,1,6999.248,2214.28Z" transform="translate(-791.523 -833.26)" fill="#ab2625"/>
      <path id="Path_1667" data-name="Path 1667" d="M6907.952,2045.594c-.7.181-2.871,2.373-2.649,2.832s3.739-2.536,3.715-2.717S6907.952,2045.594,6907.952,2045.594Z" transform="translate(-702.849 -673.052)" fill="#821e1d"/>
      <path id="Path_1668" data-name="Path 1668" d="M7028.706,2098.532h0a.072.072,0,0,1-.067-.076l-.219-6.858.468.007-.116,6.85A.074.074,0,0,1,7028.706,2098.532Z" transform="translate(-820.098 -716.868)" fill="#ffa8c2"/>
      <path id="Path_1669" data-name="Path 1669" d="M7007.071,2088.847a.368.368,0,0,1-.307.539,2.289,2.289,0,0,1-.931-.136c-.181-.066-.511-.208-.573-.214s.086-.215.643-.216S7007.071,2088.847,7007.071,2088.847Z" transform="translate(-798.033 -714.223)" fill="#fa96b5"/>
      <path id="Path_1670" data-name="Path 1670" d="M6986.96,1916.669c.234-.431,1.651-1.737,2.144-1.478s.05,1.848-.443,3.24a22.89,22.89,0,0,0-.7,4.213c-.062.37-.086.579-.936.764s-2.724.431-3.105.173S6986.96,1916.669,6986.96,1916.669Z" transform="translate(-777.693 -548.86)" fill="#ff6692"/>
      <path id="Path_1671" data-name="Path 1671" d="M6982.705,1990.391c1.589-.086,3.536-.862,3.671-1.663s-.114-3.035-.706-3.343S6982.705,1990.391,6982.705,1990.391Z" transform="translate(-776.568 -615.719)" fill="#e6e6e6" style="mix-blend-mode: multiply;isolation: isolate"/>
      <path id="Path_1672" data-name="Path 1672" d="M6909.619,2023.733a.324.324,0,0,1-.033.148c-.461.988-5.4,2.8-5.4,2.8s.27.218.739.616a9.979,9.979,0,0,1,1.478,2.137c.234.458,1.121,1.271,1.072,1.432a2.491,2.491,0,0,1-1.257.547,13.671,13.671,0,0,0-1.922-2.112c-1.355-1.268-1.713-2.342-1.54-3.006s2.291-2.1,3.2-2.668a10.686,10.686,0,0,0,1.441-1.134c.3-.372,1.834.173,2.159.976A.826.826,0,0,1,6909.619,2023.733Z" transform="translate(-700.402 -650.949)" fill="#962221"/>
      <path id="Path_1673" data-name="Path 1673" d="M6942.047,2022.072a.065.065,0,0,1-.034-.009.194.194,0,0,1-.047-.028.916.916,0,0,1-.243-.27,1.513,1.513,0,0,0,.135-.078s.036.008.083.021a.825.825,0,0,1,.115.261.207.207,0,0,1,.006.031C6942.068,2022.042,6942.064,2022.07,6942.047,2022.072Z" transform="translate(-737.544 -650.299)" fill="#e6e6e6" style="mix-blend-mode: multiply;isolation: isolate"/>
      <path id="Path_1674" data-name="Path 1674" d="M6944.459,1919.3c-.78.181-1.52.567-1.47,1.38a2.916,2.916,0,0,0,1.38,2.267c.854.5.378.271.156.312a7.784,7.784,0,0,0-1.665.978c.037.074.252.259.277.326a7.964,7.964,0,0,0,2.083-.881C6945.231,1923.52,6944.459,1919.3,6944.459,1919.3Z" transform="translate(-738.626 -552.802)" fill="#a87e71"/>
      <path id="Path_1675" data-name="Path 1675" d="M6935,2011.148a.316.316,0,0,0-.093.075,2.883,2.883,0,0,0-.352.5,6.014,6.014,0,0,1-1.436.079h0c-.112,0-.184-.015-.184-.03,0-.064.441-.144.663-.287a.435.435,0,0,0,.04-.028l.05-.038c.013-.011.028-.022.043-.032a7.144,7.144,0,0,1,1.145-.736c.034-.016.067-.03.1-.042C6934.976,2010.612,6935.137,2011.086,6935,2011.148Z" transform="translate(-729.178 -639.753)" fill="#fcd9bb"/>
      <path id="Path_1676" data-name="Path 1676" d="M6973.2,2011.148a.329.329,0,0,0-.093.075,1.128,1.128,0,0,1-.03-.569c.033-.016.066-.03.1-.042C6973.171,2010.612,6973.331,2011.086,6973.2,2011.148Z" transform="translate(-767.372 -639.753)" fill="#e6e6e6" style="mix-blend-mode: multiply;isolation: isolate"/>
      <path id="Path_1677" data-name="Path 1677" d="M7007.134,2045.165a.323.323,0,0,1-.033.148,3.155,3.155,0,0,1-1.976-.385,18.28,18.28,0,0,1,1.949-.031A.813.813,0,0,1,7007.134,2045.165Z" transform="translate(-797.916 -672.381)" fill="#e6e6e6" style="mix-blend-mode: multiply;isolation: isolate"/>
      <path id="Path_1678" data-name="Path 1678" d="M6957.1,1915.1c-.649.219-1.068.583-.944,1.314a19.141,19.141,0,0,0,1.338,3.261c.263.5-.191,1.055-.158,1.211a9.876,9.876,0,0,0,3.123.407,10.319,10.319,0,0,0,.115-3.006c-.222-.517-.936-3.236-1.363-3.326A4.326,4.326,0,0,0,6957.1,1915.1Z" transform="translate(-751.264 -548.607)" fill="#c29284"/>
      <path id="Path_1679" data-name="Path 1679" d="M6976.6,1916.466a.318.318,0,0,1,.214-.057c.968.076,2.007,1.589,2.173,3.176.172,1.643,0,1.684-.4,1.823a13.054,13.054,0,0,1-2.571-.041c-.69-.033-1.392.115-1.423.078s-.142-.427-.024-.536a3.722,3.722,0,0,1,1.809-.446c.961-.025,1.61-.017,1.61-.017a2.154,2.154,0,0,0-.559-1.191,3.455,3.455,0,0,1-1.092-1.963A.855.855,0,0,1,6976.6,1916.466Z" transform="translate(-768.771 -550.05)" fill="#d19e8d"/>
      <path id="Path_1680" data-name="Path 1680" d="M7002.659,2235.075a10.371,10.371,0,0,1-1.315-.029c-.1,0-.2.011-.3.022-.9.094-1.908.135-1.855-.06.025-.1.273-.188.6-.257a5.425,5.425,0,0,1,1.1-.114A4.721,4.721,0,0,1,7002.659,2235.075Z" transform="translate(-792.259 -853.072)" fill="#fa96b5"/>
      <path id="Path_1681" data-name="Path 1681" d="M6803.517,2043.55l-2.629,9.8c-.009.034-.033.055-.058.053h0c-.038,0-.062-.06-.049-.111l2.437-9.82Z" transform="translate(-603.333 -671.045)" fill="#80634b"/>
      <path id="Path_1682" data-name="Path 1682" d="M7044.629,2043.154l2.63,9.8c.009.034.032.056.058.053h0c.037,0,.063-.06.05-.111l-2.437-9.82Z" transform="translate(-835.533 -670.668)" fill="#80634b"/>
      <rect id="Rectangle_155" data-name="Rectangle 155" width="4.296" height="0.253" rx="0.126" transform="translate(6201.554 1371.974)" fill="#303052"/>
      <path id="Path_1683" data-name="Path 1683" d="M6870.692,2023.789h1.1a.006.006,0,0,0,0,0l.459-.75s0-.011-.006-.011h-1.1a.006.006,0,0,0,0,0l-.458.75A.007.007,0,0,0,6870.692,2023.789Z" transform="translate(-669.902 -651.572)" fill="#424270"/>
      <path id="Rectangle_156" data-name="Rectangle 156" d="M.09,0H13.2a.09.09,0,0,1,.09.09v0a.364.364,0,0,1-.364.364H.364A.364.364,0,0,1,0,.09v0A.09.09,0,0,1,.09,0Z" transform="translate(6198.037 1372.185)" fill="#5c4634"/>
      <path id="Path_1684" data-name="Path 1684" d="M6872.261,2010.108h-1.1a.006.006,0,0,1,0,0l-.458-.647a.007.007,0,0,1,.005-.011h1.1a.006.006,0,0,1,0,0l.457.648A.007.007,0,0,1,6872.261,2010.108Z" transform="translate(-669.918 -638.643)" fill="#303052"/>
      <path id="Path_1685" data-name="Path 1685" d="M6825.424,1950.151h-4.886a.153.153,0,0,1-.148-.115l-.718-2.8a.155.155,0,0,1,.149-.193h4.886a.155.155,0,0,1,.149.116l.717,2.8A.154.154,0,0,1,6825.424,1950.151Z" transform="translate(-621.321 -579.224)" fill="#424270"/>
      <path id="Path_1686" data-name="Path 1686" d="M6823.04,1950.151h-2.5a.153.153,0,0,1-.148-.115l-.718-2.8a.155.155,0,0,1,.149-.193h1.095Z" transform="translate(-621.321 -579.224)" fill="#fff" opacity="0.3" style="mix-blend-mode: soft-light;isolation: isolate"/>
      <path id="Path_1687" data-name="Path 1687" d="M6967.972,2223.256a.075.075,0,0,1-.007.012,5.349,5.349,0,0,1-.812.8,1.564,1.564,0,0,1-.214.267,6.371,6.371,0,0,1-1.373.1c.146-.135,1.148-.214,1.295-.5a1.1,1.1,0,0,1,.34-.38,1.5,1.5,0,0,1,.441-.222A1.78,1.78,0,0,1,6967.972,2223.256Z" transform="translate(-760.247 -842.235)" fill="#e6e6e6" style="mix-blend-mode: multiply;isolation: isolate"/>
      <path id="Path_1688" data-name="Path 1688" d="M7001.344,2237.329c-.1,0-.2.011-.3.022-.9.094-1.908.135-1.855-.06.025-.1.273-.188.6-.257A5.87,5.87,0,0,1,7001.344,2237.329Z" transform="translate(-792.259 -855.354)" fill="#e6e6e6" style="mix-blend-mode: multiply;isolation: isolate"/>
      <path id="Path_1689" data-name="Path 1689" d="M6462.663,1763.753a2.537,2.537,0,0,1-.1,1.922,1.235,1.235,0,0,1-1.08-.172c-.183-.194.111-1.412.293-1.562A2.471,2.471,0,0,1,6462.663,1763.753Z" transform="translate(-280.199 -404.69)" fill="#f4b798"/>
      <path id="Path_1690" data-name="Path 1690" d="M6436.383,1790.522c-.244.3-.875,1.013-.82,1.146a3.426,3.426,0,0,0,1.334.249,3.789,3.789,0,0,1,.1-.969C6437.108,1790.583,6436.383,1790.522,6436.383,1790.522Z" transform="translate(-255.569 -430.18)" fill="#f4b798"/>
      <path id="Path_1691" data-name="Path 1691" d="M6435.965,1748.606a.979.979,0,0,1-.81.3c-.494-.062-1.055-1.316-1-1.392a12.6,12.6,0,0,1,2.675-.875,2.084,2.084,0,0,1-.258,1.141c-.245.43-.3.425-.3.425s-.059-.276-.233-.286C6435.779,1747.9,6435.612,1748.447,6435.965,1748.606Z" transform="translate(-254.224 -388.38)" fill="#561304"/>
      <path id="Path_1692" data-name="Path 1692" d="M6436.722,1736.98c-.054-.383-1-.563-1.2-.481-.363.146-1.6,1.177-1.476,1.356a1.361,1.361,0,0,0,1.334.26A5.118,5.118,0,0,0,6436.722,1736.98Z" transform="translate(-254.12 -378.72)" fill="#662820"/>
      <path id="Path_1693" data-name="Path 1693" d="M6542.044,1822.2c-.018.06.333.6.154.785a8.159,8.159,0,0,1-1.028.711,1.679,1.679,0,0,1-.3.158c-.127.028-.6-.4-.6-.4.05-.088.1-.174.163-.258a4.622,4.622,0,0,1,2.208-1.708C6542.674,1821.6,6542.06,1822.139,6542.044,1822.2Z" transform="translate(-355.277 -459.659)" fill="#f4b798"/>
      <path id="Path_1694" data-name="Path 1694" d="M6421.708,2226.158a1.121,1.121,0,0,1-.238.019c-.111,0-.246,0-.382,0a2.1,2.1,0,0,1-.576-.062.115.115,0,0,1-.047-.083,2.589,2.589,0,0,1,.274-1.183s.91-.017.994.213a.072.072,0,0,1,.006.025A7.756,7.756,0,0,1,6421.708,2226.158Z" transform="translate(-241.187 -843.75)" fill="#3d1006"/>
      <path id="Path_1695" data-name="Path 1695" d="M6421.64,2244.726a.066.066,0,0,1-.028.012,3.186,3.186,0,0,1-.348.016c-.29,0-.649-.032-.628-.174.028-.211.367-.26.659-.251a1.092,1.092,0,0,1,.434.073C6421.783,2244.463,6421.719,2244.672,6421.64,2244.726Z" transform="translate(-241.357 -862.3)" fill="#661f18"/>
      <path id="Path_1696" data-name="Path 1696" d="M6434.19,2229.787a1.1,1.1,0,0,1-.238.019.063.063,0,0,1-.028.012,3.228,3.228,0,0,1-.348.016.173.173,0,0,1-.006-.029,1.1,1.1,0,0,1,.036-.4,1.381,1.381,0,0,1,.408-.75.524.524,0,0,1,.2.029s0,0,0,0a.073.073,0,0,1,.006.025A7.758,7.758,0,0,1,6434.19,2229.787Z" transform="translate(-253.669 -847.379)" fill="#e6e6e6" style="mix-blend-mode: multiply;isolation: isolate"/>
      <path id="Path_1697" data-name="Path 1697" d="M6442.181,2224.245c-.021.1-.214.149-.464.173a5.728,5.728,0,0,1-.856,0h-.006c-.1-.007-.2-.014-.27-.022-.344-.04-1.111.065-1.471.055a.413.413,0,0,1-.174-.028c-.048-.029-.068-.1-.062-.207a2.217,2.217,0,0,1,.316-.921,4.62,4.62,0,0,1,.672-.336c.083,0,.274.445.52.536S6442.234,2224,6442.181,2224.245Z" transform="translate(-258.728 -841.955)" fill="#471208"/>
      <path id="Path_1698" data-name="Path 1698" d="M6440.722,2245.082h0c-.035,0-.08.005-.445-.007-.334-.012-.994.128-1.321.078-.092-.013-.158-.041-.184-.092a.249.249,0,0,1-.028-.183c.073-.273.779-.229,1.022-.2a1.682,1.682,0,0,1,.372.117A4.092,4.092,0,0,1,6440.722,2245.082Z" transform="translate(-258.589 -862.614)" fill="#75241b"/>
      <path id="Path_1699" data-name="Path 1699" d="M6389.659,1991.178a.578.578,0,0,1-.278.016,1.761,1.761,0,0,1-.708-.157,4.889,4.889,0,0,1-.343-1.726,21.126,21.126,0,0,0-.731-2.871,31.383,31.383,0,0,1-.521-6.211,4.678,4.678,0,0,1,.056-.541c0-.032.011-.061.017-.09l.143-.045,1.236-.394s0,.012,0,.035c.01.094.038.379.079.8C6388.873,1982.708,6389.687,1991.127,6389.659,1991.178Z" transform="translate(-209.388 -609.803)" fill="#523b38"/>
      <path id="Path_1700" data-name="Path 1700" d="M6411.571,1973.074a7.012,7.012,0,0,1-1.512.392c-.01,0-.02-.032-.029-.08-.072-.383-.145-2.012-.2-2.322s-.886-6.26-1.051-8.772c-.018-.257-.028-.479-.029-.654,0,0,.179-.105.435-.253a13.425,13.425,0,0,1,1.793-.926h0a.042.042,0,0,1,.029,0,2.635,2.635,0,0,1,.087.694c.1,1.438.183,4.693.2,5.619C6411.306,1967.968,6411.6,1973,6411.571,1973.074Z" transform="translate(-230.038 -591.995)" fill="#6b4f4b"/>
      <path id="Path_1701" data-name="Path 1701" d="M6373.69,1814.047a6.832,6.832,0,0,0-2.026,4.319,11.432,11.432,0,0,0,.7,3.544C6372.583,1822.088,6373.69,1814.047,6373.69,1814.047Z" transform="translate(-194.727 -452.581)" fill="#a62524"/>
      <path id="Path_1702" data-name="Path 1702" d="M6390.781,1961.169c-.236.185-.358.319-.779.613a2.456,2.456,0,0,1-1.055.417c-.155.039-.319.074-.483.108a6.694,6.694,0,0,1-1.049.129,4.678,4.678,0,0,1,.056-.541l.159-.135c.323-.273.675-.56.871-.7a4.51,4.51,0,0,1,2.161-.589h.031A2.607,2.607,0,0,1,6390.781,1961.169Z" transform="translate(-209.725 -592.01)" fill="#e6e6e6" style="mix-blend-mode: multiply;isolation: isolate"/>
      <path id="Path_1703" data-name="Path 1703" d="M6382.68,1810.964c-.85.522-.864,3.09-.864,4.076a7.561,7.561,0,0,1-.543,2.326c-.155.554-.266,2.315-.044,2.381a5.53,5.53,0,0,0,2.525-.731,9.246,9.246,0,0,0,1.042-.753,7.118,7.118,0,0,1,.088-2.093c.254-1.108.675-2.57.675-2.57s.565,2.824,1.64,3.013,2.36-2.735,2.348-2.924c-.005-.083-.675-.676-.831-.565s-1.2,1.849-1.241,1.75-.133-2.248-1.285-3.09S6383.312,1810.576,6382.68,1810.964Z" transform="translate(-203.715 -449.498)" fill="#ba2928"/>
      <path id="Path_1704" data-name="Path 1704" d="M6445.946,2247.8a5.761,5.761,0,0,1-.856,0h-.005c-.035,0-.08.005-.445-.007-.333-.012-.994.128-1.321.079a.194.194,0,0,1,.025-.04,1.847,1.847,0,0,1,1.158-.315c.053,0,.106,0,.161,0A2.277,2.277,0,0,1,6445.946,2247.8Z" transform="translate(-262.957 -865.34)" fill="#e6e6e6" style="mix-blend-mode: multiply;isolation: isolate"/>
    </g>
  </g>
</svg>
