<svg xmlns="http://www.w3.org/2000/svg" width="218.5" height="191.323" viewBox="0 0 218.5 191.323">
  <g id="Group_6524" data-name="Group 6524" transform="translate(0)" opacity="0.79">
    <path id="fc914514-1042-4f3e-9382-2a2bd3a05a2f" d="M278.171,131.32a.82.82,0,0,0-.819.819v27.92a.82.82,0,0,0,.819.819h95.2a.819.819,0,0,0,.819-.819v-27.92a.819.819,0,0,0-.819-.819Z" transform="translate(-264.955 -131.32)" fill="#e6e6e6"/>
    <path id="fc60a940-5b5f-47e1-886f-8b9349204f05" d="M284.185,163.608h92.738V138.153H284.185Z" transform="translate(-269.737 -136.102)" fill="#fff"/>
    <path id="b37dca77-34e7-4938-924b-74ea49a8e34b" d="M550.97,205.36a1.356,1.356,0,1,0,0,2.712h5.424a1.356,1.356,0,1,0,0-2.712Z" transform="translate(-455.489 -183.135)" fill="#020413"/>
    <rect id="a114a1b8-363a-4115-bcea-0275bda15cb1" width="62.614" height="0.357" transform="translate(39.647 19.595)" fill="#e6e6e6"/>
    <circle id="fd059875-cd6f-429e-81eb-c199f1a3d666" cx="7.898" cy="7.898" r="7.898" transform="translate(18.66 6.881)" fill="#e6e6e6"/>
    <path id="ad693766-5e26-437f-8d3d-58ce33ee9e84" d="M368,174.591l-.2-.3,6.506-4.338,4.462,2.142,6.418-4.1.087.037,12.68,5.409,10.166-4.994,9.872,4,12.4,2.522.237.267-12.57-2.375-9.929-4.026-10.17,5L385.222,168.4l-6.426,4.106-4.458-2.14Z" transform="translate(-328.255 -156.988)" fill="#3f3d56"/>
    <path id="ff424c2d-4733-4249-9b35-4eb43ebe2556" d="M369.29,205.983a1.16,1.16,0,1,0,0,2.319h12.13a1.16,1.16,0,0,0,.037-2.319H369.29Z" transform="translate(-328.483 -183.57)" fill="#e6e6e6"/>
    <path id="Path_1733" data-name="Path 1733" d="M319.974,172.173a.474.474,0,0,0-.67,0h0l-2.034,2.033v-5.014a.474.474,0,0,0-.947,0v5.014l-2.033-2.033a.474.474,0,1,0-.672.668l0,0,2.842,2.842a.474.474,0,0,0,.67,0l2.842-2.842A.474.474,0,0,0,319.974,172.173Z" transform="translate(-290.239 -157.492)" fill="#fff"/>
    <path id="ebf544e0-cedc-491d-9ace-ce79788cc3b4" d="M402.946,280.283a.82.82,0,0,0-.819.819v27.92a.82.82,0,0,0,.819.819h95.2a.819.819,0,0,0,.819-.819V281.1a.819.819,0,0,0-.819-.819Z" transform="translate(-352.275 -235.567)" fill="#e6e6e6"/>
    <path id="f05ecdaf-6a8f-49c4-b8a7-f7e5ce9efcf7" d="M408.961,312.571H501.7V287.116H408.961Z" transform="translate(-357.058 -240.349)" fill="#fff"/>
    <path id="a9f7bc9d-00a6-4157-bba1-ffc7ec111a68" d="M675.746,354.325a1.356,1.356,0,0,0,0,2.712h5.423a1.356,1.356,0,0,0,0-2.712Z" transform="translate(-542.81 -287.383)" fill="#020413"/>
    <rect id="a15d3d52-efbb-4636-8d15-228635c5d6e5" width="62.614" height="0.357" transform="translate(77.102 64.311)" fill="#e6e6e6"/>
    <circle id="e4ee77d8-efe6-4a2a-a3ed-71b8f3ee957e" cx="7.898" cy="7.898" r="7.898" transform="translate(56.116 51.597)" fill="#020413"/>
    <path id="fc1c89ac-2b6e-4831-b128-0ac2ab1fa850" d="M492.774,308.325l-.2-.3,6.506-4.338,4.462,2.142,6.418-4.1.087.037,12.679,5.409,10.167-4.994,9.872,4,12.4-10.987.237.267L542.837,306.6l-9.929-4.025-10.17,5L510,302.133l-6.426,4.106-4.456-2.139Z" transform="translate(-415.573 -246.006)" fill="#3f3d56"/>
    <path id="bd690ac4-3df0-4871-95d5-adaa934b7c24" d="M494.022,354.946a1.16,1.16,0,1,0-.038,2.319h12.168a1.16,1.16,0,1,0,0-2.319Z" transform="translate(-415.76 -287.817)" fill="#e6e6e6"/>
    <path id="Path_1734" data-name="Path 1734" d="M438.4,321.333a.474.474,0,0,0,.67,0h0L441.1,319.3v5.014a.474.474,0,0,0,.947,0V319.3l2.033,2.033a.474.474,0,1,0,.67-.67l-2.842-2.842a.474.474,0,0,0-.67,0l-2.842,2.842a.474.474,0,0,0,0,.67Z" transform="translate(-377.561 -261.74)" fill="#fff"/>
    <path id="b1a491a7-739b-4f1f-bff8-dbf70f6892c8" d="M236.872,429.247a.819.819,0,0,0-.819.819v27.92a.82.82,0,0,0,.819.819h95.2a.82.82,0,0,0,.819-.819v-27.92a.819.819,0,0,0-.819-.819Z" transform="translate(-236.053 -339.815)" fill="#e6e6e6"/>
    <path id="acd48b1a-d10a-4276-b388-f016adebff0c" d="M242.887,461.535h92.739V436.08H242.887Z" transform="translate(-240.836 -344.597)" fill="#fff"/>
    <path id="bed21912-b6c9-41df-a59b-963435bac71a" d="M509.671,503.288a1.356,1.356,0,1,0,0,2.712h5.424a1.356,1.356,0,1,0,0-2.712Z" transform="translate(-426.587 -391.63)" fill="#020413"/>
    <rect id="a26455fb-834b-4368-afb2-80d86a75d46a" width="62.614" height="0.357" transform="translate(27.25 109.027)" fill="#e6e6e6"/>
    <circle id="f17c58cd-37a1-42e1-9e5f-26c2ec8825b4" cx="7.898" cy="7.898" r="7.898" transform="translate(6.263 96.313)" fill="#020413"/>
    <path id="b803193f-4714-40c6-8606-08b9dea6d22d" d="M326.7,471.284l-.2-.3,6.506-4.338,4.462,2.142,6.418-4.1,12.766,5.446,10.166-4.994,9.871,4,12.4-4.983.237.267-12.569,5.13-9.929-4.025-10.17,5-12.743-5.436L337.5,469.2l-4.458-2.14Z" transform="translate(-299.351 -364.249)" fill="#3f3d56"/>
    <path id="b19b31b4-3a52-4fc9-8ed4-dc6729deb0ed" d="M327.991,503.909a1.16,1.16,0,1,0,0,2.319h12.13a1.16,1.16,0,0,0,.038-2.319H327.991Z" transform="translate(-299.582 -392.065)" fill="#e6e6e6"/>
    <path id="Path_1735" data-name="Path 1735" d="M272.324,470.3a.474.474,0,0,0,.67,0h0l2.033-2.033v5.014a.474.474,0,1,0,.947,0v-5.017l2.033,2.033a.474.474,0,1,0,.672-.668l0,0-2.842-2.842a.474.474,0,0,0-.67,0l-2.842,2.842a.474.474,0,0,0,0,.67Z" transform="translate(-261.339 -365.987)" fill="#fff"/>
    <path id="Path_1736" data-name="Path 1736" d="M634.694,580.857h-4.571l-2.175-17.632h6.747Z" transform="translate(-439.45 -394.156)" fill="#ffb7b7"/>
    <path id="Path_1737" data-name="Path 1737" d="M856,754.234h-14.74v-.186a5.737,5.737,0,0,1,5.737-5.737h9Z" transform="translate(-659.586 -563.102)" fill="#2f2e41"/>
    <path id="Path_1738" data-name="Path 1738" d="M578.8,580.857h-4.571l-2.175-17.632H578.8Z" transform="translate(-400.333 -394.156)" fill="#ffb7b7"/>
    <path id="Path_1739" data-name="Path 1739" d="M800.1,754.234H785.36v-.186a5.737,5.737,0,0,1,5.737-5.737h9Z" transform="translate(-620.469 -563.102)" fill="#2f2e41"/>
    <path id="Path_1740" data-name="Path 1740" d="M788.456,526.421a3.5,3.5,0,0,0,.066-5.361l2.485-7.594-4.246-2.635L783.4,521.6a3.515,3.515,0,0,0,5.053,4.817Z" transform="translate(-618.608 -396.909)" fill="#ffb7b7"/>
    <path id="Path_1741" data-name="Path 1741" d="M807.142,538.922s-4.267,23.1-4.214,27.579c.064,5.41,2.471,28.6,2.471,28.6l6.129-1.532,1.159-26.874,4.847-17.152,1.864,22,1.871,23.141h7.11l1.592-58.056-23.214-.766Z" transform="translate(-632.763 -414.423)" fill="#2f2e41"/>
    <path id="Path_1742" data-name="Path 1742" d="M841.351,391.025l-12.258.383-7.661,47.5s16.28,7.469,23.174,2.107S841.351,391.025,841.351,391.025Z" transform="translate(-645.713 -313.067)" fill="#cbcbcb"/>
    <path id="Path_1743" data-name="Path 1743" d="M813.4,394.479l-10.342,59.372-6.512-1.915,4.6-21.451,2.3-21.451-.383-21.451,8.044-3.447,2.3-2.681S818,387.2,813.4,394.479Z" transform="translate(-628.299 -306.369)" fill="#2f2e41"/>
    <path id="Path_1744" data-name="Path 1744" d="M870.421,393.029l.766,62.354,15.705-2.681-1.149-57.84,1.532-8.044-7.661-3.447-3.1-1.915S869.655,383.536,870.421,393.029Z" transform="translate(-679.954 -306.369)" fill="#2f2e41"/>
    <path id="Path_1745" data-name="Path 1745" d="M564.2,271.7l-3.447-1.149-4.98,22.217-4.214,17.62,6.129,1.149,5.746-19.152Z" transform="translate(-385.995 -189.337)" fill="#2f2e41"/>
    <path id="Path_1746" data-name="Path 1746" d="M938.824,538.842a3.5,3.5,0,0,1-.066-5.361l-2.485-7.594,4.246-2.635,3.358,10.773a3.515,3.515,0,0,1-5.054,4.817Z" transform="translate(-726.081 -405.602)" fill="#ffb7b7"/>
    <path id="Path_1747" data-name="Path 1747" d="M679.625,269.217l3.447-1.149,4.98,22.217,4.586,22.095-6.9,1.015L680.391,289.9Z" transform="translate(-475.615 -187.599)" fill="#2f2e41"/>
    <circle id="Ellipse_265" data-name="Ellipse 265" cx="8.514" cy="8.514" r="8.514" transform="translate(178.795 61.095) rotate(-28.663)" fill="#ffb7b7"/>
    <path id="Path_1748" data-name="Path 1748" d="M779.209,767.28H710.167a.3.3,0,1,1,0-.6h69.042a.3.3,0,1,1,0,.6Z" transform="translate(-567.638 -575.957)" fill="#cbcbcb"/>
    <path id="Path_1749" data-name="Path 1749" d="M845.045,307.863c8.139-2.347,10.449,4.4,10.449,4.4,3.923,2.6,1.467,5.866,1.467,5.866.99.22-.989,6.013-1.649,5.866-.352-.078-1.258,1-2.026,2.028a4.067,4.067,0,0,0-.785.075l1.49-5.513s-5.023-.77-6.563-3.189c-1.473-2.315-6.324-3.046-7.7-1.5a3.49,3.49,0,0,0-.492-1.25,2.5,2.5,0,0,0-.724-.726C839.729,308.733,845.045,307.863,845.045,307.863Z" transform="translate(-657.664 -254.521)" fill="#2f2e41"/>
  </g>
</svg>
