<svg id="Group_6489" data-name="Group 6489" xmlns="http://www.w3.org/2000/svg" width="51" height="48" viewBox="0 0 51 48">
  <g id="Ellipse_241" data-name="Ellipse 241" fill="#fff" stroke="#161837" stroke-width="2">
    <ellipse cx="25.5" cy="24" rx="25.5" ry="24" stroke="none"/>
    <ellipse cx="25.5" cy="24" rx="24.5" ry="23" fill="none"/>
  </g>
  <g id="Group_5" data-name="Group 5" transform="translate(-31.51 -32.082)">
    <g id="Group_2" data-name="Group 2" transform="translate(38.745 37.423)">
      <g id="Group_1" data-name="Group 1" transform="translate(0 0)">
        <path id="Path_1" data-name="Path 1" d="M87.886,76.861a18.02,18.02,0,0,0-.436-2.987A18.449,18.449,0,0,0,86.527,71a18.748,18.748,0,0,0-1.384-2.671l-1.721,1.053a16.722,16.722,0,0,1,1.166,2.4,16.309,16.309,0,0,1,.75,2.552,15.848,15.848,0,0,1,.316,2.637c.02.442.014.886-.007,1.328l-.013.332-.03.33-.03.33c-.005.055-.009.11-.016.165l-.023.164a15.269,15.269,0,0,1-.55,2.585,15.874,15.874,0,0,1-.964,2.453,16.409,16.409,0,0,1-1.361,2.252,15.331,15.331,0,0,1-1.706,2,15.709,15.709,0,0,1-16.874,3.482c-.374-.148-.742-.313-1.1-.49l1.05-1.818H56.766L60.4,96.374l1.009-1.747c.513.245,1.037.468,1.571.664a18.838,18.838,0,0,0,2.981.822,18.841,18.841,0,0,0,9.134-.56,19.031,19.031,0,0,0,2.833-1.178l.339-.179c.113-.059.227-.119.335-.185.22-.13.441-.259.659-.391l.64-.421c.211-.143.414-.3.621-.447a19.01,19.01,0,0,0,2.288-2.023,17.9,17.9,0,0,0,1.92-2.367,18.887,18.887,0,0,0,1.506-2.644,18.253,18.253,0,0,0,1.039-2.855,17.584,17.584,0,0,0,.555-2.98l.021-.188c.006-.063.009-.126.013-.189l.024-.378.024-.378.006-.378C87.928,77.868,87.921,77.364,87.886,76.861Z" transform="translate(-51.393 -59.117)" fill="#1c2035"/>
        <path id="Path_2" data-name="Path 2" d="M40.954,55.3c0-.055.01-.11.014-.165L41,54.8l.03-.329.047-.327.046-.327.024-.163.032-.162c.043-.216.082-.432.127-.648l.158-.64c.024-.107.059-.212.09-.317l.095-.315a16.487,16.487,0,0,1,.985-2.438,16.241,16.241,0,0,1,3.09-4.216,16.425,16.425,0,0,1,2.014-1.665,15.119,15.119,0,0,1,2.25-1.313,16.287,16.287,0,0,1,2.428-.921l.627-.168.634-.137c.053-.011.106-.024.159-.033l.16-.026.32-.052c.107-.016.213-.037.32-.05l.322-.035c.428-.057.861-.075,1.292-.1l.648-.007c.108,0,.216,0,.324.006l.324.01a16.293,16.293,0,0,1,2.558.339,15.873,15.873,0,0,1,2.459.753q.5.2.98.434l-1.013,1.756h7.262l-3.631-6.289L65.11,39.236q-.711-.332-1.446-.6a18.953,18.953,0,0,0-2.968-.819,19.262,19.262,0,0,0-3.053-.318l-.383,0c-.128,0-.256,0-.383,0l-.765.029c-.509.04-1.019.077-1.523.157l-.379.053c-.126.019-.251.047-.376.069l-.376.072-.188.036c-.063.013-.124.03-.186.044l-.743.183-.733.218a19.042,19.042,0,0,0-2.823,1.161A17.793,17.793,0,0,0,46.2,41.125a19.033,19.033,0,0,0-2.285,2,18.7,18.7,0,0,0-3.432,4.964,18.81,18.81,0,0,0-1.053,2.83l-.1.364c-.032.122-.068.242-.093.366l-.16.737c-.045.247-.083.5-.125.743l-.03.186L38.9,53.5l-.043.374-.042.374-.024.375L38.767,55c0,.063-.009.125-.011.188l0,.188-.008.751c.009.25.011.5.027.751a18.059,18.059,0,0,0,2.645,8.5l1.651-.984a16.047,16.047,0,0,1-1.854-4.965,16.552,16.552,0,0,1-.286-2.635c-.009-.221,0-.442-.006-.663l.026-.662Z" transform="translate(-38.745 -37.423)" fill="#1c2035"/>
      </g>
    </g>
    <g id="Group_4" data-name="Group 4" transform="translate(45.608 44.68)">
      <g id="Group_3" data-name="Group 3">
        <path id="Path_3" data-name="Path 3" d="M83.14,71.4c-.174-.023-.347-.043-.52-.063a9.585,9.585,0,0,0-1.484-3.57c.109-.137.218-.275.326-.414.294-.378.584-.76.861-1.155l-2.2-2.2c-.394.277-.777.567-1.155.861-.139.107-.277.216-.414.326a9.584,9.584,0,0,0-3.574-1.485q-.03-.259-.062-.519c-.059-.475-.124-.95-.207-1.425h-3.1c-.083.475-.148.95-.207,1.425q-.033.259-.062.519a9.58,9.58,0,0,0-3.575,1.485q-.206-.165-.414-.326c-.378-.294-.759-.584-1.154-.861L64,66.2c.277.394.567.777.861,1.155q.162.208.326.414a9.589,9.589,0,0,0-1.485,3.575c-.173.02-.345.04-.518.062-.475.059-.95.124-1.425.208v3.1c.475.083.95.148,1.425.208.173.022.345.042.518.061a9.584,9.584,0,0,0,1.483,3.572c-.109.137-.219.275-.326.414-.293.379-.582.762-.859,1.157l2.2,2.2c.4-.276.778-.565,1.157-.858.139-.107.277-.216.414-.326a9.587,9.587,0,0,0,3.567,1.482c.02.173.04.346.063.519.06.475.126.95.211,1.425h3.1c.085-.475.151-.95.211-1.425.023-.173.043-.346.063-.519a9.587,9.587,0,0,0,3.567-1.482c.137.109.276.219.415.326.378.293.761.582,1.157.858l2.2-2.2c-.276-.4-.565-.778-.859-1.157-.107-.14-.216-.277-.325-.415a9.582,9.582,0,0,0,1.481-3.566c.173-.02.346-.04.52-.063.475-.06.95-.126,1.425-.211v-3.1C84.09,71.527,83.615,71.46,83.14,71.4Zm-6.915,7.794a6.748,6.748,0,0,1-6.124,0,6.808,6.808,0,0,1-2.969-2.969,6.617,6.617,0,0,1-.4-.97,6.745,6.745,0,0,1,.406-5.16A6.807,6.807,0,0,1,70.1,67.136a6.668,6.668,0,0,1,.977-.406,6.773,6.773,0,0,1,4.185,0,6.627,6.627,0,0,1,.976.406A6.807,6.807,0,0,1,79.191,70.1a6.744,6.744,0,0,1,0,6.13A6.808,6.808,0,0,1,76.226,79.194Z" transform="translate(-61.762 -61.762)" fill="#2e58a4"/>
      </g>
    </g>
  </g>
</svg>
