<svg xmlns="http://www.w3.org/2000/svg" width="65" height="65" viewBox="0 0 65 65">
  <g id="Group_6559" data-name="Group 6559" transform="translate(-622 -608)">
    <g id="Ellipse_241" data-name="Ellipse 241" transform="translate(622 608)" fill="#fff" stroke="#161837" stroke-width="2">
      <circle cx="32.5" cy="32.5" r="32.5" stroke="none"/>
      <circle cx="32.5" cy="32.5" r="31.5" fill="none"/>
    </g>
    <g id="Group_1" data-name="Group 1" transform="translate(374.396 473.059)">
      <path id="Path_1" data-name="Path 1" d="M271.257,170.078a.959.959,0,0,1,1.635-.079l2.423,3.565,3.078-11.971a.935.935,0,0,1,.952-.72.958.958,0,0,1,.916.766l3.547,17.272,2.882-8.407a.959.959,0,0,1,1.7-.224l2.747,4.08h10.112a20.731,20.731,0,0,0,3.4-10.843A13.517,13.517,0,0,0,291.139,150c-4.557,0-8.585,3.025-11.034,6.481-2.449-3.456-6.477-6.481-11.035-6.481a13.519,13.519,0,0,0-13.518,13.517,20.734,20.734,0,0,0,3.4,10.843h9.96Z" fill="#b92d2d"/>
      <path id="Path_2" data-name="Path 2" d="M445.909,713.18l-1.955-2.9-3.4,9.908a.959.959,0,0,1-.907.648l-.061,0a.96.96,0,0,1-.879-.764l-3.418-16.65-2.573,10.007a.959.959,0,0,1-1.722.3l-2.735-4.022-1.861,3.4a.958.958,0,0,1-.841.5H416.3c3.793,5.325,10.135,11.129,19.878,17.334,9.744-6.205,16.085-12.009,19.879-17.334H446.7A.96.96,0,0,1,445.909,713.18Z" transform="translate(-156.075 -537.326)" fill="#b92d2d"/>
    </g>
  </g>
</svg>
