<svg xmlns="http://www.w3.org/2000/svg" width="188.794" height="230.355" viewBox="0 0 188.794 230.355">
  <g id="Group_6" data-name="Group 6" transform="translate(0)">
    <path id="Path_400" data-name="Path 400" d="M231.113,229.5v.856H73.97V0h.856V229.5Z" transform="translate(-42.319)" fill="#3f3d56"/>
    <path id="Path_401" data-name="Path 401" d="M576.186,631.7s-.493,2.511-1.225,6.313c-1.039,5.346-2.547,13.251-3.815,20.34H478.014c6.812-10.969,15.925-22.544,23.175-31.2l.541-.649.691-.817c2.871-3.394,5.382-6.265,7.256-8.38,0-.006.006-.006.012-.006,2.193-2.469,3.52-3.892,3.52-3.892l2.331.679,5.382,1.562,39.61,11.5Z" transform="translate(-435.761 -428.505)" fill="#2f2e41"/>
    <path id="Path_402" data-name="Path 402" d="M610.391,490.8c-.18,8.733-45.4-3.787-52.211-10s-20.115,4.322-26.7.27,11.891-19.435,11.891-19.435a20.593,20.593,0,0,0-3.244-10.3c-3.243-4.865,0-2.161,1.956-4.429s2.525-20.325,2.525-20.325l-4.429-13.474a32.3,32.3,0,0,1,11.117-35.793l10.992-14.082,16.756-1.083,7.569,8.652,15.135,10.269L599.1,413.871s.817,4.869,2.015,12.173c.817,4.989,1.814,11.121,2.845,17.612C607.062,463.2,610.49,486,610.391,490.8Z" transform="translate(-465.534 -284.76)" fill="#3f3d56"/>
    <path id="Path_403" data-name="Path 403" d="M747.6,609.476l-3.877-17.594,9.742-3.617,3.437,18.747a6.031,6.031,0,1,1-9.3,2.464Z" transform="translate(-587.776 -414.118)" fill="#ffb6b6"/>
    <path id="Path_404" data-name="Path 404" d="M660.6,389.292l.289-.042a16.7,16.7,0,0,1,14.676,5.235c4.795,5.214,11.154,13.1,14.995,21.74,6.783,15.264,9.38,22.212,9.819,28.129s-1.15,4.548,1.458,7.627,3.759-1.468,3.627,4.789-2.52,6.137-.022,7.736,4.208.581,3.627,4.789a18.5,18.5,0,0,0,.208,6.827c.109,1.479,3.5,11.046,3.5,11.046s-10.815,2.586-15.264,6.783c0,0-.2-10.695-2.356-11.725s-4.208-.581-3.518-3.309,3.879-3.857.011-3.868-27.111-49.921-27.111-49.921Z" transform="translate(-540.221 -300.163)" fill="#3f3d56"/>
    <circle id="Ellipse_227" data-name="Ellipse 227" cx="17.639" cy="17.639" r="17.639" transform="translate(83.926 72.607) rotate(-80.783)" fill="#ffb6b6"/>
    <path id="Path_405" data-name="Path 405" d="M614.2,279.151c1.209,4.046-1.237,8.674-4.41,5.418-1.389-1.426-1.329-3.2-3.249-3.715a6.507,6.507,0,0,0-4.633.81c-.253.132-1.383-3.173-1.622-3.03-.157-.105.572,3.245.4,3.154a5.6,5.6,0,0,0-4.125-.464,5.5,5.5,0,0,1,2.718,2c-.473.317-.953.635-1.443.917-.922.532-9.329.059-10.389-.047-5.087-.508-2.565,2.734-4.664,7.395l-.159.354-.081.3c.133-1.314-3.932-2.293-3.7-.443a22.272,22.272,0,0,0,1.94,5.391c-6.1-4.167-12.038-8.63-6.978-18.275.649-1.238.1-2.857.816-4.064a3.174,3.174,0,0,1,3.538-1.585,11.7,11.7,0,0,1,17.606-10.7c1.693.993,2.848,4.386,4.658,3.61,3.483-1.493,5.011-.072,5.308,2.368.151,1.24,2.606-.245,3.679.4,1.242.75,1.455,2.321,1.641,3.832a5.6,5.6,0,0,0-3.016,1.255,5.478,5.478,0,0,1,3.3.707.342.342,0,0,1,.054.031C612.048,277.27,611.981,277.824,614.2,279.151Z" transform="translate(-489.475 -226.861)" fill="#2f2e41"/>
    <path id="Path_406" data-name="Path 406" d="M779.244,374.707v4.745H750.78a2.373,2.373,0,1,1-.021-4.745Z" transform="translate(-590.449 -291.94)" fill="#161837"/>
    <path id="Path_407" data-name="Path 407" d="M424.615,455.288a53.072,53.072,0,0,1-5.9-10.889.625.625,0,0,0-1.16,0,53.02,53.02,0,0,1-5.9,10.889.628.628,0,0,0,.724.96l4.927-1.783v30.5h1.649v-30.5l4.929,1.783a.628.628,0,0,0,.724-.96Z" transform="translate(-397.73 -331.586)" fill="#3f3d56"/>
    <path id="Path_408" data-name="Path 408" d="M810.863,403.2v40.517h-1.425v-30.5L804.513,415a.628.628,0,0,1-.727-.958,53.052,53.052,0,0,0,5.9-10.89.642.642,0,0,1,.351-.351.62.62,0,0,1,.809.351C810.85,403.165,810.854,403.183,810.863,403.2Z" transform="translate(-622.068 -307.985)" fill="#3f3d56"/>
    <path id="Path_409" data-name="Path 409" d="M587.137,616.971c-5.707-4.458-8.18-16.514-19.9-19.794-6.836-1.913-12.6.343-22.268,4.124-12.738,4.983-18.351,10.635-25.89,15.67Z" transform="translate(-459.254 -418.82)" fill="#f2f2f2"/>
    <path id="Path_410" data-name="Path 410" d="M751.279,590.4V613.49H699.517c2.122-1.647,4.031-4.411,6.14-7.809a152.947,152.947,0,0,1,10.026-15.2c.021-.03.047-.056.068-.086Z" transform="translate(-562.484 -415.338)" fill="#f2f2f2"/>
    <path id="Path_411" data-name="Path 411" d="M775.708,538.317v19.811H742.217a59.9,59.9,0,0,1,9.26-8.716q1.367-1.046,2.8-2.007a60.666,60.666,0,0,1,9.675-5.259A67.638,67.638,0,0,1,775.708,538.317Z" transform="translate(-586.913 -385.543)" fill="#f2f2f2"/>
    <path id="Path_412" data-name="Path 412" d="M803.959,509.447v24.741A12.369,12.369,0,0,1,792.2,525.63a12.222,12.222,0,0,1-.6-3.812,12.372,12.372,0,0,1,12.36-12.37Z" transform="translate(-615.164 -369.026)" fill="#161837"/>
    <path id="Path_413" data-name="Path 413" d="M430.631,421.173a2.37,2.37,0,0,1-2.362,2.379h-49v-4.745h48.985A2.374,2.374,0,0,1,430.631,421.173Z" transform="translate(-379.267 -317.17)" fill="#161837"/>
    <path id="Path_414" data-name="Path 414" d="M425.709,578.933l8.518-15.876-8.39-6.131-8.408,17.105a6.031,6.031,0,1,0,8.281,4.9Z" transform="translate(-398.957 -396.19)" fill="#ffb6b6"/>
    <path id="Path_415" data-name="Path 415" d="M499.022,401.636l-.267-.119a16.7,16.7,0,0,0-15.546,1.045c-6.032,3.712-14.3,9.569-20.344,16.84-10.681,12.843-18.784,14.895-20.816,20.47s-.13,4.689-3.478,6.942-3.217-2.436-4.793,3.621.755,6.591-2.084,7.45-4.207-.586-4.793,3.621a18.509,18.509,0,0,1-2.058,6.513c-.508,1.394-6.369,9.678-6.369,9.678s9.7,5.431,12.843,10.68c0,0,3.1-10.238,5.457-10.642s4.207.586,4.285-2.227-2.683-4.767,1.042-3.725,31.217-28.7,31.217-28.7Z" transform="translate(-401.697 -306.455)" fill="#3f3d56"/>
    <circle id="Ellipse_228" data-name="Ellipse 228" cx="12.371" cy="12.371" r="12.371" transform="translate(7.87 183.142) rotate(-88.093)" fill="#f2f2f2"/>
  </g>
</svg>
