<svg xmlns="http://www.w3.org/2000/svg" width="30.511" height="31.5" viewBox="0 0 30.511 31.5">
  <path id="Icon_awesome-amazon" data-name="Icon awesome-amazon" d="M18.084,11.44C14.66,11.566,6.166,12.53,6.166,19.7c0,7.7,9.724,8.016,12.9,3.038a32.426,32.426,0,0,0,3.185,3.291l3.994-3.937s-2.271-1.779-2.271-3.712V8.037c0-1.779-1.723-5.787-7.9-5.787S6.609,6.117,6.609,9.584l5.168.478c1.146-3.48,3.811-3.48,3.811-3.48,2.862-.007,2.5,2.1,2.5,4.859Zm0,6.1c0,5.625-5.92,4.781-5.92,1.209,0-3.319,3.551-3.987,5.92-4.064Zm9.563,11.5c-.541.7-4.922,4.711-12.27,4.711S2.4,28.723.682,26.648c-.478-.541.07-.795.387-.584,5.154,3.129,13.2,8.283,26.191,2.13C27.788,27.935,28.2,28.336,27.647,29.039Zm2.8.155a5.86,5.86,0,0,1-1.491,2.18c-.387.316-.668.19-.457-.267s1.357-3.27.893-3.867-2.6-.3-3.375-.225-.914.141-.984-.021c-.162-.4,1.526-1.09,2.637-1.23s2.883-.056,3.234.4C31.163,26.522,30.9,28.069,30.445,29.194Z" transform="translate(-0.494 -2.25)" fill="#161837"/>
</svg>
