<svg xmlns="http://www.w3.org/2000/svg" width="65" height="65" viewBox="0 0 65 65">
  <g id="Group_6556" data-name="Group 6556" transform="translate(-622 -608)">
    <g id="Ellipse_241" data-name="Ellipse 241" transform="translate(622 608)" fill="#fff" stroke="#161837" stroke-width="2">
      <circle cx="32.5" cy="32.5" r="32.5" stroke="none"/>
      <circle cx="32.5" cy="32.5" r="31.5" fill="none"/>
    </g>
    <g id="Group_217" data-name="Group 217" transform="translate(-284.04 179.411)">
      <g id="Group_216" data-name="Group 216" transform="translate(913.105 437.6)">
        <g id="Group_215" data-name="Group 215">
          <g id="Group_213" data-name="Group 213" transform="translate(4.498 23.387)">
            <path id="Path_246" data-name="Path 246" d="M991.043,504.568a3.462,3.462,0,0,0,3.454,3.467h0a3.46,3.46,0,0,0,3.455-3.467V490.553A3.455,3.455,0,0,0,994.5,487.1h0a3.454,3.454,0,0,0-3.454,3.454Z" transform="translate(-958.717 -487.099)" fill="#2f2f2f" stroke="#161837" stroke-width="1"/>
            <path id="Path_247" data-name="Path 247" d="M922.624,504.568a3.463,3.463,0,0,0,3.455,3.467h0a3.463,3.463,0,0,0,3.459-3.467V490.553a3.455,3.455,0,0,0-3.459-3.454h0a3.455,3.455,0,0,0-3.455,3.454Z" transform="translate(-922.624 -487.099)" fill="#2f2f2f" stroke="#161837" stroke-width="1"/>
          </g>
          <path id="Path_248" data-name="Path 248" d="M959.265,478.141a5.847,5.847,0,0,0-4.907-3.185H919.845a5.853,5.853,0,0,0-4.907,3.185l-.417.935a18.284,18.284,0,0,0-1.416,6.151,31.905,31.905,0,0,0,.71,5.994,4.393,4.393,0,0,0,4.2,3.033h38.172a4.4,4.4,0,0,0,4.2-3.033,31.531,31.531,0,0,0,.714-5.994,18.284,18.284,0,0,0-1.417-6.151Z" transform="translate(-913.105 -457.306)" fill="#ed6c30" stroke="#161837" stroke-width="1"/>
          <g id="Group_214" data-name="Group 214" transform="translate(4.803 25.421)">
            <path id="Path_249" data-name="Path 249" d="M929.91,494.722a3.32,3.32,0,1,1-3.318-3.318A3.319,3.319,0,0,1,929.91,494.722Z" transform="translate(-923.27 -491.404)" fill="#fff" stroke="#161837" stroke-width="1"/>
            <path id="Path_250" data-name="Path 250" d="M991.416,494.722a3.318,3.318,0,1,0,3.322-3.318A3.32,3.32,0,0,0,991.416,494.722Z" transform="translate(-959.219 -491.404)" fill="#fff" stroke="#161837" stroke-width="1"/>
          </g>
          <path id="Path_251" data-name="Path 251" d="M960.3,455.258v-.016l-3.133-12.205a5.6,5.6,0,0,0-3.546-3.727c-.209-.08-4.526-1.709-14.6-1.709-8.7,0-12.811,1.212-13.9,1.6a5.563,5.563,0,0,0-3.924,3.836l-3.138,12.209v.024l-1.015,3.948h44.262Z" transform="translate(-915.188 -437.6)" fill="#ed6c30" stroke="#161837" stroke-width="1"/>
        </g>
        <path id="Path_252" data-name="Path 252" d="M961.966,457.14l-2.062-8.927a2.472,2.472,0,0,0-1.874-1.765h.076s-3.639-1.119-12.421-1.119c-8.626,0-11.952,1.083-12.069,1.119a2.475,2.475,0,0,0-1.9,1.769l-2.054,8.927a1.41,1.41,0,0,0,1.433,1.805h29.429A1.418,1.418,0,0,0,961.966,457.14Z" transform="translate(-921.816 -441.677)" fill="#40c0e7" stroke="#161837" stroke-width="1"/>
      </g>
    </g>
  </g>
</svg>
