<svg xmlns="http://www.w3.org/2000/svg" width="65" height="65" viewBox="0 0 65 65">
  <g id="Group_6558" data-name="Group 6558" transform="translate(-622 -608)">
    <g id="Ellipse_241" data-name="Ellipse 241" transform="translate(622 608)" fill="#fff" stroke="#161837" stroke-width="2">
      <circle cx="32.5" cy="32.5" r="32.5" stroke="none"/>
      <circle cx="32.5" cy="32.5" r="31.5" fill="none"/>
    </g>
    <g id="Group_404" data-name="Group 404" transform="translate(-10.021 145)">
      <circle id="Ellipse_1" data-name="Ellipse 1" cx="24.664" cy="24.664" r="24.664" transform="translate(640.161 470.836)" fill="#63c4c9"/>
      <g id="Group_102" data-name="Group 102" transform="translate(638.042 477.924)">
        <g id="Group_94" data-name="Group 94" transform="translate(7.483 30.42)">
          <path id="Path_187" data-name="Path 187" d="M71.93,244.709H40.82a12.947,12.947,0,0,0,0-10H71.93Z" transform="translate(-39.27 -234.204)" fill="#e6e7e8"/>
          <g id="Group_93" data-name="Group 93">
            <path id="Path_188" data-name="Path 188" d="M69.467,245.238h-.435L39.364,245.2v-1l29.773.036c.766.01,2.36.022,2.81-.424a.267.267,0,0,0,.087-.208l-.006-7.528a.486.486,0,0,0-.141-.375c-.466-.466-1.9-.466-2.852-.466H39.5v-1H69.035c1.248,0,2.8,0,3.561.763a1.477,1.477,0,0,1,.432,1.081l.005,7.526a1.264,1.264,0,0,1-.381.918C72.016,245.15,70.756,245.238,69.467,245.238Z" transform="translate(-39.364 -234.234)" fill="#576877"/>
          </g>
          <path id="Path_189" data-name="Path 189" d="M66.758,238.375v4.371l-1.969-1.4-1.929,1.4s.01-2.187,0-3.71a.641.641,0,0,0-.442-.661Z" transform="translate(-37.871 -233.966)" fill="#f17046"/>
        </g>
        <g id="Group_96" data-name="Group 96" transform="translate(0 25.162)">
          <path id="Path_190" data-name="Path 190" d="M70.509,234.475H34.043a3.185,3.185,0,0,0,0-4.947H70.509Z" transform="translate(-32.225 -229.281)" fill="#e6e7e8"/>
          <g id="Group_95" data-name="Group 95">
            <path id="Path_191" data-name="Path 191" d="M67.62,234.738h-.4l-.111,0-34.776-.018v-.494l34.9.019a14.721,14.721,0,0,0,3.294-.212c.073-.029.1-.061.1-.1l-.006-3.722c0-.081-.05-.136-.165-.184a13.716,13.716,0,0,0-3.341-.231H32.491v-.5H67.116a13.658,13.658,0,0,1,4.172.377c.333.143.509.327.507.535l.006,3.722c0,.172-.157.33-.449.454A12.094,12.094,0,0,1,67.62,234.738Z" transform="translate(-32.336 -229.296)" fill="#f17046"/>
          </g>
        </g>
        <path id="Path_192" data-name="Path 192" d="M37.8,229.387l33.65,4.674v-6.777Z" transform="translate(-31.982 -204.264)" fill="#58595b" opacity="0.2"/>
        <path id="Path_193" data-name="Path 193" d="M73,236.078A1.477,1.477,0,0,0,72.566,235c-.759-.763-2.313-.763-3.561-.763H39.817L72,238.739v-2.683l0,.021,0,2.663,1,.141Z" transform="translate(-31.852 -203.814)" fill="#58595b" opacity="0.3"/>
        <g id="Group_98" data-name="Group 98" transform="translate(5.816 15.837)">
          <path id="Path_194" data-name="Path 194" d="M73.032,229.409H39.373a8.8,8.8,0,0,0,0-8.473H73.032Z" transform="translate(-37.696 -220.512)" fill="#f1f2f2"/>
          <g id="Group_97" data-name="Group 97">
            <path id="Path_195" data-name="Path 195" d="M70.367,229.857H69.9l-32.1-.032v-.846l32.213.031c.828.006,2.55.019,3.039-.36a.207.207,0,0,0,.094-.175l-.006-6.376a.367.367,0,0,0-.152-.316c-.5-.4-2.057-.4-3.085-.4H37.941v-.848H69.9c1.35,0,3.03,0,3.851.645a1.137,1.137,0,0,1,.468.916l.005,6.375a.97.97,0,0,1-.414.776C73.125,229.782,71.762,229.857,70.367,229.857Z" transform="translate(-37.798 -220.538)" fill="#facb6b"/>
          </g>
        </g>
        <g id="Group_101" data-name="Group 101" transform="translate(13.768 0)">
          <path id="Path_196" data-name="Path 196" d="M73.464,230.2c-5.841,2.613-21.3-3.288-23.917-9.129l4.771-12.5,23.916,9.13Z" transform="translate(-44.989 -205.476)" fill="#414e59"/>
          <path id="Path_197" data-name="Path 197" d="M49.547,220.907c1.323,2.956,5.937,5.926,10.929,7.8l16.233-7.176-23.4-10.473Z" transform="translate(-44.989 -205.315)" fill="#414042" opacity="0.4"/>
          <path id="Path_198" data-name="Path 198" d="M87.472,221.892,69.6,206l-23.917-.062-.31-.276-.1.276,18.168,16.207,24.347.021.1-.276Z" transform="translate(-45.267 -205.664)" fill="#2c343c"/>
          <path id="Path_199" data-name="Path 199" d="M87.88,221.892l-24.347-.02L45.365,205.664l24.332.062Z" transform="translate(-45.26 -205.664)" fill="#576877"/>
          <g id="Group_99" data-name="Group 99" transform="translate(21.111 7.898)">
            <path id="Path_200" data-name="Path 200" d="M73.051,233.317l-.958-11.777-7-8.022.5-.436,7.26,8.323.817,12.148Z" transform="translate(-65.094 -213.082)" fill="#f17046"/>
          </g>
          <path id="Path_201" data-name="Path 201" d="M66.223,213.607c-.112.292-.673.348-1.253.126s-.963-.638-.853-.928.673-.344,1.253-.122S66.334,213.317,66.223,213.607Z" transform="translate(-44.047 -205.218)" fill="#fff"/>
          <g id="Group_100" data-name="Group 100" transform="translate(26.567 27.416)">
            <path id="Path_202" data-name="Path 202" d="M73.17,232.472a3.216,3.216,0,0,1-.375.4,4.735,4.735,0,0,1-.951.642,4.622,4.622,0,0,1-1.08.39,3.223,3.223,0,0,1-.546.063,3.175,3.175,0,0,1,.375-.4,4.7,4.7,0,0,1,.95-.642,4.777,4.777,0,0,1,1.08-.388A3.072,3.072,0,0,1,73.17,232.472Z" transform="translate(-70.218 -231.344)" fill="#f17046"/>
            <path id="Path_203" data-name="Path 203" d="M72.99,232.472a3.4,3.4,0,0,1,.384.414,4.993,4.993,0,0,1,.589,1.023,4.91,4.91,0,0,1,.328,1.132,3.617,3.617,0,0,1,.034.563,3.243,3.243,0,0,1-.384-.416,4.884,4.884,0,0,1-.917-2.154A3.444,3.444,0,0,1,72.99,232.472Z" transform="translate(-70.039 -231.344)" fill="#f17046"/>
            <path id="Path_204" data-name="Path 204" d="M73.061,232.472a3.241,3.241,0,0,1,0,.541,4.454,4.454,0,0,1-.793,2.075,3.009,3.009,0,0,1-.358.4,3.264,3.264,0,0,1,0-.538,4.421,4.421,0,0,1,.794-2.077A3.165,3.165,0,0,1,73.061,232.472Z" transform="translate(-70.109 -231.344)" fill="#f17046"/>
            <path id="Path_205" data-name="Path 205" d="M74.112,232.942a1.126,1.126,0,1,1-.652-1.454A1.129,1.129,0,0,1,74.112,232.942Z" transform="translate(-70.107 -231.413)" fill="#fff"/>
          </g>
        </g>
      </g>
    </g>
  </g>
</svg>
