<svg xmlns="http://www.w3.org/2000/svg" width="65" height="65" viewBox="0 0 65 65">
  <g id="Group_6557" data-name="Group 6557" transform="translate(-622 -608)">
    <g id="Ellipse_241" data-name="Ellipse 241" transform="translate(622 608)" fill="#fff" stroke="#161837" stroke-width="2">
      <circle cx="32.5" cy="32.5" r="32.5" stroke="none"/>
      <circle cx="32.5" cy="32.5" r="31.5" fill="none"/>
    </g>
    <g id="Group_84" data-name="Group 84" transform="translate(588.2 575.664)">
      <g id="Group_2" data-name="Group 2" transform="translate(68.666 62.521)">
        <path id="Path_1" data-name="Path 1" d="M385.9,235.319a.144.144,0,0,0,.041-.1c0-.1-.11-.176-.245-.176s-.245.079-.245.176a.148.148,0,0,0,.051.107,1.317,1.317,0,0,0-1.108.736h2.593A1.189,1.189,0,0,0,385.9,235.319Z" transform="translate(-382.252 -234.475)" fill="#769e72"/>
        <g id="Group_1" data-name="Group 1" transform="translate(0.565 1.57)">
          <path id="Path_2" data-name="Path 2" d="M367.23,249.284a1.209,1.209,0,0,0-.556-.489,1.45,1.45,0,0,0-.682-.026l.052.393s.289-.21.394.026-.2.909.641,1.1l.133-.509Z" transform="translate(-365.992 -248.569)" fill="#769e72"/>
          <path id="Path_3" data-name="Path 3" d="M421.177,256.687a.5.5,0,0,0-.283-.006,1.515,1.515,0,0,1,.075.46.39.39,0,0,0,.281-.1.238.238,0,0,0,.026-.238A.175.175,0,0,0,421.177,256.687Z" transform="translate(-416.196 -255.814)" fill="none"/>
          <path id="Path_4" data-name="Path 4" d="M382.533,247.6a.545.545,0,0,0-.3-.339.908.908,0,0,0-.582-.011c-.152-.268-.324-.526-.324-.526h-2.711a3.293,3.293,0,0,0-.4.839,1.97,1.97,0,0,0-.04.867,1.615,1.615,0,0,0,1,.96h1.994a2,2,0,0,0,.66-.972h.023a.752.752,0,0,0,.579-.219A.592.592,0,0,0,382.533,247.6Zm-.374.354a.39.39,0,0,1-.281.1,1.515,1.515,0,0,0-.076-.46.5.5,0,0,1,.283.006.175.175,0,0,1,.1.119A.238.238,0,0,1,382.159,247.957Z" transform="translate(-377.105 -246.727)" fill="#82bb84"/>
        </g>
        <path id="Path_5" data-name="Path 5" d="M359.851,228.381l.015.013.018.016.022.024a.405.405,0,0,1,.053.078.422.422,0,0,1,.039.125.506.506,0,0,1,0,.161.8.8,0,0,1-.052.17,2.3,2.3,0,0,1-.175.316c-.03.049-.058.1-.079.137a.413.413,0,0,0-.023.349.98.98,0,0,0,.076.174c.023.041.038.064.038.064a.444.444,0,0,1-.07-.03.639.639,0,0,1-.171-.129.561.561,0,0,1-.091-.128.492.492,0,0,1-.05-.3c0-.009,0-.018,0-.028l.006-.026c0-.018.01-.035.015-.052a.918.918,0,0,1,.09-.189,3.5,3.5,0,0,1,.209-.282.735.735,0,0,0,.126-.215.4.4,0,0,0,.018-.1.493.493,0,0,0,0-.081l0-.031,0-.023Z" transform="translate(-359.394 -228.381)" fill="#a8c5bd"/>
        <path id="Path_6" data-name="Path 6" d="M367.1,230.831h.014a.2.2,0,0,1,.04.006.212.212,0,0,1,.062.026.209.209,0,0,1,.069.071.256.256,0,0,1,.033.122.383.383,0,0,1-.021.134.56.56,0,0,1-.059.123c-.012.02-.026.038-.039.056l-.033.044a1.966,1.966,0,0,0-.114.166.744.744,0,0,0-.071.154.589.589,0,0,0-.026.124.375.375,0,0,0,0,.051.2.2,0,0,1-.037-.039.385.385,0,0,1-.064-.134.5.5,0,0,1-.005-.227.629.629,0,0,1,.113-.249l.045-.055.036-.039c.023-.025.045-.049.062-.071a.417.417,0,0,0,.042-.063.156.156,0,0,0,.019-.057.161.161,0,0,0-.03-.1.3.3,0,0,0-.022-.029Z" transform="translate(-366.202 -230.622)" fill="#a8c5bd"/>
        <path id="Path_7" data-name="Path 7" d="M401.852,249.384s1.41-1.539,1.155-2.657c0,0,.775.955.475,1.758s-.633.908-.633.908Z" transform="translate(-398.219 -245.157)" fill="#769e72"/>
      </g>
      <g id="Group_4" data-name="Group 4" transform="translate(62.124 47.058)">
        <path id="Path_8" data-name="Path 8" d="M307.488,54.112a.133.133,0,0,0,.038-.091c0-.09-.1-.163-.227-.163s-.227.073-.227.163a.137.137,0,0,0,.048.1,1.219,1.219,0,0,0-1.026.681h2.4A1.1,1.1,0,0,0,307.488,54.112Z" transform="translate(-304.113 -53.33)" fill="#769e72"/>
        <g id="Group_3" data-name="Group 3" transform="translate(0.523 1.454)">
          <path id="Path_9" data-name="Path 9" d="M290.2,67.045a1.12,1.12,0,0,0-.515-.452,1.342,1.342,0,0,0-.632-.024l.048.364s.267-.194.365.024-.184.842.594,1.02l.123-.472Z" transform="translate(-289.057 -66.382)" fill="#769e72"/>
          <path id="Path_10" data-name="Path 10" d="M340.16,73.9a.466.466,0,0,0-.262-.005,1.4,1.4,0,0,1,.07.426.361.361,0,0,0,.26-.09.221.221,0,0,0,.024-.221A.162.162,0,0,0,340.16,73.9Z" transform="translate(-335.547 -73.091)" fill="none"/>
          <path id="Path_11" data-name="Path 11" d="M304.374,65.486a.5.5,0,0,0-.278-.314.84.84,0,0,0-.539-.01c-.141-.248-.3-.487-.3-.487h-2.51a3.046,3.046,0,0,0-.372.777,1.823,1.823,0,0,0-.037.8,1.5,1.5,0,0,0,.927.889h1.846a1.847,1.847,0,0,0,.611-.9h.021a.7.7,0,0,0,.536-.2A.548.548,0,0,0,304.374,65.486Zm-.346.328a.361.361,0,0,1-.26.09,1.4,1.4,0,0,0-.07-.426.466.466,0,0,1,.262.005.162.162,0,0,1,.092.11A.221.221,0,0,1,304.028,65.814Z" transform="translate(-299.347 -64.675)" fill="#82bb84"/>
        </g>
        <path id="Path_12" data-name="Path 12" d="M283.37,47.687l.014.012.017.015.021.023a.366.366,0,0,1,.049.072.384.384,0,0,1,.036.116.467.467,0,0,1,0,.149.742.742,0,0,1-.048.157,2.131,2.131,0,0,1-.162.292c-.028.046-.054.088-.073.127a.383.383,0,0,0-.021.323.9.9,0,0,0,.071.161c.021.038.035.059.035.059a.408.408,0,0,1-.065-.028.594.594,0,0,1-.158-.119.518.518,0,0,1-.085-.119.457.457,0,0,1-.049-.173.468.468,0,0,1,0-.1l0-.026.005-.025c0-.017.009-.032.014-.048a.836.836,0,0,1,.084-.175,3.245,3.245,0,0,1,.193-.262.677.677,0,0,0,.116-.2.365.365,0,0,0,.017-.089.453.453,0,0,0,0-.075l0-.029,0-.021Z" transform="translate(-282.947 -47.687)" fill="#a8c5bd"/>
        <path id="Path_13" data-name="Path 13" d="M290.088,49.956h.013a.188.188,0,0,1,.037.005.2.2,0,0,1,.057.024.191.191,0,0,1,.063.065.237.237,0,0,1,.031.113.356.356,0,0,1-.02.124.516.516,0,0,1-.055.114c-.011.018-.024.035-.037.052l-.03.041c-.04.054-.077.1-.106.154a.692.692,0,0,0-.066.142.536.536,0,0,0-.024.115.346.346,0,0,0,0,.047.191.191,0,0,1-.034-.036.354.354,0,0,1-.06-.124.46.46,0,0,1,0-.21.582.582,0,0,1,.1-.23L290,50.3l.033-.036c.021-.023.041-.045.057-.066a.393.393,0,0,0,.039-.058.131.131,0,0,0-.01-.149.288.288,0,0,0-.02-.027Z" transform="translate(-289.251 -49.762)" fill="#a8c5bd"/>
        <path id="Path_14" data-name="Path 14" d="M322.266,67.136s1.306-1.425,1.069-2.461c0,0,.718.885.44,1.628s-.586.841-.586.841Z" transform="translate(-318.901 -63.221)" fill="#769e72"/>
      </g>
      <g id="Group_6" data-name="Group 6" transform="translate(75.503 70.569)">
        <path id="Path_15" data-name="Path 15" d="M472.6,331.151a.181.181,0,0,0,.052-.123c0-.122-.138-.221-.308-.221s-.308.1-.308.221a.186.186,0,0,0,.065.135,1.654,1.654,0,0,0-1.392.924h3.259A1.5,1.5,0,0,0,472.6,331.151Z" transform="translate(-468.022 -330.09)" fill="#abaa99"/>
        <g id="Group_5" data-name="Group 5" transform="translate(0.71 1.973)">
          <path id="Path_16" data-name="Path 16" d="M449.146,348.7a1.521,1.521,0,0,0-.7-.614,1.82,1.82,0,0,0-.857-.033l.066.494s.363-.263.495.033-.25,1.142.806,1.385l.167-.64Z" transform="translate(-447.59 -347.799)" fill="#abaa99"/>
          <path id="Path_17" data-name="Path 17" d="M516.937,358a.632.632,0,0,0-.355-.007,1.9,1.9,0,0,1,.095.578.49.49,0,0,0,.353-.122.3.3,0,0,0,.032-.3A.219.219,0,0,0,516.937,358Z" transform="translate(-510.678 -356.904)" fill="none"/>
          <path id="Path_18" data-name="Path 18" d="M468.375,346.585a.685.685,0,0,0-.377-.426,1.141,1.141,0,0,0-.731-.014c-.191-.337-.407-.661-.407-.661h-3.406a4.14,4.14,0,0,0-.5,1.055,2.476,2.476,0,0,0-.05,1.09,2.029,2.029,0,0,0,1.258,1.207h2.505a2.509,2.509,0,0,0,.829-1.221h.028a.945.945,0,0,0,.728-.276A.744.744,0,0,0,468.375,346.585Zm-.47.445a.49.49,0,0,1-.353.122,1.9,1.9,0,0,0-.095-.578.632.632,0,0,1,.355.007.219.219,0,0,1,.125.149A.3.3,0,0,1,467.905,347.03Z" transform="translate(-461.554 -345.484)" fill="#c8c7aa"/>
        </g>
        <path id="Path_19" data-name="Path 19" d="M439.872,322.432l.019.016.023.02.028.031a.51.51,0,0,1,.066.1.525.525,0,0,1,.049.157.637.637,0,0,1-.005.2,1.008,1.008,0,0,1-.065.213,2.868,2.868,0,0,1-.22.4c-.038.062-.073.12-.1.173a.519.519,0,0,0-.028.439,1.214,1.214,0,0,0,.1.218c.029.052.048.08.048.08a.542.542,0,0,1-.088-.038.814.814,0,0,1-.215-.162.713.713,0,0,1-.115-.161.62.62,0,0,1-.062-.373c0-.011,0-.023.006-.035l.007-.033c0-.023.012-.044.019-.066a1.157,1.157,0,0,1,.114-.237c.09-.145.187-.256.263-.355a.926.926,0,0,0,.158-.27.509.509,0,0,0,.023-.121.6.6,0,0,0,0-.1c0-.015,0-.027-.006-.039l-.006-.028Z" transform="translate(-439.298 -322.432)" fill="#a8c5bd"/>
        <path id="Path_20" data-name="Path 20" d="M448.989,325.51h.017a.264.264,0,0,1,.05.007.268.268,0,0,1,.078.033.259.259,0,0,1,.086.089.322.322,0,0,1,.042.153.482.482,0,0,1-.027.168.709.709,0,0,1-.075.155c-.015.025-.032.047-.05.071s-.026.037-.041.055a2.509,2.509,0,0,0-.144.209.931.931,0,0,0-.089.193.739.739,0,0,0-.033.155.471.471,0,0,0,0,.064.256.256,0,0,1-.046-.049.477.477,0,0,1-.081-.169.626.626,0,0,1-.007-.285.8.8,0,0,1,.142-.313c.018-.024.037-.046.056-.068l.045-.049c.029-.031.056-.061.078-.089a.539.539,0,0,0,.053-.079.2.2,0,0,0,.024-.071.2.2,0,0,0-.038-.131.4.4,0,0,0-.028-.037Z" transform="translate(-447.854 -325.246)" fill="#a8c5bd"/>
        <path id="Path_21" data-name="Path 21" d="M492.654,348.823s1.772-1.934,1.451-3.339c0,0,.974,1.2.6,2.21s-.8,1.141-.8,1.141Z" transform="translate(-488.088 -343.511)" fill="#abaa99"/>
      </g>
      <g id="Group_8" data-name="Group 8" transform="translate(73.498 55.564)">
        <path id="Path_22" data-name="Path 22" d="M442.119,153.957a.141.141,0,0,0,.041-.1c0-.1-.108-.174-.243-.174s-.243.078-.243.174a.147.147,0,0,0,.051.107,1.3,1.3,0,0,0-1.1.729H443.2A1.179,1.179,0,0,0,442.119,153.957Z" transform="translate(-438.509 -153.121)" fill="#abaa99"/>
        <g id="Group_7" data-name="Group 7" transform="translate(0.559 1.555)">
          <path id="Path_23" data-name="Path 23" d="M423.625,167.792a1.2,1.2,0,0,0-.551-.484,1.436,1.436,0,0,0-.676-.026l.052.39s.286-.208.39.026-.2.9.635,1.092l.132-.5Z" transform="translate(-422.399 -167.083)" fill="#abaa99"/>
          <path id="Path_24" data-name="Path 24" d="M477.072,175.126a.5.5,0,0,0-.28-.006,1.5,1.5,0,0,1,.075.456.386.386,0,0,0,.278-.1.236.236,0,0,0,.026-.236A.174.174,0,0,0,477.072,175.126Z" transform="translate(-472.137 -174.261)" fill="none"/>
          <path id="Path_25" data-name="Path 25" d="M438.787,166.126a.54.54,0,0,0-.3-.336.9.9,0,0,0-.576-.011c-.15-.265-.321-.521-.321-.521h-2.685a3.269,3.269,0,0,0-.4.832,1.951,1.951,0,0,0-.04.859,1.6,1.6,0,0,0,.992.951h1.975a1.979,1.979,0,0,0,.654-.963h.023a.745.745,0,0,0,.574-.217A.587.587,0,0,0,438.787,166.126Zm-.371.351a.386.386,0,0,1-.278.1,1.5,1.5,0,0,0-.075-.456.5.5,0,0,1,.28.006.173.173,0,0,1,.1.118A.236.236,0,0,1,438.416,166.477Z" transform="translate(-433.409 -165.258)" fill="#c8c7aa"/>
        </g>
        <path id="Path_26" data-name="Path 26" d="M416.315,147.083l.015.013.018.016.022.024a.4.4,0,0,1,.052.077.411.411,0,0,1,.039.124.505.505,0,0,1,0,.16.814.814,0,0,1-.051.168,2.266,2.266,0,0,1-.173.313c-.03.049-.057.094-.078.136a.41.41,0,0,0-.023.346.983.983,0,0,0,.076.172c.023.041.038.063.038.063a.424.424,0,0,1-.069-.03.636.636,0,0,1-.169-.127.557.557,0,0,1-.091-.127.49.49,0,0,1-.049-.294c0-.009,0-.018,0-.028l.006-.026c0-.018.009-.034.015-.052a.9.9,0,0,1,.09-.187,3.47,3.47,0,0,1,.207-.28.733.733,0,0,0,.125-.213.4.4,0,0,0,.018-.1.48.48,0,0,0,0-.08l0-.031,0-.022Z" transform="translate(-415.863 -147.083)" fill="#a8c5bd"/>
        <path id="Path_27" data-name="Path 27" d="M423.5,149.51h.014a.2.2,0,0,1,.039.006.209.209,0,0,1,.061.026.2.2,0,0,1,.068.07.254.254,0,0,1,.033.12.381.381,0,0,1-.021.133.548.548,0,0,1-.059.122c-.012.02-.025.037-.039.056l-.032.043c-.043.058-.082.112-.113.165a.745.745,0,0,0-.07.152.573.573,0,0,0-.025.123.356.356,0,0,0,0,.05.21.21,0,0,1-.036-.038.377.377,0,0,1-.064-.133.493.493,0,0,1-.006-.225.628.628,0,0,1,.113-.246c.014-.019.029-.037.044-.054l.036-.038c.023-.025.044-.048.061-.07a.431.431,0,0,0,.042-.062.155.155,0,0,0,.019-.056.161.161,0,0,0-.03-.1.311.311,0,0,0-.022-.029Z" transform="translate(-422.607 -149.303)" fill="#a8c5bd"/>
        <path id="Path_28" data-name="Path 28" d="M457.928,167.891s1.4-1.525,1.144-2.633c0,0,.768.946.471,1.742s-.627.9-.627.9Z" transform="translate(-454.328 -163.703)" fill="#abaa99"/>
      </g>
      <g id="Group_10" data-name="Group 10" transform="translate(71.799 66.668)">
        <g id="Group_9" data-name="Group 9" transform="translate(0)">
          <path id="Path_29" data-name="Path 29" d="M430.426,276.9a.371.371,0,0,0-.045.339,5.381,5.381,0,0,1-.6.453c.149.051.28.127.411.186.094-.091.417-.381.486-.444.061.037.225.106.347-.14C431.18,276.984,430.556,276.725,430.426,276.9Z" transform="translate(-426.893 -276.842)" fill="#e59446"/>
          <path id="Path_30" data-name="Path 30" d="M400.585,285.474a2.05,2.05,0,0,0-.433-.649c-.015.061-.056.3-.068.351-.034.145.085.229-.257.48s-.523.342-.8.231c-.51-.2-.5-.626-.18-.985a1.391,1.391,0,0,1,.942-.377,4.719,4.719,0,0,0-1.565-.632c-.991-.142-2.1.205-2.206,1.308a1.014,1.014,0,0,0,.722,1.18,5.361,5.361,0,0,0,3.206-.026A.835.835,0,0,0,400.585,285.474Z" transform="translate(-396.005 -283.263)" fill="#f8ad38"/>
          <path id="Path_31" data-name="Path 31" d="M428.012,282.171a.372.372,0,0,0-.017.342,1.625,1.625,0,0,1-.613.385c-.342.091-.966.112-1.081.733s.457.862,1.055.609.325-.827.6-1.163c.122-.147.258-.3.351-.4.064.032.233.086.333-.169C428.77,282.194,428.126,281.989,428.012,282.171Z" transform="translate(-423.696 -281.652)" fill="#e59446"/>
        </g>
        <path id="Path_32" data-name="Path 32" d="M416.738,296.727a.08.08,0,1,1-.08-.08A.08.08,0,0,1,416.738,296.727Z" transform="translate(-414.816 -294.952)" fill="#e59446"/>
        <path id="Path_33" data-name="Path 33" d="M412.817,293.605a.109.109,0,1,1-.109-.109A.109.109,0,0,1,412.817,293.605Z" transform="translate(-411.179 -292.071)" fill="#e59446"/>
        <path id="Path_34" data-name="Path 34" d="M410.082,299.105a.055.055,0,1,1-.055-.055A.055.055,0,0,1,410.082,299.105Z" transform="translate(-408.778 -297.15)" fill="#e59446"/>
        <path id="Path_35" data-name="Path 35" d="M404.589,295.495a.122.122,0,1,1-.122-.122A.122.122,0,0,1,404.589,295.495Z" transform="translate(-403.631 -293.787)" fill="#e59446"/>
        <circle id="Ellipse_1" data-name="Ellipse 1" cx="0.1" cy="0.1" r="0.1" transform="translate(0.996 2.279)" fill="#e59446"/>
        <path id="Path_36" data-name="Path 36" d="M417.393,302.61a.183.183,0,1,1-.183-.183A.183.183,0,0,1,417.393,302.61Z" transform="translate(-415.228 -300.238)" fill="#e59446"/>
        <path id="Path_37" data-name="Path 37" d="M422.389,296.478a.055.055,0,1,1-.055-.055A.055.055,0,0,1,422.389,296.478Z" transform="translate(-420.031 -294.747)" fill="#e59446"/>
        <path id="Path_38" data-name="Path 38" d="M417.733,290.209a.09.09,0,1,1-.09-.09A.09.09,0,0,1,417.733,290.209Z" transform="translate(-415.709 -288.983)" fill="#e59446"/>
      </g>
      <g id="Group_12" data-name="Group 12" transform="translate(50.042 64.785)">
        <g id="Group_11" data-name="Group 11">
          <path id="Path_39" data-name="Path 39" d="M176.18,254.889a.372.372,0,0,0-.045.339,5.366,5.366,0,0,1-.6.453c.149.051.28.127.411.186.094-.091.417-.381.486-.444.061.037.225.106.347-.14C176.934,254.976,176.31,254.717,176.18,254.889Z" transform="translate(-172.647 -254.834)" fill="#e59446"/>
          <path id="Path_40" data-name="Path 40" d="M146.339,263.467a2.048,2.048,0,0,0-.433-.649c-.015.061-.056.3-.068.351-.034.145.085.229-.257.48s-.523.342-.805.231c-.51-.2-.5-.626-.18-.985a1.391,1.391,0,0,1,.942-.377,4.717,4.717,0,0,0-1.565-.632c-.991-.141-2.1.205-2.206,1.308a1.015,1.015,0,0,0,.722,1.18,5.359,5.359,0,0,0,3.206-.026A.835.835,0,0,0,146.339,263.467Z" transform="translate(-141.758 -261.255)" fill="#f8ad38"/>
          <path id="Path_41" data-name="Path 41" d="M173.766,260.164a.373.373,0,0,0-.017.342,1.626,1.626,0,0,1-.613.385c-.342.091-.966.111-1.081.733s.457.862,1.055.609.325-.827.6-1.163c.122-.147.258-.3.351-.4.064.032.233.086.333-.169C174.524,260.186,173.88,259.981,173.766,260.164Z" transform="translate(-169.45 -259.645)" fill="#e59446"/>
        </g>
        <path id="Path_42" data-name="Path 42" d="M162.492,274.72a.08.08,0,1,1-.08-.08A.08.08,0,0,1,162.492,274.72Z" transform="translate(-160.571 -272.945)" fill="#e59446"/>
        <path id="Path_43" data-name="Path 43" d="M158.571,271.6a.109.109,0,1,1-.109-.109A.109.109,0,0,1,158.571,271.6Z" transform="translate(-156.933 -270.063)" fill="#e59446"/>
        <path id="Path_44" data-name="Path 44" d="M155.836,277.1a.055.055,0,1,1-.055-.055A.055.055,0,0,1,155.836,277.1Z" transform="translate(-154.532 -275.142)" fill="#e59446"/>
        <path id="Path_45" data-name="Path 45" d="M150.343,273.486a.122.122,0,1,1-.122-.122A.122.122,0,0,1,150.343,273.486Z" transform="translate(-149.385 -271.778)" fill="#e59446"/>
        <circle id="Ellipse_2" data-name="Ellipse 2" cx="0.1" cy="0.1" r="0.1" transform="translate(0.996 2.279)" fill="#e59446"/>
        <path id="Path_46" data-name="Path 46" d="M163.147,280.6a.183.183,0,1,1-.183-.183A.183.183,0,0,1,163.147,280.6Z" transform="translate(-160.982 -278.23)" fill="#e59446"/>
        <path id="Path_47" data-name="Path 47" d="M168.144,274.47a.055.055,0,1,1-.055-.055A.055.055,0,0,1,168.144,274.47Z" transform="translate(-165.786 -272.739)" fill="#e59446"/>
        <path id="Path_48" data-name="Path 48" d="M163.487,268.2a.09.09,0,1,1-.09-.09A.09.09,0,0,1,163.487,268.2Z" transform="translate(-161.463 -266.974)" fill="#e59446"/>
      </g>
      <g id="Group_14" data-name="Group 14" transform="translate(81.31 66.327)">
        <path id="Path_49" data-name="Path 49" d="M508.615,292.82s-.075-.352.2-.39c0,0,.118-.488.564-.482a.313.313,0,0,1,.28.14.5.5,0,0,1,.43-.377c.36-.04.709.078.789.257a.478.478,0,0,1,.41-.107c.255.067.43.195.45.315,0,0,.217-.082.32.052a.252.252,0,0,1,.02.24.523.523,0,0,1,.417.39Z" transform="translate(-508.481 -290.09)" fill="#d9ca9c"/>
        <g id="Group_13" data-name="Group 13" transform="translate(0 2.697)">
          <path id="Path_50" data-name="Path 50" d="M509.212,304.375h-2.058a2.1,2.1,0,0,0,.844,1.661,2.254,2.254,0,0,0,2.428,0,2.1,2.1,0,0,0,.844-1.661Z" transform="translate(-507.153 -304.375)" fill="#769e72"/>
        </g>
        <path id="Path_51" data-name="Path 51" d="M537.819,275.07l.765-2.216.224.059-.844,2.2Z" transform="translate(-535.195 -272.854)" fill="#cd474a"/>
        <path id="Path_52" data-name="Path 52" d="M541.725,278.932l.952-1.917.218.106-1.048,1.866Z" transform="translate(-538.766 -276.66)" fill="#cd474a"/>
        <path id="Path_53" data-name="Path 53" d="M521.9,298.562a.112.112,0,1,1-.112-.112A.112.112,0,0,1,521.9,298.562Z" transform="translate(-520.43 -296.26)" fill="#c2b78a"/>
        <path id="Path_54" data-name="Path 54" d="M527.875,296.955a.169.169,0,1,1-.169-.169A.169.169,0,0,1,527.875,296.955Z" transform="translate(-525.794 -294.738)" fill="#c2b78a"/>
        <path id="Path_55" data-name="Path 55" d="M533.1,301.845a.067.067,0,1,1-.068-.067A.068.068,0,0,1,533.1,301.845Z" transform="translate(-530.759 -299.303)" fill="#c2b78a"/>
        <path id="Path_56" data-name="Path 56" d="M516.979,299.693a.1.1,0,1,1-.1-.105A.1.1,0,0,1,516.979,299.693Z" transform="translate(-515.946 -297.3)" fill="#c2b78a"/>
        <path id="Path_57" data-name="Path 57" d="M539.765,301.323a.071.071,0,1,1-.071-.071A.071.071,0,0,1,539.765,301.323Z" transform="translate(-536.844 -298.822)" fill="#c2b78a"/>
      </g>
      <g id="Group_16" data-name="Group 16" transform="translate(54.597 73.743)">
        <path id="Path_58" data-name="Path 58" d="M196.436,379.244s-.074-.348.2-.385c0,0,.116-.482.558-.476a.31.31,0,0,1,.276.138.492.492,0,0,1,.425-.373c.355-.039.7.077.78.254a.472.472,0,0,1,.4-.106c.252.067.424.192.444.311,0,0,.215-.081.316.052a.249.249,0,0,1,.02.237.517.517,0,0,1,.412.385Z" transform="translate(-196.304 -376.546)" fill="#d9ca9c"/>
        <g id="Group_15" data-name="Group 15" transform="translate(0 2.665)">
          <path id="Path_59" data-name="Path 59" d="M197.026,390.661h-2.034a2.076,2.076,0,0,0,.834,1.641,2.229,2.229,0,0,0,2.4,0,2.076,2.076,0,0,0,.834-1.641Z" transform="translate(-194.991 -390.661)" fill="#769e72"/>
        </g>
        <path id="Path_60" data-name="Path 60" d="M225.291,361.707l.756-2.189.222.059-.834,2.17Z" transform="translate(-222.698 -359.518)" fill="#cd474a"/>
        <path id="Path_61" data-name="Path 61" d="M229.15,365.523l.94-1.894.215.1-1.036,1.844Z" transform="translate(-226.227 -363.277)" fill="#cd474a"/>
        <path id="Path_62" data-name="Path 62" d="M209.56,384.918a.111.111,0,1,1-.111-.111A.111.111,0,0,1,209.56,384.918Z" transform="translate(-208.11 -382.643)" fill="#c2b78a"/>
        <path id="Path_63" data-name="Path 63" d="M215.467,383.33a.167.167,0,1,1-.167-.167A.167.167,0,0,1,215.467,383.33Z" transform="translate(-213.41 -381.14)" fill="#c2b78a"/>
        <path id="Path_64" data-name="Path 64" d="M220.631,388.161a.067.067,0,1,1-.067-.067A.067.067,0,0,1,220.631,388.161Z" transform="translate(-218.315 -385.649)" fill="#c2b78a"/>
        <path id="Path_65" data-name="Path 65" d="M204.7,386.035a.1.1,0,1,1-.1-.1A.1.1,0,0,1,204.7,386.035Z" transform="translate(-203.68 -383.671)" fill="#c2b78a"/>
        <path id="Path_66" data-name="Path 66" d="M227.215,387.645a.07.07,0,1,1-.07-.07A.07.07,0,0,1,227.215,387.645Z" transform="translate(-224.329 -385.174)" fill="#c2b78a"/>
      </g>
      <g id="Group_18" data-name="Group 18" transform="translate(71.348 73.47)">
        <path id="Path_67" data-name="Path 67" d="M392.128,375.219s-.071-.333.191-.369c0,0,.111-.461.534-.456a.3.3,0,0,1,.265.132.471.471,0,0,1,.407-.357c.34-.038.671.073.747.243a.451.451,0,0,1,.387-.1c.241.064.406.184.425.3,0,0,.206-.078.3.05a.239.239,0,0,1,.019.227.494.494,0,0,1,.395.369Z" transform="translate(-392.001 -372.636)" fill="#d9ca9c"/>
        <g id="Group_17" data-name="Group 17" transform="translate(0 2.552)">
          <path id="Path_68" data-name="Path 68" d="M392.692,386.149h-1.947a1.988,1.988,0,0,0,.8,1.572,2.133,2.133,0,0,0,2.3,0,1.988,1.988,0,0,0,.8-1.572Z" transform="translate(-390.744 -386.149)" fill="#592c22"/>
        </g>
        <path id="Path_69" data-name="Path 69" d="M419.754,358.428l.724-2.1.212.056-.8,2.077Z" transform="translate(-417.271 -356.332)" fill="#cd474a"/>
        <path id="Path_70" data-name="Path 70" d="M423.449,362.082l.9-1.813.206.1-.992,1.765Z" transform="translate(-420.651 -359.932)" fill="#cd474a"/>
        <path id="Path_71" data-name="Path 71" d="M404.693,380.65a.106.106,0,1,1-.106-.106A.106.106,0,0,1,404.693,380.65Z" transform="translate(-403.305 -378.472)" fill="#c2b78a"/>
        <path id="Path_72" data-name="Path 72" d="M410.348,379.13a.16.16,0,1,1-.159-.159A.159.159,0,0,1,410.348,379.13Z" transform="translate(-408.379 -377.034)" fill="#c2b78a"/>
        <circle id="Ellipse_3" data-name="Ellipse 3" cx="0.064" cy="0.064" r="0.064" transform="translate(2.09 2.341)" fill="#c2b78a"/>
        <path id="Path_73" data-name="Path 73" d="M400.04,381.719a.1.1,0,1,1-.1-.1A.1.1,0,0,1,400.04,381.719Z" transform="translate(-399.063 -379.456)" fill="#c2b78a"/>
        <path id="Path_74" data-name="Path 74" d="M421.6,383.262a.067.067,0,1,1-.067-.067A.067.067,0,0,1,421.6,383.262Z" transform="translate(-418.832 -380.896)" fill="#c2b78a"/>
      </g>
      <g id="Group_19" data-name="Group 19" transform="translate(69.835 52.028)">
        <path id="Path_75" data-name="Path 75" d="M378.163,116.366h-2.381l-.263-3.916h2.907Z" transform="translate(-375.309 -111.878)" fill="#deddcc"/>
        <path id="Path_76" data-name="Path 76" d="M379.423,132.108h-2.59l-.049-.738h2.69Z" transform="translate(-376.466 -129.179)" fill="#f8ad38"/>
        <path id="Path_77" data-name="Path 77" d="M378.5,106.289h-2.892l.085-.527h2.723Z" transform="translate(-375.389 -105.762)" fill="#983406"/>
        <path id="Path_78" data-name="Path 78" d="M386.084,127.985a.663.663,0,1,1-.663-.663A.663.663,0,0,1,386.084,127.985Z" transform="translate(-383.758 -125.477)" fill="#983406"/>
        <path id="Path_79" data-name="Path 79" d="M376.385,110.48h-3.328l.045-.407h3.238Z" transform="translate(-373.057 -109.705)" fill="#cb4508"/>
      </g>
      <g id="Group_20" data-name="Group 20" transform="translate(51.559 69.19)">
        <path id="Path_80" data-name="Path 80" d="M164.986,317.713h-2.56l-.283-4.21h3.125Z" transform="translate(-161.917 -312.887)" fill="#deddcc"/>
        <path id="Path_81" data-name="Path 81" d="M166.341,334.638h-2.784l-.052-.793H166.4Z" transform="translate(-163.162 -331.489)" fill="#f8ad38"/>
        <path id="Path_82" data-name="Path 82" d="M165.347,306.878h-3.109l.091-.567h2.927Z" transform="translate(-162.003 -306.312)" fill="#983406"/>
        <path id="Path_83" data-name="Path 83" d="M173.5,330.2a.712.712,0,1,1-.712-.713A.713.713,0,0,1,173.5,330.2Z" transform="translate(-171.001 -327.507)" fill="#983406"/>
        <path id="Path_84" data-name="Path 84" d="M163.073,311.384h-3.578l.049-.437h3.481Z" transform="translate(-159.495 -310.551)" fill="#cb4508"/>
      </g>
      <g id="Group_21" data-name="Group 21" transform="translate(70.556 70.522)">
        <path id="Path_85" data-name="Path 85" d="M385.571,330.363h-1.9l-.21-3.131h2.324Z" transform="translate(-383.288 -326.775)" fill="#c8c7aa"/>
        <path id="Path_86" data-name="Path 86" d="M386.578,342.95h-2.07l-.039-.59h2.151Z" transform="translate(-384.214 -340.608)" fill="#f8ad38"/>
        <path id="Path_87" data-name="Path 87" d="M385.839,322.305h-2.312l.068-.421h2.177Z" transform="translate(-383.353 -321.884)" fill="#769e72"/>
        <path id="Path_88" data-name="Path 88" d="M391.9,339.653a.53.53,0,1,1-.53-.53A.53.53,0,0,1,391.9,339.653Z" transform="translate(-390.044 -337.648)" fill="#524656"/>
        <path id="Path_89" data-name="Path 89" d="M384.149,325.657h-2.661l.036-.325h2.589Z" transform="translate(-381.487 -325.037)" fill="#8fb075"/>
      </g>
      <g id="Group_22" data-name="Group 22" transform="translate(64.737 66.019)">
        <path id="Path_90" data-name="Path 90" d="M316.382,269.254a2.894,2.894,0,1,0,2.894,2.894A2.894,2.894,0,0,0,316.382,269.254Zm0,3.891a1,1,0,1,1,1-1A1,1,0,0,1,316.382,273.145Z" transform="translate(-313.488 -269.254)" fill="#e59446"/>
        <path id="Path_91" data-name="Path 91" d="M316.382,269.254a2.894,2.894,0,0,0-2.807,3.6c.03-.1.107-.282.262-.293s.149.045.339.33.244.069.482-.018c.465-.17.033.884.521,1.039.321.1.119-.464.476-.512s.31.976.714,1.1.572-1.453.929-1.405.4.4.619.31-.024-.953.286-1.024.4.453.572.5c.118.034.191-.529.476-.35a2.216,2.216,0,0,0,.025-.377A2.894,2.894,0,0,0,316.382,269.254Zm0,3.891a1,1,0,1,1,1-1A1,1,0,0,1,316.382,273.145Z" transform="translate(-313.488 -269.254)" fill="#592c22"/>
        <rect id="Rectangle_1" data-name="Rectangle 1" width="0.641" height="0.13" transform="translate(0.871 1.611) rotate(-31.311)" fill="#f8ad38"/>
        <rect id="Rectangle_2" data-name="Rectangle 2" width="0.13" height="0.641" transform="translate(3.764 1.229) rotate(-14.248)" fill="#f8ad38"/>
        <rect id="Rectangle_3" data-name="Rectangle 3" width="0.13" height="0.641" transform="translate(2.567 0.694) rotate(-74.875)" fill="#e59446"/>
        <rect id="Rectangle_4" data-name="Rectangle 4" width="0.641" height="0.13" transform="matrix(1, -0.029, 0.029, 1, 0.88, 2.183)" fill="#e59446"/>
        <rect id="Rectangle_5" data-name="Rectangle 5" width="0.641" height="0.13" transform="translate(0.604 2.849) rotate(-18.327)" fill="#e97b5e"/>
        <rect id="Rectangle_6" data-name="Rectangle 6" width="0.13" height="0.641" transform="translate(1.72 0.616) rotate(-33.961)" fill="#e97b5e"/>
        <rect id="Rectangle_7" data-name="Rectangle 7" width="0.641" height="0.13" transform="translate(4.252 1.523) rotate(-54.867)" fill="#e97b5e"/>
        <rect id="Rectangle_8" data-name="Rectangle 8" width="0.641" height="0.13" transform="translate(2.477 1.417) rotate(-0.882)" fill="#82bb84"/>
        <rect id="Rectangle_9" data-name="Rectangle 9" width="0.641" height="0.13" transform="matrix(0.753, -0.658, 0.658, 0.753, 4.217, 2.425)" fill="#82bb84"/>
      </g>
      <g id="Group_23" data-name="Group 23" transform="translate(80.174 56.679)">
        <path id="Path_92" data-name="Path 92" d="M495.973,160.11a2.1,2.1,0,1,0,2.1,2.1A2.1,2.1,0,0,0,495.973,160.11Zm0,2.825a.724.724,0,1,1,.724-.724A.724.724,0,0,1,495.973,162.935Z" transform="translate(-493.872 -160.11)" fill="#e59446"/>
        <path id="Path_93" data-name="Path 93" d="M495.973,160.11a2.1,2.1,0,0,0-2.038,2.612c.022-.071.078-.2.19-.213s.108.032.246.24.177.05.35-.013c.337-.123.024.642.378.754.233.074.086-.337.346-.372s.225.709.519.8.415-1.055.674-1.02.294.294.449.225-.017-.692.208-.743.294.329.415.363c.086.024.139-.384.345-.254a1.621,1.621,0,0,0,.018-.274A2.1,2.1,0,0,0,495.973,160.11Zm0,2.825a.724.724,0,1,1,.724-.724A.724.724,0,0,1,495.973,162.935Z" transform="translate(-493.872 -160.11)" fill="#592c22"/>
        <rect id="Rectangle_10" data-name="Rectangle 10" width="0.465" height="0.094" transform="matrix(0.854, -0.52, 0.52, 0.854, 0.632, 1.17)" fill="#f8ad38"/>
        <rect id="Rectangle_11" data-name="Rectangle 11" width="0.094" height="0.466" transform="translate(2.733 0.893) rotate(-14.245)" fill="#f8ad38"/>
        <rect id="Rectangle_12" data-name="Rectangle 12" width="0.094" height="0.465" transform="translate(1.864 0.503) rotate(-74.871)" fill="#e59446"/>
        <rect id="Rectangle_13" data-name="Rectangle 13" width="0.466" height="0.094" transform="translate(0.639 1.585) rotate(-1.677)" fill="#e59446"/>
        <rect id="Rectangle_14" data-name="Rectangle 14" width="0.466" height="0.094" transform="translate(0.439 2.069) rotate(-18.345)" fill="#e97b5e"/>
        <rect id="Rectangle_15" data-name="Rectangle 15" width="0.094" height="0.465" transform="translate(1.249 0.447) rotate(-33.964)" fill="#e97b5e"/>
        <rect id="Rectangle_16" data-name="Rectangle 16" width="0.466" height="0.094" transform="matrix(0.576, -0.818, 0.818, 0.576, 3.087, 1.106)" fill="#e97b5e"/>
        <rect id="Rectangle_17" data-name="Rectangle 17" width="0.465" height="0.094" transform="translate(1.798 1.029) rotate(-0.96)" fill="#82bb84"/>
        <rect id="Rectangle_18" data-name="Rectangle 18" width="0.466" height="0.094" transform="translate(3.062 1.76) rotate(-41.209)" fill="#82bb84"/>
      </g>
      <g id="Group_24" data-name="Group 24" transform="translate(52.824 53.663)">
        <path id="Path_94" data-name="Path 94" d="M176.058,124.875a1.787,1.787,0,1,0,1.787,1.787A1.787,1.787,0,0,0,176.058,124.875Zm0,2.4a.616.616,0,1,1,.616-.616A.616.616,0,0,1,176.058,127.278Z" transform="translate(-174.271 -124.875)" fill="#592c22"/>
        <path id="Path_95" data-name="Path 95" d="M176.058,124.875a1.788,1.788,0,0,0-1.734,2.222c.018-.06.066-.174.162-.181s.092.027.21.2.151.043.3-.011c.287-.1.02.546.322.642.2.063.074-.287.294-.316s.191.6.441.676.353-.9.574-.868.25.25.382.191-.015-.588.177-.632.25.279.353.309c.073.021.118-.327.294-.216a1.383,1.383,0,0,0,.015-.233A1.787,1.787,0,0,0,176.058,124.875Zm0,2.4a.616.616,0,1,1,.616-.616A.616.616,0,0,1,176.058,127.278Z" transform="translate(-174.271 -124.875)" fill="#cb4508"/>
        <rect id="Rectangle_19" data-name="Rectangle 19" width="0.396" height="0.08" transform="matrix(0.855, -0.519, 0.519, 0.855, 0.538, 0.995)" fill="#f8ad38"/>
        <rect id="Rectangle_20" data-name="Rectangle 20" width="0.08" height="0.396" transform="translate(2.325 0.759) rotate(-14.23)" fill="#f8ad38"/>
        <rect id="Rectangle_21" data-name="Rectangle 21" width="0.08" height="0.396" transform="translate(1.586 0.428) rotate(-74.865)" fill="#e59446"/>
        <path id="Path_96" data-name="Path 96" d="M180.628,140.59l0-.08.4-.011,0,.08Z" transform="translate(-180.082 -139.162)" fill="#e59446"/>
        <rect id="Rectangle_22" data-name="Rectangle 22" width="0.396" height="0.08" transform="translate(0.373 1.76) rotate(-18.458)" fill="#e97b5e"/>
        <rect id="Rectangle_23" data-name="Rectangle 23" width="0.08" height="0.396" transform="translate(1.062 0.38) rotate(-33.947)" fill="#e97b5e"/>
        <rect id="Rectangle_24" data-name="Rectangle 24" width="0.396" height="0.08" transform="translate(2.626 0.94) rotate(-54.874)" fill="#e97b5e"/>
        <rect id="Rectangle_25" data-name="Rectangle 25" width="0.396" height="0.08" transform="translate(1.53 0.875) rotate(-0.922)" fill="#82bb84"/>
        <rect id="Rectangle_26" data-name="Rectangle 26" width="0.396" height="0.08" transform="matrix(0.752, -0.659, 0.659, 0.752, 2.605, 1.498)" fill="#82bb84"/>
      </g>
      <g id="Group_25" data-name="Group 25" transform="translate(54.371 57.76)">
        <path id="Path_97" data-name="Path 97" d="M192.551,174.672s-.362-.1-.124-.473a.809.809,0,0,1,.636-.371s-.354-.243-.066-.5c.21-.191.645-.068.806-.2.1-.079.086-.205-.139-.345a2,2,0,0,1,.49-.027,1.122,1.122,0,0,1,.759.409c.172.258.063.353.063.353a.768.768,0,0,1,.568.669s.428.174.076.681C195.113,175.6,192.551,174.672,192.551,174.672Z" transform="translate(-192.346 -172.749)" fill="#d9ca9c"/>
        <path id="Path_98" data-name="Path 98" d="M196.11,194.911a.266.266,0,0,1-.261.242H193a.266.266,0,0,1-.261-.242l-.014-.189a.222.222,0,0,1,.224-.242H195.9a.222.222,0,0,1,.224.242Z" transform="translate(-192.695 -192.62)" fill="#e59446"/>
        <path id="Path_99" data-name="Path 99" d="M197.962,201.586a.132.132,0,0,1-.129.121h-2.394a.134.134,0,0,1-.131-.121l-.179-2.265a.11.11,0,0,1,.112-.121H198a.112.112,0,0,1,.113.121Z" transform="translate(-194.89 -196.937)" fill="#e59446"/>
        <rect id="Rectangle_27" data-name="Rectangle 27" width="2.94" height="0.227" transform="translate(0.271 2.524)" fill="#d98229"/>
        <path id="Path_100" data-name="Path 100" d="M205.956,184.441a.178.178,0,1,1-.178-.178A.178.178,0,0,1,205.956,184.441Z" transform="translate(-204.465 -183.278)" fill="#82bb84"/>
        <path id="Path_101" data-name="Path 101" d="M198.776,188.375a.124.124,0,1,1-.124-.124A.124.124,0,0,1,198.776,188.375Z" transform="translate(-197.999 -186.924)" fill="#e97b5e"/>
        <path id="Path_102" data-name="Path 102" d="M211.829,178.949a.124.124,0,1,1-.124-.124A.124.124,0,0,1,211.829,178.949Z" transform="translate(-209.935 -178.305)" fill="#f8ad38"/>
        <path id="Path_103" data-name="Path 103" d="M213.46,187.832a.124.124,0,1,1-.124-.124A.124.124,0,0,1,213.46,187.832Z" transform="translate(-211.426 -186.428)" fill="#fff"/>
        <path id="Path_104" data-name="Path 104" d="M221.979,186.019a.124.124,0,1,1-.124-.124A.124.124,0,0,1,221.979,186.019Z" transform="translate(-219.216 -184.77)" fill="#769e72"/>
        <path id="Path_105" data-name="Path 105" d="M199.162,204.166s.124,1.536.171,1.536.062-1.551.062-1.551Z" transform="translate(-198.579 -201.463)" fill="#d98229"/>
        <path id="Path_106" data-name="Path 106" d="M205.377,204.211s.1,1.528.147,1.528.085-1.544.085-1.544Z" transform="translate(-204.262 -201.504)" fill="#d98229"/>
        <path id="Path_107" data-name="Path 107" d="M211.591,204.3s.054,1.512.1,1.512.132-1.528.132-1.528Z" transform="translate(-209.944 -201.587)" fill="#d98229"/>
        <path id="Path_108" data-name="Path 108" d="M217.8,204.279s.023,1.516.07,1.516.163-1.532.163-1.532Z" transform="translate(-215.625 -201.567)" fill="#d98229"/>
        <path id="Path_109" data-name="Path 109" d="M224.018,204.369s-.006,1.5.041,1.5.192-1.516.192-1.516Z" transform="translate(-221.307 -201.649)" fill="#d98229"/>
      </g>
      <g id="Group_26" data-name="Group 26" transform="translate(75.293 75.773)">
        <path id="Path_110" data-name="Path 110" d="M437.024,384.923s-.318-.089-.108-.414a.708.708,0,0,1,.557-.325s-.31-.213-.058-.441c.184-.167.565-.059.707-.172.087-.07.075-.18-.122-.3a1.76,1.76,0,0,1,.43-.023.983.983,0,0,1,.665.359c.151.226.055.31.055.31a.673.673,0,0,1,.5.586s.375.152.066.6C439.268,385.738,437.024,384.923,437.024,384.923Z" transform="translate(-436.844 -383.238)" fill="#d9ca9c"/>
        <path id="Path_111" data-name="Path 111" d="M440.167,402.624a.266.266,0,0,1-.261.242h-2.434a.266.266,0,0,1-.261-.242l-.008-.106a.222.222,0,0,1,.224-.242h2.522a.222.222,0,0,1,.224.242Z" transform="translate(-437.172 -400.647)" fill="#e59446"/>
        <path id="Path_112" data-name="Path 112" d="M441.777,408.487a.132.132,0,0,1-.129.121H439.58a.134.134,0,0,1-.131-.121l-.154-1.955a.111.111,0,0,1,.112-.121h2.39a.112.112,0,0,1,.113.121Z" transform="translate(-439.085 -404.428)" fill="#e59446"/>
        <rect id="Rectangle_28" data-name="Rectangle 28" width="2.576" height="0.199" transform="translate(0.237 2.211)" fill="#d98229"/>
        <path id="Path_113" data-name="Path 113" d="M448.767,393.482a.156.156,0,1,1-.156-.156A.156.156,0,0,1,448.767,393.482Z" transform="translate(-447.461 -392.463)" fill="#82bb84"/>
        <path id="Path_114" data-name="Path 114" d="M442.477,396.928a.109.109,0,1,1-.109-.109A.109.109,0,0,1,442.477,396.928Z" transform="translate(-441.797 -395.657)" fill="#e97b5e"/>
        <path id="Path_115" data-name="Path 115" d="M453.912,388.67a.109.109,0,1,1-.109-.109A.109.109,0,0,1,453.912,388.67Z" transform="translate(-452.253 -388.106)" fill="#f8ad38"/>
        <path id="Path_116" data-name="Path 116" d="M455.342,396.453a.109.109,0,1,1-.109-.109A.109.109,0,0,1,455.342,396.453Z" transform="translate(-453.56 -395.222)" fill="#fff"/>
        <path id="Path_117" data-name="Path 117" d="M462.806,394.864a.109.109,0,1,1-.109-.109A.109.109,0,0,1,462.806,394.864Z" transform="translate(-460.386 -393.769)" fill="#769e72"/>
        <path id="Path_118" data-name="Path 118" d="M442.815,410.762s.109,1.346.149,1.346.054-1.359.054-1.359Z" transform="translate(-442.304 -408.394)" fill="#d98229"/>
        <path id="Path_119" data-name="Path 119" d="M448.26,410.8s.088,1.339.129,1.339.075-1.352.075-1.352Z" transform="translate(-447.283 -408.431)" fill="#d98229"/>
        <path id="Path_120" data-name="Path 120" d="M453.7,410.882s.048,1.325.088,1.325.116-1.339.116-1.339Z" transform="translate(-452.261 -408.504)" fill="#d98229"/>
        <path id="Path_121" data-name="Path 121" d="M459.148,410.862s.02,1.328.061,1.328.143-1.342.143-1.342Z" transform="translate(-457.239 -408.485)" fill="#d98229"/>
        <path id="Path_122" data-name="Path 122" d="M464.593,410.941s-.005,1.315.035,1.315.168-1.329.168-1.329Z" transform="translate(-462.218 -408.558)" fill="#d98229"/>
      </g>
      <g id="Group_28" data-name="Group 28" transform="translate(77.633 65.755)">
        <rect id="Rectangle_29" data-name="Rectangle 29" width="2.094" height="0.386" transform="translate(0.481 2.197) rotate(-88.004)" fill="#e59446"/>
        <rect id="Rectangle_30" data-name="Rectangle 30" width="0.386" height="2.094" transform="matrix(0.998, -0.064, 0.064, 0.998, 1.407, 0.025)" fill="#e59446"/>
        <rect id="Rectangle_31" data-name="Rectangle 31" width="2.094" height="0.386" transform="translate(2.065 2.139) rotate(-84.127)" fill="#e59446"/>
        <rect id="Rectangle_32" data-name="Rectangle 32" width="2.094" height="0.386" transform="matrix(0.034, -0.999, 0.999, 0.034, 1.039, 2.755)" fill="#e59446"/>
        <rect id="Rectangle_33" data-name="Rectangle 33" width="0.386" height="1.674" transform="translate(0.133 0.312) rotate(-6.445)" fill="#f8ad38"/>
        <rect id="Rectangle_34" data-name="Rectangle 34" width="1.674" height="0.386" transform="matrix(0.112, -0.994, 0.994, 0.112, 0.651, 2.136)" fill="#f8ad38"/>
        <rect id="Rectangle_35" data-name="Rectangle 35" width="1.674" height="0.386" transform="matrix(0.034, -0.999, 0.999, 0.034, 1.791, 1.917)" fill="#f8ad38"/>
        <rect id="Rectangle_36" data-name="Rectangle 36" width="0.386" height="1.674" transform="translate(1.324 0.518) rotate(-2.591)" fill="#f8ad38"/>
        <rect id="Rectangle_37" data-name="Rectangle 37" width="1.674" height="0.386" transform="translate(2.297 2.147) rotate(-85.782)" fill="#f8ad38"/>
        <g id="Group_27" data-name="Group 27" transform="translate(0 1.386)">
          <path id="Path_123" data-name="Path 123" d="M466.685,282.364a1.551,1.551,0,0,1-2.14,0h-.363l.193,2.89H466.9l.145-2.89Z" transform="translate(-464.182 -282.364)" fill="#cb4508"/>
        </g>
        <path id="Path_124" data-name="Path 124" d="M487.863,285.183a10.68,10.68,0,0,0,.638-2.9l.2.007-.145,2.89Z" transform="translate(-485.837 -280.907)" fill="#983406"/>
        <path id="Path_125" data-name="Path 125" d="M474.533,297.385c0,.175-.3.316-.66.316s-.66-.142-.66-.316.3-.316.66-.316S474.533,297.211,474.533,297.385Z" transform="translate(-472.44 -294.425)" fill="#d56a39"/>
        <path id="Path_126" data-name="Path 126" d="M472.033,296.309c-.462,0-.824-.2-.824-.46s.362-.46.824-.46.824.2.824.46S472.495,296.309,472.033,296.309Zm0-.861c-.421,0-.764.179-.764.4s.343.4.764.4.764-.179.764-.4S472.454,295.449,472.033,295.449Z" transform="translate(-470.608 -292.889)" fill="#d56a39"/>
      </g>
      <g id="Group_30" data-name="Group 30" transform="translate(50.38 59.347)">
        <rect id="Rectangle_38" data-name="Rectangle 38" width="2.242" height="0.414" transform="translate(0.515 2.352) rotate(-88.008)" fill="#e59446"/>
        <rect id="Rectangle_39" data-name="Rectangle 39" width="0.414" height="2.242" transform="translate(1.507 0.026) rotate(-3.661)" fill="#e59446"/>
        <rect id="Rectangle_40" data-name="Rectangle 40" width="2.242" height="0.414" transform="translate(2.211 2.29) rotate(-84.12)" fill="#e59446"/>
        <rect id="Rectangle_41" data-name="Rectangle 41" width="2.242" height="0.414" transform="matrix(0.035, -0.999, 0.999, 0.035, 1.113, 2.949)" fill="#e59446"/>
        <rect id="Rectangle_42" data-name="Rectangle 42" width="0.414" height="1.793" transform="translate(0.143 0.334) rotate(-6.447)" fill="#f8ad38"/>
        <rect id="Rectangle_43" data-name="Rectangle 43" width="1.793" height="0.414" transform="translate(0.697 2.287) rotate(-83.543)" fill="#f8ad38"/>
        <rect id="Rectangle_44" data-name="Rectangle 44" width="1.793" height="0.414" transform="matrix(0.035, -0.999, 0.999, 0.035, 1.918, 2.052)" fill="#f8ad38"/>
        <rect id="Rectangle_45" data-name="Rectangle 45" width="0.414" height="1.793" transform="matrix(0.999, -0.045, 0.045, 0.999, 1.417, 0.555)" fill="#f8ad38"/>
        <rect id="Rectangle_46" data-name="Rectangle 46" width="1.793" height="0.414" transform="translate(2.46 2.298) rotate(-85.788)" fill="#f8ad38"/>
        <g id="Group_29" data-name="Group 29" transform="translate(0 1.484)">
          <path id="Path_127" data-name="Path 127" d="M148.4,208.63a1.661,1.661,0,0,1-2.292,0h-.389l.206,3.094h2.708l.155-3.094Z" transform="translate(-145.717 -208.63)" fill="#cb4508"/>
        </g>
        <path id="Path_128" data-name="Path 128" d="M171.071,211.648a11.436,11.436,0,0,0,.683-3.1l.216.007-.155,3.094Z" transform="translate(-168.901 -207.07)" fill="#983406"/>
        <path id="Path_129" data-name="Path 129" d="M156.8,224.713c0,.187-.316.339-.707.339s-.707-.152-.707-.339.316-.339.707-.339S156.8,224.526,156.8,224.713Z" transform="translate(-154.559 -221.543)" fill="#d56a39"/>
        <path id="Path_130" data-name="Path 130" d="M154.122,223.56c-.495,0-.882-.216-.882-.493s.387-.493.882-.493.882.216.882.493S154.617,223.56,154.122,223.56Zm0-.921c-.451,0-.818.192-.818.429s.367.429.818.429.818-.192.818-.429S154.573,222.639,154.122,222.639Z" transform="translate(-152.596 -219.898)" fill="#d56a39"/>
      </g>
      <g id="Group_32" data-name="Group 32" transform="translate(66.917 52.326)">
        <rect id="Rectangle_47" data-name="Rectangle 47" width="1.647" height="0.304" transform="translate(0.379 1.728) rotate(-88.031)" fill="#e59446"/>
        <rect id="Rectangle_48" data-name="Rectangle 48" width="0.304" height="1.647" transform="translate(1.107 0.019) rotate(-3.666)" fill="#e59446"/>
        <rect id="Rectangle_49" data-name="Rectangle 49" width="1.647" height="0.304" transform="translate(1.625 1.682) rotate(-84.121)" fill="#e59446"/>
        <rect id="Rectangle_50" data-name="Rectangle 50" width="1.647" height="0.304" transform="translate(0.818 2.167) rotate(-88.032)" fill="#e59446"/>
        <rect id="Rectangle_51" data-name="Rectangle 51" width="0.304" height="1.317" transform="matrix(0.994, -0.112, 0.112, 0.994, 0.105, 0.245)" fill="#f8ad38"/>
        <rect id="Rectangle_52" data-name="Rectangle 52" width="1.317" height="0.304" transform="translate(0.512 1.68) rotate(-83.535)" fill="#f8ad38"/>
        <rect id="Rectangle_53" data-name="Rectangle 53" width="1.317" height="0.304" transform="translate(1.409 1.508) rotate(-88.007)" fill="#f8ad38"/>
        <rect id="Rectangle_54" data-name="Rectangle 54" width="0.304" height="1.317" transform="matrix(0.999, -0.045, 0.045, 0.999, 1.042, 0.408)" fill="#f8ad38"/>
        <rect id="Rectangle_55" data-name="Rectangle 55" width="1.317" height="0.304" transform="translate(1.807 1.689) rotate(-85.787)" fill="#f8ad38"/>
        <g id="Group_31" data-name="Group 31" transform="translate(0 1.09)">
          <path id="Path_131" data-name="Path 131" d="M340.927,121.984a1.22,1.22,0,0,1-1.684,0h-.286l.152,2.274h1.99l.114-2.274Z" transform="translate(-338.958 -121.984)" fill="#769e72"/>
        </g>
        <path id="Path_132" data-name="Path 132" d="M357.586,124.2a8.4,8.4,0,0,0,.5-2.279l.159.005-.114,2.274Z" transform="translate(-355.992 -120.837)" fill="#597756"/>
        <path id="Path_133" data-name="Path 133" d="M347.1,133.8c0,.137-.233.249-.519.249s-.519-.111-.519-.249.233-.249.519-.249S347.1,133.662,347.1,133.8Z" transform="translate(-345.454 -131.471)" fill="#597756"/>
        <path id="Path_134" data-name="Path 134" d="M345.134,132.954c-.363,0-.648-.159-.648-.362s.285-.362.648-.362.648.159.648.362S345.5,132.954,345.134,132.954Zm0-.677c-.331,0-.6.141-.6.315s.27.315.6.315.6-.141.6-.315S345.466,132.277,345.134,132.277Z" transform="translate(-344.013 -130.263)" fill="#597756"/>
      </g>
      <g id="Group_35" data-name="Group 35" transform="translate(72.523 59.894)">
        <g id="Group_33" data-name="Group 33" transform="translate(0.131 2.2)">
          <path id="Path_135" data-name="Path 135" d="M408.065,223.386H406s-.037.595.2.814a10.143,10.143,0,0,0,3.726,0c.237-.219.2-.814.2-.814Z" transform="translate(-406 -223.386)" fill="#f8ad38"/>
        </g>
        <path id="Path_136" data-name="Path 136" d="M409.118,216.791a.22.22,0,0,1-.243.185H405.1a.192.192,0,1,1,0-.37h3.776A.22.22,0,0,1,409.118,216.791Z" transform="translate(-404.824 -214.987)" fill="#e97b5e"/>
        <path id="Path_137" data-name="Path 137" d="M408.8,220.687c0,.1-.164.186-.364.186h-3.6c-.2,0-.364-.084-.364-.186s.164-.186.364-.186h3.6C408.636,220.5,408.8,220.585,408.8,220.687Z" transform="translate(-404.473 -218.548)" fill="#cd474a"/>
        <path id="Path_138" data-name="Path 138" d="M405.393,214.691s-.092.228-.047.284.162-.105.206-.127.08.036.11.051.029.139.044.161.058-.022.058-.022.161-.131.212-.124l.088.036.1-.022a.51.51,0,0,0,.087.073c.022.007.168-.066.2-.066a.339.339,0,0,1,.117.058s.022.055.059.058.139-.124.19-.117.069.051.1.08.161-.073.219-.066.226.066.263.073.241-.095.3-.088.1.073.139.08.08-.051.117-.058a.219.219,0,0,1,.117.037,1.456,1.456,0,0,0,.212.029.809.809,0,0,1,.256-.08c.051.015.168.036.2.051a1.162,1.162,0,0,0,.2.014.271.271,0,0,1,.226-.007c.095.029.109-.073.2-.058s.124.073.175.066-.015-.292-.066-.343Z" transform="translate(-405.261 -213.212)" fill="#82bb84"/>
        <path id="Path_139" data-name="Path 139" d="M424.039,214.2h2.426a1.475,1.475,0,0,1-1.036.784S425.495,214.512,424.039,214.2Z" transform="translate(-422.365 -212.782)" fill="#fbce88"/>
        <g id="Group_34" data-name="Group 34" transform="translate(0.114)">
          <path id="Path_140" data-name="Path 140" d="M407.887,199.162h-2.063a1.2,1.2,0,0,1,.352-1.064c.4-.433,1.512-.415,1.711-.415s1.313-.018,1.71.415a1.2,1.2,0,0,1,.352,1.064Z" transform="translate(-405.806 -197.683)" fill="#f8ad38"/>
        </g>
        <path id="Path_141" data-name="Path 141" d="M411.944,210.572a.088.088,0,1,1-.088-.088A.088.088,0,0,1,411.944,210.572Z" transform="translate(-411.145 -209.389)" fill="#fbce88"/>
        <path id="Path_142" data-name="Path 142" d="M415.977,206.124a.12.12,0,1,1-.12-.12A.12.12,0,0,1,415.977,206.124Z" transform="translate(-414.772 -205.292)" fill="#fbce88"/>
        <path id="Path_143" data-name="Path 143" d="M421.349,209.13a.055.055,0,1,1-.055-.055A.055.055,0,0,1,421.349,209.13Z" transform="translate(-419.804 -208.1)" fill="#fbce88"/>
        <path id="Path_144" data-name="Path 144" d="M425.61,202.685a.137.137,0,1,1-.137-.137A.137.137,0,0,1,425.61,202.685Z" transform="translate(-423.551 -202.132)" fill="#fbce88"/>
        <path id="Path_145" data-name="Path 145" d="M432.818,206.353a.093.093,0,1,1-.093-.093A.093.093,0,0,1,432.818,206.353Z" transform="translate(-430.222 -205.526)" fill="#fbce88"/>
        <path id="Path_146" data-name="Path 146" d="M437.382,204.283a.071.071,0,1,1-.071-.071A.071.071,0,0,1,437.382,204.283Z" transform="translate(-434.436 -203.653)" fill="#fbce88"/>
        <path id="Path_147" data-name="Path 147" d="M438.378,210.221a.12.12,0,1,1-.12-.12A.121.121,0,0,1,438.378,210.221Z" transform="translate(-435.256 -209.037)" fill="#fbce88"/>
        <path id="Path_148" data-name="Path 148" d="M427.626,209.2a.12.12,0,1,1-.12-.121A.121.121,0,0,1,427.626,209.2Z" transform="translate(-425.424 -208.1)" fill="#fbce88"/>
        <path id="Path_149" data-name="Path 149" d="M442.992,207.983a.06.06,0,1,1-.06-.06A.06.06,0,0,1,442.992,207.983Z" transform="translate(-439.586 -207.047)" fill="#fbce88"/>
        <path id="Path_150" data-name="Path 150" d="M447.4,207.372a.088.088,0,1,1-.088-.088A.088.088,0,0,1,447.4,207.372Z" transform="translate(-443.566 -206.462)" fill="#fbce88"/>
        <path id="Path_151" data-name="Path 151" d="M444.764,204.9a.049.049,0,1,1-.049-.049A.049.049,0,0,1,444.764,204.9Z" transform="translate(-441.226 -204.239)" fill="#fbce88"/>
        <path id="Path_152" data-name="Path 152" d="M431.421,200.726a.1.1,0,1,1-.1-.1A.1.1,0,0,1,431.421,200.726Z" transform="translate(-428.935 -200.376)" fill="#fbce88"/>
      </g>
      <g id="Group_38" data-name="Group 38" transform="translate(65.854 73.978)">
        <g id="Group_36" data-name="Group 36" transform="translate(0.136 2.294)">
          <path id="Path_153" data-name="Path 153" d="M330.286,389.069h-2.151s-.039.62.209.848a10.58,10.58,0,0,0,3.885,0c.247-.228.209-.848.209-.848Z" transform="translate(-328.132 -389.069)" fill="#f8ad38"/>
        </g>
        <path id="Path_154" data-name="Path 154" d="M331.383,382.192a.223.223,0,0,1-.243.193h-3.958a.2.2,0,1,1,0-.386h3.958A.223.223,0,0,1,331.383,382.192Z" transform="translate(-326.906 -380.31)" fill="#e97b5e"/>
        <path id="Path_155" data-name="Path 155" d="M331.052,386.254c0,.107-.164.194-.364.194H326.9c-.2,0-.364-.087-.364-.194s.164-.194.364-.194h3.784C330.888,386.06,331.052,386.147,331.052,386.254Z" transform="translate(-326.54 -384.024)" fill="#cd474a"/>
        <path id="Path_156" data-name="Path 156" d="M327.5,380s-.1.238-.049.3.169-.11.215-.132.084.038.114.053.03.145.046.168.061-.023.061-.023.168-.137.221-.129l.091.038.106-.023a.533.533,0,0,0,.091.076c.023.008.175-.069.213-.069a.355.355,0,0,1,.122.061s.023.057.061.061.145-.129.2-.122.072.053.107.084.167-.076.228-.068.236.068.274.076.251-.1.312-.091.107.076.144.084.084-.053.122-.061a.231.231,0,0,1,.122.038,1.506,1.506,0,0,0,.221.031.844.844,0,0,1,.267-.084c.053.015.175.038.213.053a1.2,1.2,0,0,0,.213.015.282.282,0,0,1,.236-.008c.1.03.114-.076.213-.061s.129.076.183.069-.015-.3-.069-.358Z" transform="translate(-327.362 -378.458)" fill="#82bb84"/>
        <path id="Path_157" data-name="Path 157" d="M346.944,379.484h2.53a1.539,1.539,0,0,1-1.08.818S348.462,379.815,346.944,379.484Z" transform="translate(-345.198 -378.01)" fill="#fbce88"/>
        <g id="Group_37" data-name="Group 37" transform="translate(0.119 0)">
          <path id="Path_158" data-name="Path 158" d="M330.1,363.806h-2.151a1.255,1.255,0,0,1,.367-1.11c.414-.451,1.577-.433,1.784-.433s1.37-.019,1.784.433a1.255,1.255,0,0,1,.367,1.11Z" transform="translate(-327.93 -362.263)" fill="#f8ad38"/>
        </g>
        <path id="Path_159" data-name="Path 159" d="M334.331,375.7a.091.091,0,1,1-.091-.091A.091.091,0,0,1,334.331,375.7Z" transform="translate(-333.497 -374.47)" fill="#fbce88"/>
        <path id="Path_160" data-name="Path 160" d="M338.536,371.067a.126.126,0,1,1-.126-.126A.126.126,0,0,1,338.536,371.067Z" transform="translate(-337.28 -370.198)" fill="#fbce88"/>
        <path id="Path_161" data-name="Path 161" d="M344.139,374.2a.057.057,0,1,1-.057-.057A.057.057,0,0,1,344.139,374.2Z" transform="translate(-342.529 -373.128)" fill="#fbce88"/>
        <path id="Path_162" data-name="Path 162" d="M348.582,367.481a.143.143,0,1,1-.143-.143A.143.143,0,0,1,348.582,367.481Z" transform="translate(-346.435 -366.904)" fill="#fbce88"/>
        <path id="Path_163" data-name="Path 163" d="M356.1,371.306a.1.1,0,1,1-.1-.1A.1.1,0,0,1,356.1,371.306Z" transform="translate(-353.393 -370.443)" fill="#fbce88"/>
        <path id="Path_164" data-name="Path 164" d="M360.859,369.146a.074.074,0,1,1-.074-.074A.074.074,0,0,1,360.859,369.146Z" transform="translate(-357.787 -368.489)" fill="#fbce88"/>
        <path id="Path_165" data-name="Path 165" d="M361.9,375.339a.126.126,0,1,1-.126-.126A.126.126,0,0,1,361.9,375.339Z" transform="translate(-358.641 -374.105)" fill="#fbce88"/>
        <path id="Path_166" data-name="Path 166" d="M350.685,374.271a.126.126,0,1,1-.126-.126A.126.126,0,0,1,350.685,374.271Z" transform="translate(-348.389 -373.128)" fill="#fbce88"/>
        <path id="Path_167" data-name="Path 167" d="M366.711,373.005a.063.063,0,1,1-.063-.063A.063.063,0,0,1,366.711,373.005Z" transform="translate(-363.158 -372.028)" fill="#fbce88"/>
        <path id="Path_168" data-name="Path 168" d="M371.306,372.367a.091.091,0,1,1-.091-.091A.091.091,0,0,1,371.306,372.367Z" transform="translate(-367.308 -371.419)" fill="#fbce88"/>
        <path id="Path_169" data-name="Path 169" d="M368.556,369.792a.051.051,0,1,1-.052-.051A.051.051,0,0,1,368.556,369.792Z" transform="translate(-364.866 -369.101)" fill="#fbce88"/>
        <path id="Path_170" data-name="Path 170" d="M354.643,365.439a.1.1,0,1,1-.1-.1A.1.1,0,0,1,354.643,365.439Z" transform="translate(-352.05 -365.073)" fill="#fbce88"/>
      </g>
      <g id="Group_41" data-name="Group 41" transform="translate(62.285 60.889)">
        <g id="Group_39" data-name="Group 39" transform="translate(0.127 2.248)">
          <path id="Path_171" data-name="Path 171" d="M288.326,235.589h-2.011a2.562,2.562,0,0,0,.435,1.59,2.337,2.337,0,0,0,3.152,0,2.56,2.56,0,0,0,.435-1.59Z" transform="translate(-286.311 -235.589)" fill="#524656"/>
        </g>
        <path id="Path_172" data-name="Path 172" d="M328.662,240.773a.661.661,0,1,1,.661-.661A.662.662,0,0,1,328.662,240.773Zm0-.978a.317.317,0,1,0,.317.317A.317.317,0,0,0,328.662,239.8Z" transform="translate(-324.307 -236.872)" fill="#524656"/>
        <rect id="Rectangle_56" data-name="Rectangle 56" width="2.098" height="0.328" transform="translate(1.091 4.643)" fill="#e97b5e"/>
        <g id="Group_40" data-name="Group 40" transform="translate(0 4.301)">
          <path id="Path_173" data-name="Path 173" d="M286.975,259.58h-2.144s-.081.162.686.374a15.377,15.377,0,0,0,2.915,0c.767-.213.686-.374.686-.374Z" transform="translate(-284.828 -259.58)" fill="#e59446"/>
        </g>
        <path id="Path_174" data-name="Path 174" d="M301.691,209.315l.018.016.022.02.028.03a.494.494,0,0,1,.065.1.51.51,0,0,1,.049.154.626.626,0,0,1-.005.2.987.987,0,0,1-.064.209,2.853,2.853,0,0,1-.216.39c-.037.061-.072.117-.1.17a.51.51,0,0,0-.028.431,1.206,1.206,0,0,0,.094.214c.028.051.047.079.047.079a.545.545,0,0,1-.087-.038.8.8,0,0,1-.211-.159.694.694,0,0,1-.113-.159.609.609,0,0,1-.066-.231.589.589,0,0,1,0-.136c0-.011,0-.023.006-.035l.007-.033c.005-.022.012-.043.019-.064a1.136,1.136,0,0,1,.112-.233,4.321,4.321,0,0,1,.258-.349.9.9,0,0,0,.155-.265.484.484,0,0,0,.022-.119.592.592,0,0,0,0-.1l-.006-.038-.006-.028Z" transform="translate(-299.732 -209.315)" fill="#d9ca9c"/>
        <path id="Path_175" data-name="Path 175" d="M310.649,212.339h.017a.237.237,0,0,1,.049.007.261.261,0,0,1,.076.032.254.254,0,0,1,.085.087.318.318,0,0,1,.041.15.479.479,0,0,1-.026.165.688.688,0,0,1-.073.152.829.829,0,0,1-.049.07c-.013.018-.026.036-.04.054-.054.072-.1.14-.141.205a.908.908,0,0,0-.088.19.717.717,0,0,0-.032.153.458.458,0,0,0,0,.062.254.254,0,0,1-.045-.048.47.47,0,0,1-.08-.166.612.612,0,0,1-.007-.28.775.775,0,0,1,.14-.307c.018-.023.037-.046.055-.067l.044-.048c.029-.031.055-.06.077-.088a.52.52,0,0,0,.052-.077.174.174,0,0,0-.014-.2.376.376,0,0,0-.027-.036Z" transform="translate(-308.139 -212.08)" fill="#d9ca9c"/>
      </g>
      <g id="Group_45" data-name="Group 45" transform="translate(62.328 51.191)">
        <g id="Group_42" data-name="Group 42" transform="translate(2.136 4.108)">
          <path id="Path_176" data-name="Path 176" d="M310.952,143.99c0,.323,0,1.211-.017,1.309-.022.14-.2.213-.423.283-.1.03-.219.083-.213.123a12.956,12.956,0,0,0,1.515,0c.006-.04-.118-.093-.213-.123-.224-.07-.4-.143-.423-.283-.015-.1-.017-.986-.017-1.309Z" transform="translate(-310.298 -143.99)" fill="#524656"/>
        </g>
        <g id="Group_43" data-name="Group 43" transform="translate(1.935 1.799)">
          <path id="Path_177" data-name="Path 177" d="M308.91,119.428a.962.962,0,0,1-.951-.914,3.44,3.44,0,0,1,.385-1.5h1.131a3.442,3.442,0,0,1,.385,1.5A.962.962,0,0,1,308.91,119.428Z" transform="translate(-307.951 -117.009)" fill="#524656"/>
        </g>
        <path id="Path_178" data-name="Path 178" d="M310.76,128.308h1.353a1.682,1.682,0,0,1,.046.608.647.647,0,0,1-.715.615C311.159,129.537,310.536,129.351,310.76,128.308Z" transform="translate(-308.541 -125.542)" fill="#cd474a"/>
        <g id="Group_44" data-name="Group 44" transform="translate(0.014 0.617)">
          <path id="Path_179" data-name="Path 179" d="M286.28,103.2h-.259a3.085,3.085,0,0,1-.06.757c-.08.279-.458.518-.458.876v3.425s.08.159.2.159h1.155c.119,0,.2-.159.2-.159v-3.425c0-.358-.378-.6-.458-.876a3.085,3.085,0,0,1-.06-.757Z" transform="translate(-285.503 -103.199)" fill="#524656"/>
        </g>
        <rect id="Rectangle_57" data-name="Rectangle 57" width="0.617" height="1.195" transform="translate(0.472 0)" fill="#cd474a"/>
        <rect id="Rectangle_58" data-name="Rectangle 58" width="1.006" height="1.777" transform="translate(0 2.833)" fill="#dadada"/>
        <rect id="Rectangle_59" data-name="Rectangle 59" width="0.704" height="0.352" transform="translate(0 3.99)" fill="#f8ad38"/>
      </g>
      <g id="Group_49" data-name="Group 49" transform="translate(64.014 77.218)">
        <g id="Group_46" data-name="Group 46" transform="translate(1.992 3.83)">
          <path id="Path_180" data-name="Path 180" d="M328.915,444.884c0,.3,0,1.129-.016,1.22-.021.13-.186.2-.395.264-.089.028-.2.078-.2.115a12.042,12.042,0,0,0,1.412,0c.005-.037-.11-.087-.2-.115-.209-.066-.374-.133-.395-.264-.014-.091-.016-.919-.016-1.22Z" transform="translate(-328.305 -444.884)" fill="#524656"/>
        </g>
        <g id="Group_47" data-name="Group 47" transform="translate(1.804 1.677)">
          <path id="Path_181" data-name="Path 181" d="M327.011,421.983a.9.9,0,0,1-.886-.853,3.207,3.207,0,0,1,.359-1.4h1.055a3.207,3.207,0,0,1,.359,1.4A.9.9,0,0,1,327.011,421.983Z" transform="translate(-326.118 -419.728)" fill="#524656"/>
        </g>
        <path id="Path_182" data-name="Path 182" d="M328.737,430.263H330a1.569,1.569,0,0,1,.043.567.6.6,0,0,1-.667.573C329.109,431.409,328.527,431.235,328.737,430.263Z" transform="translate(-326.667 -427.684)" fill="#cd474a"/>
        <g id="Group_48" data-name="Group 48" transform="translate(0.013 0.576)">
          <path id="Path_183" data-name="Path 183" d="M305.913,406.854h-.241a2.877,2.877,0,0,1-.056.705c-.074.26-.427.483-.427.817v3.193s.074.149.186.149h1.077c.111,0,.186-.149.186-.149v-3.193c0-.334-.353-.557-.427-.817a2.877,2.877,0,0,1-.056-.705Z" transform="translate(-305.189 -406.854)" fill="#524656"/>
        </g>
        <rect id="Rectangle_60" data-name="Rectangle 60" width="0.575" height="1.114" transform="translate(0.44)" fill="#cd474a"/>
        <rect id="Rectangle_61" data-name="Rectangle 61" width="0.938" height="1.657" transform="translate(0 2.642)" fill="#dadada"/>
        <rect id="Rectangle_62" data-name="Rectangle 62" width="0.656" height="0.328" transform="translate(0 3.72)" fill="#f8ad38"/>
      </g>
      <g id="Group_53" data-name="Group 53" transform="translate(74.349 48.781)">
        <g id="Group_50" data-name="Group 50" transform="translate(1.976 3.801)">
          <path id="Path_184" data-name="Path 184" d="M449.508,112.235c0,.3,0,1.12-.016,1.211-.02.129-.184.2-.392.262-.088.028-.2.077-.2.114a11.967,11.967,0,0,0,1.4,0c.005-.037-.109-.086-.2-.114-.207-.065-.371-.132-.392-.262-.014-.091-.016-.912-.016-1.211Z" transform="translate(-448.903 -112.235)" fill="#deddcc"/>
        </g>
        <g id="Group_51" data-name="Group 51" transform="translate(1.791 1.665)">
          <path id="Path_185" data-name="Path 185" d="M447.62,89.508a.89.89,0,0,1-.88-.846,3.183,3.183,0,0,1,.356-1.392h1.047a3.185,3.185,0,0,1,.356,1.392A.89.89,0,0,1,447.62,89.508Z" transform="translate(-446.733 -87.27)" fill="#deddcc"/>
        </g>
        <path id="Path_186" data-name="Path 186" d="M449.333,97.724h1.252a1.56,1.56,0,0,1,.043.563.6.6,0,0,1-.662.569C449.7,98.861,449.125,98.689,449.333,97.724Z" transform="translate(-447.279 -95.165)" fill="#f8ad38"/>
        <g id="Group_52" data-name="Group 52" transform="translate(0.013 0.571)">
          <path id="Path_187" data-name="Path 187" d="M426.681,74.493h-.24a2.851,2.851,0,0,1-.055.7c-.074.258-.424.479-.424.811v3.169s.074.148.184.148h1.069c.11,0,.184-.148.184-.148V76c0-.332-.35-.553-.424-.811a2.851,2.851,0,0,1-.055-.7Z" transform="translate(-425.963 -74.493)" fill="#82bb84"/>
        </g>
        <rect id="Rectangle_63" data-name="Rectangle 63" width="0.571" height="1.105" transform="translate(0.437)" fill="#756b78"/>
        <rect id="Rectangle_64" data-name="Rectangle 64" width="0.931" height="1.644" transform="translate(0 2.622)" fill="#deddcc"/>
        <rect id="Rectangle_65" data-name="Rectangle 65" width="0.651" height="0.326" transform="translate(0 3.692)" fill="#cb4508"/>
      </g>
      <g id="Group_58" data-name="Group 58" transform="translate(65.71 56.473)">
        <g id="Group_56" data-name="Group 56" transform="translate(0 0)">
          <path id="Path_188" data-name="Path 188" d="M331.069,183.261a1.1,1.1,0,0,0-.689.414c-.047-.218-.086-.354-.086-.354h-4.183s-.044.154-.095.4a1.134,1.134,0,0,0-.723-.456c-.516-.052-.516.232-.31.387.165.124.722.188.964.446-.119.772-.164,1.912.473,2.4h3.563c.647-.5.591-1.666.468-2.439.258-.229.77-.292.927-.41C331.585,183.493,331.585,183.209,331.069,183.261Z" transform="translate(-324.855 -181.068)" fill="#e97b5e"/>
          <g id="Group_55" data-name="Group 55" transform="translate(1.242 0.335)">
            <g id="Group_54" data-name="Group 54" transform="translate(0 0.493)">
              <path id="Path_189" data-name="Path 189" d="M341.573,167.426c-1.089-.146-2.032.081-2.205.512l4.192.6C343.506,168.077,342.662,167.572,341.573,167.426Z" transform="translate(-339.368 -167.381)" fill="#cd474a"/>
            </g>
            <path id="Path_190" data-name="Path 190" d="M362.009,161.9c-.016.106-.252.157-.527.115s-.485-.162-.468-.268.252-.157.527-.115S362.025,161.8,362.009,161.9Z" transform="translate(-359.16 -161.618)" fill="#cd474a"/>
          </g>
          <path id="Path_191" data-name="Path 191" d="M332.271,159.643s-.667-.29-.609-.753.637-.724.406-1.188a.9.9,0,0,1,0,1.014A.785.785,0,0,0,332.271,159.643Z" transform="translate(-331.077 -157.701)" fill="#a8c5bd"/>
        </g>
        <g id="Group_57" data-name="Group 57" transform="translate(4.392 2.179)">
          <path id="Path_192" data-name="Path 192" d="M377.589,183.973c.258-.229.77-.292.927-.41.207-.155.207-.439-.31-.387a1.1,1.1,0,0,0-.689.414c-.016-.075-.04-.143-.053-.2a7.2,7.2,0,0,1-1.288,3.018h.946C377.768,185.914,377.712,184.745,377.589,183.973Z" transform="translate(-376.176 -183.17)" fill="#d0735f"/>
        </g>
      </g>
      <g id="Group_63" data-name="Group 63" transform="translate(68.758 78.227)">
        <g id="Group_61" data-name="Group 61" transform="translate(0 0)">
          <path id="Path_193" data-name="Path 193" d="M365.215,431.42a.838.838,0,0,0-.525.316c-.036-.166-.066-.27-.066-.27h-3.192s-.034.117-.072.3a.866.866,0,0,0-.552-.348c-.394-.039-.394.177-.237.3.126.095.551.143.736.341-.091.589-.125,1.46.361,1.833h2.719c.494-.38.451-1.272.357-1.861.2-.174.587-.223.707-.313C365.609,431.6,365.609,431.381,365.215,431.42Z" transform="translate(-360.472 -429.747)" fill="#756b78"/>
          <g id="Group_60" data-name="Group 60" transform="translate(0.948 0.256)">
            <g id="Group_59" data-name="Group 59" transform="translate(0 0.376)">
              <path id="Path_194" data-name="Path 194" d="M373.232,419.337c-.831-.111-1.55.062-1.683.391l3.2.458C374.707,419.834,374.063,419.448,373.232,419.337Z" transform="translate(-371.549 -419.303)" fill="#524656"/>
            </g>
            <path id="Path_195" data-name="Path 195" d="M388.826,415.12c-.012.081-.193.12-.4.087s-.37-.124-.357-.2.193-.12.4-.088S388.839,415.04,388.826,415.12Z" transform="translate(-386.653 -414.904)" fill="#524656"/>
          </g>
          <path id="Path_196" data-name="Path 196" d="M366.132,413.4s-.509-.221-.465-.575.487-.553.31-.907a.683.683,0,0,1,0,.774A.6.6,0,0,0,366.132,413.4Z" transform="translate(-365.221 -411.915)" fill="#a8c5bd"/>
        </g>
        <g id="Group_62" data-name="Group 62" transform="translate(3.352 1.663)">
          <path id="Path_197" data-name="Path 197" d="M400.718,431.964c.2-.175.587-.223.707-.313.158-.118.158-.335-.237-.3a.838.838,0,0,0-.525.316c-.012-.057-.031-.109-.041-.15a5.5,5.5,0,0,1-.983,2.3h.722C400.854,433.445,400.811,432.553,400.718,431.964Z" transform="translate(-399.639 -431.351)" fill="#524656"/>
        </g>
      </g>
      <g id="Group_65" data-name="Group 65" transform="translate(76.528 61.633)">
        <path id="Path_198" data-name="Path 198" d="M451.276,246.941v.549l4.041-.493v-.521L454.3,246.2Z" transform="translate(-451.276 -243.785)" fill="#d9ca9c"/>
        <path id="Path_199" data-name="Path 199" d="M451.276,241.843v.55l4.041-.465v-.574L454.3,241Z" transform="translate(-451.276 -239.035)" fill="#fff"/>
        <path id="Path_200" data-name="Path 200" d="M451.276,240.616v.453l4.041-.465v-.477l-1.022-.352Z" transform="translate(-451.276 -237.913)" fill="#592c22"/>
        <path id="Path_201" data-name="Path 201" d="M451.276,235.328v.453l4.041-.481v-.513l-1.022-.3Z" transform="translate(-451.276 -233.077)" fill="#d9ca9c"/>
        <path id="Path_202" data-name="Path 202" d="M451.276,230.095v.157l4.041-.582v-.15l-1.022-.655Z" transform="translate(-451.276 -227.937)" fill="#592c22"/>
        <path id="Path_203" data-name="Path 203" d="M451.276,220.164l2.813-2.158s1.164.582,1.228,1.584Z" transform="translate(-451.276 -218.006)" fill="#d0735f"/>
        <path id="Path_204" data-name="Path 204" d="M469.589,219.715c-.37.133-1.4.328-1.565-.041s.171-.424.267-.451c0,0-.15-.082-.021-.253a.245.245,0,0,1,.26-.109s.314-.376.643-.349c0,0-.123.191.034.239.124.038.349.055.417.164s-.041.232-.041.232S470.143,219.517,469.589,219.715Z" transform="translate(-466.55 -218.467)" fill="#d9ca9c"/>
        <g id="Group_64" data-name="Group 64" transform="translate(2.059 0.432)">
          <path id="Path_205" data-name="Path 205" d="M476.094,223.389a.407.407,0,0,1-.38.422.435.435,0,0,1-.378-.422.33.33,0,0,1,.368-.33A.35.35,0,0,1,476.094,223.389Z" transform="translate(-475.336 -223.059)" fill="#cd474a"/>
        </g>
      </g>
      <g id="Group_67" data-name="Group 67" transform="translate(55.858 68.295)">
        <path id="Path_206" data-name="Path 206" d="M209.729,322.277v.5l3.691-.45v-.476l-.934-.255Z" transform="translate(-209.729 -319.394)" fill="#d9ca9c"/>
        <path id="Path_207" data-name="Path 207" d="M209.729,317.622v.5l3.691-.424v-.524l-.934-.321Z" transform="translate(-209.729 -315.057)" fill="#fff"/>
        <path id="Path_208" data-name="Path 208" d="M209.729,316.5v.413l3.691-.425v-.435l-.934-.321Z" transform="translate(-209.729 -314.03)" fill="#592c22"/>
        <path id="Path_209" data-name="Path 209" d="M209.729,311.669v.413l3.691-.439v-.469l-.934-.273Z" transform="translate(-209.729 -309.613)" fill="#d9ca9c"/>
        <path id="Path_210" data-name="Path 210" d="M209.729,306.889v.144l3.691-.531v-.137l-.934-.6Z" transform="translate(-209.729 -304.918)" fill="#592c22"/>
        <path id="Path_211" data-name="Path 211" d="M209.729,297.821l2.569-1.971s1.063.531,1.122,1.447Z" transform="translate(-209.729 -295.85)" fill="#d0735f"/>
        <path id="Path_212" data-name="Path 212" d="M226.456,297.41c-.338.121-1.28.3-1.43-.037s.156-.387.243-.412c0,0-.137-.075-.019-.231a.223.223,0,0,1,.237-.1s.287-.343.587-.319c0,0-.112.175.031.218.113.035.318.05.381.15s-.037.212-.037.212S226.962,297.229,226.456,297.41Z" transform="translate(-223.68 -296.271)" fill="#d9ca9c"/>
        <g id="Group_66" data-name="Group 66" transform="translate(1.881 0.395)">
          <path id="Path_213" data-name="Path 213" d="M232.4,300.765a.372.372,0,0,1-.347.385.4.4,0,0,1-.345-.385.3.3,0,0,1,.336-.3A.32.32,0,0,1,232.4,300.765Z" transform="translate(-231.705 -300.464)" fill="#cd474a"/>
        </g>
      </g>
      <g id="Group_70" data-name="Group 70" transform="translate(57.661 49.153)">
        <path id="Path_214" data-name="Path 214" d="M235.247,97.521c0,.352-.876.638-1.956.638s-1.956-.286-1.956-.638.876-.638,1.956-.638S235.247,97.168,235.247,97.521Z" transform="translate(-231.289 -94.768)" fill="#769e72"/>
        <path id="Path_215" data-name="Path 215" d="M239.731,98.075c0,.269-.668.487-1.493.487s-1.493-.218-1.493-.487.669-.487,1.493-.487S239.731,97.806,239.731,98.075Z" transform="translate(-236.236 -95.413)" fill="#597756"/>
        <g id="Group_68" data-name="Group 68" transform="translate(0.004 1.003)">
          <path id="Path_216" data-name="Path 216" d="M232.835,83.89a13.323,13.323,0,0,0-2,.234s.322,1.234.664,1.45a2.783,2.783,0,0,0,2.665,0c.343-.216.664-1.45.664-1.45A13.323,13.323,0,0,0,232.835,83.89Z" transform="translate(-230.838 -83.888)" fill="#769e72"/>
        </g>
        <path id="Path_217" data-name="Path 217" d="M234.8,78.82c0,.361-.9.653-2,.653s-2-.292-2-.653.9-.653,2-.653S234.8,78.459,234.8,78.82Z" transform="translate(-230.795 -77.654)" fill="#597756"/>
        <g id="Group_69" data-name="Group 69" transform="translate(0.255 0.9)">
          <path id="Path_218" data-name="Path 218" d="M235.529,82.69c-.966,0-1.749.232-1.749.517a.182.182,0,0,0,.034.1,3.993,3.993,0,0,0,1.7.309,3.864,3.864,0,0,0,1.739-.329.172.172,0,0,0,.022-.082C237.277,82.922,236.495,82.69,235.529,82.69Z" transform="translate(-233.78 -82.69)" fill="#f8ad38"/>
        </g>
        <path id="Path_219" data-name="Path 219" d="M249.352,84.765c0,.171-.437.309-.976.309s-.976-.138-.976-.309.437-.309.976-.309S249.352,84.594,249.352,84.765Z" transform="translate(-245.978 -83.405)" fill="#da9d44"/>
        <path id="Path_220" data-name="Path 220" d="M265.7,73.455s.521-.778.6-.889c.16-.228.4-.476.541-.367.193.145-.215.485-.358.648s-.561.648-.561.648Z" transform="translate(-262.713 -72.172)" fill="#524656"/>
      </g>
      <g id="Group_73" data-name="Group 73" transform="translate(56.63 62.818)">
        <ellipse id="Ellipse_4" data-name="Ellipse 4" cx="2.328" cy="0.759" rx="2.328" ry="0.759" transform="translate(0.055 2.516)" fill="#cb4508"/>
        <path id="Path_221" data-name="Path 221" d="M229.382,262.681c0,.32-.8.58-1.777.58s-1.777-.259-1.777-.58.8-.579,1.777-.579S229.382,262.361,229.382,262.681Z" transform="translate(-225.222 -259.514)" fill="#983406"/>
        <g id="Group_71" data-name="Group 71" transform="translate(0.004 1.193)">
          <path id="Path_222" data-name="Path 222" d="M221.174,245.8a15.852,15.852,0,0,0-2.376.278s.383,1.468.791,1.725a3.311,3.311,0,0,0,3.171,0c.408-.257.791-1.725.791-1.725A15.85,15.85,0,0,0,221.174,245.8Z" transform="translate(-218.798 -245.796)" fill="#cb4508"/>
        </g>
        <ellipse id="Ellipse_5" data-name="Ellipse 5" cx="2.383" cy="0.777" rx="2.383" ry="0.777" transform="translate(0 0.611)" fill="#983406"/>
        <g id="Group_72" data-name="Group 72" transform="translate(0.304 1.071)">
          <path id="Path_223" data-name="Path 223" d="M224.38,244.372c-1.149,0-2.081.276-2.081.615a.216.216,0,0,0,.041.122,4.751,4.751,0,0,0,2.026.368,4.6,4.6,0,0,0,2.069-.392.2.2,0,0,0,.026-.1C226.461,244.648,225.529,244.372,224.38,244.372Z" transform="translate(-222.299 -244.372)" fill="#f8ad38"/>
        </g>
        <path id="Path_224" data-name="Path 224" d="M240.831,246.842c0,.2-.52.368-1.162.368s-1.162-.165-1.162-.368.52-.368,1.162-.368S240.831,246.639,240.831,246.842Z" transform="translate(-236.816 -245.223)" fill="#da9d44"/>
        <path id="Path_225" data-name="Path 225" d="M260.285,233.382s.62-.925.713-1.058c.19-.271.471-.567.644-.437.23.173-.256.578-.426.771s-.667.771-.667.771Z" transform="translate(-256.73 -231.855)" fill="#524656"/>
      </g>
      <g id="Group_76" data-name="Group 76" transform="translate(68.383 46.999)">
        <path id="Path_226" data-name="Path 226" d="M361.611,78.425c0,.437-1.086.791-2.425.791s-2.425-.354-2.425-.791,1.086-.791,2.425-.791S361.611,77.988,361.611,78.425Z" transform="translate(-356.704 -75.012)" fill="#cb4508"/>
        <path id="Path_227" data-name="Path 227" d="M367.17,79.114c0,.333-.829.6-1.851.6s-1.851-.27-1.851-.6.829-.6,1.851-.6S367.17,78.78,367.17,79.114Z" transform="translate(-362.837 -75.813)" fill="#983406"/>
        <g id="Group_74" data-name="Group 74" transform="translate(0.004 1.243)">
          <path id="Path_228" data-name="Path 228" d="M358.62,61.525a16.532,16.532,0,0,0-2.476.29s.4,1.529.824,1.8a3.449,3.449,0,0,0,3.3,0c.425-.268.824-1.8.824-1.8A16.53,16.53,0,0,0,358.62,61.525Z" transform="translate(-356.144 -61.522)" fill="#cb4508"/>
        </g>
        <path id="Path_229" data-name="Path 229" d="M361.057,55.242c0,.447-1.111.81-2.482.81s-2.482-.362-2.482-.81,1.111-.81,2.482-.81S361.057,54.794,361.057,55.242Z" transform="translate(-356.092 -53.796)" fill="#983406"/>
        <g id="Group_75" data-name="Group 75" transform="translate(0.317 1.116)">
          <path id="Path_230" data-name="Path 230" d="M361.959,60.039c-1.2,0-2.168.287-2.168.641a.225.225,0,0,0,.043.127,4.949,4.949,0,0,0,2.111.383,4.791,4.791,0,0,0,2.155-.408.211.211,0,0,0,.027-.1C364.127,60.326,363.156,60.039,361.959,60.039Z" transform="translate(-359.791 -60.039)" fill="#f8ad38"/>
        </g>
        <path id="Path_231" data-name="Path 231" d="M379.1,62.612c0,.212-.542.384-1.211.384s-1.21-.172-1.21-.384.542-.383,1.21-.383S379.1,62.4,379.1,62.612Z" transform="translate(-374.915 -60.926)" fill="#da9d44"/>
        <path id="Path_232" data-name="Path 232" d="M399.364,48.59s.646-.964.743-1.1c.2-.282.491-.59.671-.455.24.18-.266.6-.443.8s-.7.8-.7.8Z" transform="translate(-395.661 -46.999)" fill="#524656"/>
      </g>
      <g id="Group_77" data-name="Group 77" transform="translate(58.577 57.673)">
        <path id="Path_233" data-name="Path 233" d="M245.888,173.894c.006.064.009.128.009.193a2.041,2.041,0,1,1-.9-1.689l.179-.264a2.36,2.36,0,1,0,1.035,1.953c0-.075,0-.15-.011-.223Z" transform="translate(-241.496 -171.727)" fill="#e59446"/>
        <path id="Path_234" data-name="Path 234" d="M248.391,175.81a2.041,2.041,0,1,0,.9,1.689c0-.065,0-.129-.009-.193l-2.032.193Z" transform="translate(-244.887 -175.139)" fill="#f8ad38"/>
        <path id="Path_235" data-name="Path 235" d="M290.4,174.508l.318-.03a2.359,2.359,0,0,0-1.024-1.73l-.179.264A2.039,2.039,0,0,1,290.4,174.508Z" transform="translate(-285.409 -172.661)" fill="#e59446"/>
        <path id="Path_236" data-name="Path 236" d="M277.275,175.838l-1.146,1.689,2.032-.193A2.039,2.039,0,0,0,277.275,175.838Z" transform="translate(-273.165 -175.486)" fill="#f8ad38"/>
        <path id="Path_237" data-name="Path 237" d="M265.393,180.2a.386.386,0,1,1-.386-.386A.386.386,0,0,1,265.393,180.2Z" transform="translate(-262.642 -179.122)" fill="#e97b5e"/>
        <path id="Path_238" data-name="Path 238" d="M280.737,200a.386.386,0,1,1-.386-.386A.386.386,0,0,1,280.737,200Z" transform="translate(-276.673 -197.232)" fill="#e97b5e"/>
        <path id="Path_239" data-name="Path 239" d="M263.781,194.275a.151.151,0,1,1-.151-.151A.151.151,0,0,1,263.781,194.275Z" transform="translate(-261.598 -192.207)" fill="#fff"/>
        <path id="Path_240" data-name="Path 240" d="M266.662,202.221a.217.217,0,1,1-.217-.217A.217.217,0,0,1,266.662,202.221Z" transform="translate(-264.111 -199.413)" fill="#592c22"/>
        <path id="Path_241" data-name="Path 241" d="M250.068,199.627a.164.164,0,1,1-.164-.164A.164.164,0,0,1,250.068,199.627Z" transform="translate(-249.035 -197.09)" fill="#592c22"/>
        <path id="Path_242" data-name="Path 242" d="M259.011,214.6a.151.151,0,1,1-.151-.151A.151.151,0,0,1,259.011,214.6Z" transform="translate(-257.236 -210.791)" fill="#fff"/>
        <path id="Path_243" data-name="Path 243" d="M284.794,185.235a.133.133,0,1,1-.133-.133A.133.133,0,0,1,284.794,185.235Z" transform="translate(-280.846 -183.957)" fill="#fff"/>
        <path id="Path_244" data-name="Path 244" d="M250.776,185.5s-.524.135-.335.441c.117.191.206.082.153-.007s.12-.16.126-.067.053.632.053.632l.339-.06s-.22-.623-.14-.657.033.1.1.115.253-.122.133-.275A.392.392,0,0,0,250.776,185.5Z" transform="translate(-249.638 -184.308)" fill="#fbce88"/>
        <path id="Path_245" data-name="Path 245" d="M265.288,207.966s.448.3.553-.041c.065-.215-.075-.209-.106-.11s-.2.016-.133-.051.439-.458.439-.458l-.27-.215s-.322.577-.4.539.054-.092.02-.151a.173.173,0,0,0-.294.082A.392.392,0,0,0,265.288,207.966Z" transform="translate(-263.07 -204.065)" fill="#fbce88"/>
        <path id="Path_246" data-name="Path 246" d="M288.317,183.05s-.4-.236-.468.063c-.045.186.074.174.1.088s.168-.023.116.037-.35.412-.35.412l.24.169s.245-.507.313-.479-.042.081-.01.13a.147.147,0,0,0,.246-.085C288.521,183.22,288.437,183.138,288.317,183.05Z" transform="translate(-283.756 -182)" fill="#fbce88"/>
        <path id="Path_247" data-name="Path 247" d="M254.243,205.262s-.4-.293-.143-.639a.411.411,0,0,1,.216.349A.574.574,0,0,1,254.243,205.262Z" transform="translate(-252.945 -201.808)" fill="#597756"/>
        <path id="Path_248" data-name="Path 248" d="M278.193,211.2s.055-.49.481-.444a.41.41,0,0,1-.194.362A.575.575,0,0,1,278.193,211.2Z" transform="translate(-275.053 -207.417)" fill="#597756"/>
        <path id="Path_249" data-name="Path 249" d="M256.621,206.154s-.076-.487.347-.555a.411.411,0,0,1-.092.4A.576.576,0,0,1,256.621,206.154Z" transform="translate(-255.322 -202.7)" fill="#597756"/>
        <path id="Path_250" data-name="Path 250" d="M280.256,190.639s-.247.368-.575.161a.375.375,0,0,1,.307-.211A.535.535,0,0,1,280.256,190.639Z" transform="translate(-276.413 -188.975)" fill="#597756"/>
      </g>
      <g id="Group_78" data-name="Group 78" transform="translate(81.319 61.871)">
        <path id="Path_251" data-name="Path 251" d="M510.652,222.467q.007.074.007.149a1.579,1.579,0,1,1-.692-1.307l.139-.2a1.826,1.826,0,1,0,.8,1.511c0-.058,0-.116-.008-.173Z" transform="translate(-507.254 -220.79)" fill="#c2b78a"/>
        <path id="Path_252" data-name="Path 252" d="M512.588,223.949a1.579,1.579,0,1,0,.693,1.307q0-.075-.007-.149l-1.572.149Z" transform="translate(-509.877 -223.43)" fill="#d9ca9c"/>
        <path id="Path_253" data-name="Path 253" d="M545.1,222.942l.246-.023a1.825,1.825,0,0,0-.793-1.339l-.139.2A1.577,1.577,0,0,1,545.1,222.942Z" transform="translate(-541.23 -221.512)" fill="#c2b78a"/>
        <path id="Path_254" data-name="Path 254" d="M534.938,223.972l-.886,1.307,1.572-.149A1.577,1.577,0,0,0,534.938,223.972Z" transform="translate(-531.759 -223.7)" fill="#d9ca9c"/>
        <path id="Path_255" data-name="Path 255" d="M525.743,227.346a.3.3,0,1,1-.3-.3A.3.3,0,0,1,525.743,227.346Z" transform="translate(-523.615 -226.512)" fill="#cb4508"/>
        <path id="Path_256" data-name="Path 256" d="M537.616,242.67a.3.3,0,1,1-.3-.3A.3.3,0,0,1,537.616,242.67Z" transform="translate(-534.472 -240.524)" fill="#cb4508"/>
        <path id="Path_257" data-name="Path 257" d="M524.5,238.237a.117.117,0,1,1-.117-.117A.117.117,0,0,1,524.5,238.237Z" transform="translate(-522.807 -236.637)" fill="#fff"/>
        <path id="Path_258" data-name="Path 258" d="M526.726,244.384a.168.168,0,1,1-.168-.168A.168.168,0,0,1,526.726,244.384Z" transform="translate(-524.751 -242.211)" fill="#592c22"/>
        <path id="Path_259" data-name="Path 259" d="M513.887,242.378a.127.127,0,1,1-.127-.127A.127.127,0,0,1,513.887,242.378Z" transform="translate(-513.087 -240.414)" fill="#592c22"/>
        <path id="Path_260" data-name="Path 260" d="M520.806,253.962a.117.117,0,1,1-.117-.117A.117.117,0,0,1,520.806,253.962Z" transform="translate(-519.433 -251.016)" fill="#fff"/>
        <path id="Path_261" data-name="Path 261" d="M540.756,231.242a.1.1,0,1,1-.1-.1A.1.1,0,0,1,540.756,231.242Z" transform="translate(-537.701 -230.253)" fill="#fff"/>
        <path id="Path_262" data-name="Path 262" d="M514.435,231.445s-.406.1-.259.342c.091.148.16.063.118-.005s.093-.124.1-.051.041.489.041.489l.263-.046s-.17-.482-.108-.508.026.079.077.089.2-.094.1-.213A.3.3,0,0,0,514.435,231.445Z" transform="translate(-513.554 -230.524)" fill="#592c22"/>
        <path id="Path_263" data-name="Path 263" d="M525.662,248.829s.346.235.428-.032c.05-.166-.058-.162-.082-.085s-.154.012-.1-.039.339-.355.339-.355l-.208-.166s-.249.446-.309.417.042-.072.016-.117a.134.134,0,0,0-.228.064A.3.3,0,0,0,525.662,248.829Z" transform="translate(-523.946 -245.811)" fill="#592c22"/>
        <path id="Path_264" data-name="Path 264" d="M543.482,229.55s-.306-.183-.362.048c-.035.144.057.135.074.068s.13-.018.09.028-.271.319-.271.319l.186.131s.189-.392.242-.37-.032.063-.008.1a.114.114,0,0,0,.19-.065C543.64,229.682,543.575,229.619,543.482,229.55Z" transform="translate(-539.953 -228.738)" fill="#592c22"/>
        <path id="Path_265" data-name="Path 265" d="M517.117,246.737s-.306-.227-.111-.494a.317.317,0,0,1,.167.27A.445.445,0,0,1,517.117,246.737Z" transform="translate(-516.112 -244.065)" fill="#597756"/>
        <path id="Path_266" data-name="Path 266" d="M535.647,251.334s.043-.379.373-.343a.318.318,0,0,1-.15.28A.445.445,0,0,1,535.647,251.334Z" transform="translate(-533.217 -248.404)" fill="#597756"/>
        <path id="Path_267" data-name="Path 267" d="M518.956,247.428s-.059-.377.269-.43a.318.318,0,0,1-.071.31A.446.446,0,0,1,518.956,247.428Z" transform="translate(-517.951 -244.755)" fill="#597756"/>
        <path id="Path_268" data-name="Path 268" d="M537.244,235.423s-.191.285-.445.125a.29.29,0,0,1,.238-.163A.413.413,0,0,1,537.244,235.423Z" transform="translate(-534.271 -234.135)" fill="#597756"/>
      </g>
      <g id="Group_79" data-name="Group 79" transform="translate(58.684 77.438)">
        <path id="Path_269" data-name="Path 269" d="M246.534,404.569q.008.082.008.166a1.759,1.759,0,1,1-.772-1.456l.155-.228a2.035,2.035,0,1,0,.893,1.684c0-.065,0-.129-.009-.192Z" transform="translate(-242.747 -402.701)" fill="#c2b78a"/>
        <path id="Path_270" data-name="Path 270" d="M248.69,406.222a1.76,1.76,0,1,0,.772,1.456c0-.056,0-.112-.008-.167l-1.751.167Z" transform="translate(-245.669 -405.644)" fill="#d9ca9c"/>
        <path id="Path_271" data-name="Path 271" d="M284.915,405.1l.274-.026a2.034,2.034,0,0,0-.883-1.492l-.155.228A1.758,1.758,0,0,1,284.915,405.1Z" transform="translate(-280.608 -403.507)" fill="#c2b78a"/>
        <path id="Path_272" data-name="Path 272" d="M273.6,406.248l-.988,1.456,1.752-.166A1.758,1.758,0,0,0,273.6,406.248Z" transform="translate(-270.053 -405.944)" fill="#d9ca9c"/>
        <path id="Path_273" data-name="Path 273" d="M263.351,410.007a.333.333,0,1,1-.333-.333A.333.333,0,0,1,263.351,410.007Z" transform="translate(-260.98 -409.077)" fill="#cb4508"/>
        <path id="Path_274" data-name="Path 274" d="M276.581,427.085a.333.333,0,1,1-.333-.333A.333.333,0,0,1,276.581,427.085Z" transform="translate(-273.077 -424.694)" fill="#cb4508"/>
        <path id="Path_275" data-name="Path 275" d="M261.96,422.144a.13.13,0,1,1-.13-.13A.13.13,0,0,1,261.96,422.144Z" transform="translate(-260.078 -420.361)" fill="#fff"/>
        <path id="Path_276" data-name="Path 276" d="M264.445,428.994a.188.188,0,1,1-.188-.187A.188.188,0,0,1,264.445,428.994Z" transform="translate(-262.245 -426.573)" fill="#592c22"/>
        <path id="Path_277" data-name="Path 277" d="M250.137,426.759a.142.142,0,1,1-.142-.142A.142.142,0,0,1,250.137,426.759Z" transform="translate(-249.246 -424.57)" fill="#592c22"/>
        <path id="Path_278" data-name="Path 278" d="M257.849,439.666a.13.13,0,1,1-.13-.13A.13.13,0,0,1,257.849,439.666Z" transform="translate(-256.319 -436.384)" fill="#fff"/>
        <path id="Path_279" data-name="Path 279" d="M280.08,414.348a.115.115,0,1,1-.115-.115A.115.115,0,0,1,280.08,414.348Z" transform="translate(-276.675 -413.246)" fill="#fff"/>
        <path id="Path_280" data-name="Path 280" d="M250.748,414.576s-.452.116-.289.381c.1.164.178.071.132-.006s.1-.138.109-.057.046.545.046.545l.292-.052s-.189-.537-.12-.566.029.088.086.1.218-.105.115-.237A.338.338,0,0,0,250.748,414.576Z" transform="translate(-249.767 -413.549)" fill="#592c22"/>
        <path id="Path_281" data-name="Path 281" d="M263.26,433.949s.386.262.476-.035c.056-.185-.065-.18-.092-.1s-.171.014-.115-.044.378-.4.378-.4l-.232-.185s-.278.5-.345.465.047-.08.017-.131a.149.149,0,0,0-.254.071A.338.338,0,0,0,263.26,433.949Z" transform="translate(-261.347 -430.585)" fill="#592c22"/>
        <path id="Path_282" data-name="Path 282" d="M283.117,412.463s-.342-.2-.4.054c-.038.16.064.15.083.076s.145-.02.1.032-.3.355-.3.355l.207.146s.211-.437.27-.413-.036.07-.008.112a.127.127,0,0,0,.212-.073C283.292,412.61,283.22,412.54,283.117,412.463Z" transform="translate(-279.184 -411.558)" fill="#592c22"/>
        <path id="Path_283" data-name="Path 283" d="M253.737,431.616s-.341-.253-.123-.551a.354.354,0,0,1,.187.3A.494.494,0,0,1,253.737,431.616Z" transform="translate(-252.617 -428.638)" fill="#597756"/>
        <path id="Path_284" data-name="Path 284" d="M274.386,436.739s.048-.422.415-.382a.354.354,0,0,1-.167.312A.5.5,0,0,1,274.386,436.739Z" transform="translate(-271.678 -433.474)" fill="#597756"/>
        <path id="Path_285" data-name="Path 285" d="M255.787,432.385s-.066-.42.3-.479a.354.354,0,0,1-.079.345A.5.5,0,0,1,255.787,432.385Z" transform="translate(-254.667 -429.407)" fill="#597756"/>
        <path id="Path_286" data-name="Path 286" d="M276.166,419.008s-.213.318-.5.139a.323.323,0,0,1,.265-.182A.458.458,0,0,1,276.166,419.008Z" transform="translate(-272.853 -417.573)" fill="#597756"/>
      </g>
      <g id="Group_80" data-name="Group 80" transform="translate(59.462 71.85)">
        <path id="Path_287" data-name="Path 287" d="M257.1,346.63c-1.579,0-2.86.417-2.86.933a.323.323,0,0,0,.017.1c.156.467,1.369.831,2.843.831s2.685-.363,2.842-.83a.321.321,0,0,0,.018-.1C259.961,347.047,258.68,346.63,257.1,346.63Z" transform="translate(-254.036 -345.84)" fill="#827854"/>
        <path id="Path_288" data-name="Path 288" d="M263.326,351.273l-.249-.276s-.359-.262-.4-.29a8.636,8.636,0,0,0-.9.083l-.87-.193-.373.111-.566.138-.787.207-.592.592a5.562,5.562,0,0,0,2.471.463,7.51,7.51,0,0,0,1.636-.168l.157-.169Z" transform="translate(-258.015 -349.467)" fill="#769e72"/>
        <path id="Path_289" data-name="Path 289" d="M280.493,346.144s-.028-.93.781-.959a.776.776,0,0,1-.266.729A1.088,1.088,0,0,1,280.493,346.144Z" transform="translate(-278.041 -344.519)" fill="#597756"/>
        <path id="Path_290" data-name="Path 290" d="M302.432,350.5s-.028-.93.781-.959a.776.776,0,0,1-.266.729A1.087,1.087,0,0,1,302.432,350.5Z" transform="translate(-298.103 -348.503)" fill="#597756"/>
        <path id="Path_291" data-name="Path 291" d="M279.532,353.283s.109-.756.767-.664a.636.636,0,0,1-.318.552A.893.893,0,0,1,279.532,353.283Z" transform="translate(-277.163 -351.309)" fill="#769e72"/>
        <path id="Path_292" data-name="Path 292" d="M290.352,354.007s-.656-.39-.319-.963c0,0,.383.163.388.505A.891.891,0,0,1,290.352,354.007Z" transform="translate(-286.676 -351.706)" fill="#769e72"/>
        <path id="Path_293" data-name="Path 293" d="M256.034,355.746s-.761-.059-.713-.721a.637.637,0,0,1,.571.281A.893.893,0,0,1,256.034,355.746Z" transform="translate(-255.021 -353.516)" fill="#769e72"/>
        <path id="Path_294" data-name="Path 294" d="M280.023,357.432s-.908-.54-.442-1.333c0,0,.531.225.536.7A1.235,1.235,0,0,1,280.023,357.432Z" transform="translate(-277.086 -354.499)" fill="#769e72"/>
        <path id="Path_295" data-name="Path 295" d="M273.58,359.906s-.459-.809.243-1.213a.775.775,0,0,1,.106.769C273.721,359.837,273.58,359.906,273.58,359.906Z" transform="translate(-271.585 -356.871)" fill="#769e72"/>
        <path id="Path_296" data-name="Path 296" d="M275.344,346.695s-.67-.795.018-1.382a.867.867,0,0,1,.273.823A1.213,1.213,0,0,1,275.344,346.695Z" transform="translate(-273.065 -344.636)" fill="#597756"/>
        <path id="Path_297" data-name="Path 297" d="M293.962,351.883s-1.007-.625-.468-1.505c0,0,.591.264.587.8A1.382,1.382,0,0,1,293.962,351.883Z" transform="translate(-289.784 -349.268)" fill="#597756"/>
        <path id="Path_298" data-name="Path 298" d="M267.6,357.341s-.67-.8.018-1.382a.867.867,0,0,1,.273.823A1.214,1.214,0,0,1,267.6,357.341Z" transform="translate(-265.984 -354.371)" fill="#597756"/>
        <path id="Path_299" data-name="Path 299" d="M305.674,355.568s-.67-.8.019-1.382a.867.867,0,0,1,.273.823A1.215,1.215,0,0,1,305.674,355.568Z" transform="translate(-300.8 -352.75)" fill="#597756"/>
        <path id="Path_300" data-name="Path 300" d="M260.865,351.247s-.893-.262-.669-1.04c0,0,.5.075.611.479A1.087,1.087,0,0,1,260.865,351.247Z" transform="translate(-259.449 -349.111)" fill="#597756"/>
        <path id="Path_301" data-name="Path 301" d="M310.718,355.765s-.893-.262-.669-1.04c0,0,.5.075.611.479A1.085,1.085,0,0,1,310.718,355.765Z" transform="translate(-305.035 -353.243)" fill="#597756"/>
        <path id="Path_302" data-name="Path 302" d="M285.058,358.494s-.276-.889.5-1.133a.776.776,0,0,1-.061.774C285.209,358.457,285.058,358.494,285.058,358.494Z" transform="translate(-282.172 -355.653)" fill="#597756"/>
        <path id="Path_303" data-name="Path 303" d="M310.414,350.649s-.1-1.011.784-1.1a.846.846,0,0,1-.239.813A1.188,1.188,0,0,1,310.414,350.649Z" transform="translate(-305.399 -348.511)" fill="#769e72"/>
        <path id="Path_304" data-name="Path 304" d="M267.787,351.081s-.143-.919.656-1.048a.776.776,0,0,1-.173.757A1.085,1.085,0,0,1,267.787,351.081Z" transform="translate(-266.414 -348.952)" fill="#769e72"/>
        <path id="Path_305" data-name="Path 305" d="M269.1,347s-.792-.488-.372-1.18c0,0,.464.205.463.623A1.087,1.087,0,0,1,269.1,347Z" transform="translate(-267.174 -345.101)" fill="#769e72"/>
        <path id="Path_306" data-name="Path 306" d="M287.6,362.387a.4.4,0,1,0,.4.4A.4.4,0,0,0,287.6,362.387Zm-.039.695a.3.3,0,1,1,.3-.3A.3.3,0,0,1,287.562,363.082Z" transform="translate(-284.179 -360.249)" fill="#fff"/>
        <path id="Path_307" data-name="Path 307" d="M278.292,362.768c0,.091-.124.166-.276.166s-.276-.074-.276-.166.124-.166.276-.166S278.292,362.676,278.292,362.768Z" transform="translate(-275.524 -360.446)" fill="#524656"/>
        <path id="Path_308" data-name="Path 308" d="M301.36,354.7c.08.045.084.189.009.322s-.2.2-.28.16-.084-.189-.009-.322S301.281,354.653,301.36,354.7Z" transform="translate(-296.819 -353.206)" fill="#524656"/>
        <path id="Path_309" data-name="Path 309" d="M260.7,357.063c.08.045.084.189.009.322s-.2.2-.28.16-.084-.189-.009-.322S260.624,357.019,260.7,357.063Z" transform="translate(-259.641 -355.369)" fill="#524656"/>
        <path id="Path_310" data-name="Path 310" d="M296.617,361.443l.842-.4a.382.382,0,0,1-.249.538A.462.462,0,0,1,296.617,361.443Z" transform="translate(-292.786 -359.02)" fill="#cd474a"/>
        <path id="Path_311" data-name="Path 311" d="M309.493,359.169l.852.379a.382.382,0,0,1-.57.162C309.38,359.484,309.493,359.169,309.493,359.169Z" transform="translate(-304.546 -357.306)" fill="#cd474a"/>
        <path id="Path_312" data-name="Path 312" d="M275.021,355l.852.379a.383.383,0,0,1-.57.162C274.909,355.318,275.021,355,275.021,355Z" transform="translate(-273.024 -353.497)" fill="#cd474a"/>
        <path id="Path_313" data-name="Path 313" d="M306.059,339.238s.709-1.059.816-1.211c.218-.31.539-.649.737-.5.263.2-.293.661-.487.882s-.763.882-.763.882Z" transform="translate(-301.42 -337.483)" fill="#f8ad38"/>
        <path id="Path_314" data-name="Path 314" d="M253.468,339.15s-.709-1.059-.816-1.211c-.218-.31-.539-.649-.737-.5-.263.2.293.661.487.882s.764.882.764.882Z" transform="translate(-251.845 -337.403)" fill="#f8ad38"/>
        <path id="Path_315" data-name="Path 315" d="M265.158,356.976a.488.488,0,1,0,.488.488A.488.488,0,0,0,265.158,356.976Zm-.048.857a.369.369,0,1,1,.369-.369A.369.369,0,0,1,265.11,357.833Z" transform="translate(-263.573 -355.301)" fill="#fff"/>
        <path id="Path_316" data-name="Path 316" d="M257.158,359.551c-1.474,0-2.687-.363-2.843-.83l-.012,0s.347,1.789.837,2.1a5.219,5.219,0,0,0,4.03,0c.49-.309.837-2.1.837-2.1H260C259.843,359.188,258.63,359.551,257.158,359.551Z" transform="translate(-254.093 -356.896)" fill="#c8c7aa"/>
      </g>
      <g id="Group_81" data-name="Group 81" transform="translate(60.363 67.496)">
        <rect id="Rectangle_66" data-name="Rectangle 66" width="2.268" height="3.449" transform="translate(0.282 0.741)" fill="#e59446"/>
        <path id="Path_317" data-name="Path 317" d="M284.5,305.225h-.272a.583.583,0,0,1-.583-.583v-.807a.583.583,0,0,1,.583-.583h.272a.583.583,0,0,1,.583.583v.807A.583.583,0,0,1,284.5,305.225Zm-.272-1.6a.21.21,0,0,0-.21.21v.807a.21.21,0,0,0,.21.21h.272a.21.21,0,0,0,.21-.21v-.807a.21.21,0,0,0-.21-.21Z" transform="translate(-281.82 -301.82)" fill="#e59446"/>
        <path id="Path_318" data-name="Path 318" d="M263.176,286.525c-.305.051-.872.305-.805.571a.414.414,0,0,0,.4.366c.166,0,.466-.166.6-.1s.1.258.341.262.092-.3.358-.328a1.159,1.159,0,0,1,.466.033,1.071,1.071,0,0,1,.337.033c.07.025.055.25.055.25s.33-.257.145-.562c-.175-.287-.312-.243-.524-.33a.9.9,0,0,0-.511-.179,1.339,1.339,0,0,0-.324.067C263.622,286.621,263.481,286.474,263.176,286.525Z" transform="translate(-262.365 -286.514)" fill="#d9ca9c"/>
        <rect id="Rectangle_67" data-name="Rectangle 67" width="0.28" height="2.393" transform="translate(0.741 1.471)" fill="#f8ad38"/>
        <rect id="Rectangle_68" data-name="Rectangle 68" width="0.28" height="2.393" transform="translate(1.3 1.471)" fill="#f8ad38"/>
        <rect id="Rectangle_69" data-name="Rectangle 69" width="0.28" height="2.393" transform="translate(1.859 1.471)" fill="#f8ad38"/>
        <rect id="Rectangle_70" data-name="Rectangle 70" width="2.268" height="0.441" transform="translate(0.282 3.752)" fill="#c17f3f"/>
      </g>
      <g id="Group_82" data-name="Group 82" transform="translate(57.006 53.021)">
        <rect id="Rectangle_71" data-name="Rectangle 71" width="2.406" height="3.659" transform="translate(0.3 0.786)" fill="#e59446"/>
        <path id="Path_319" data-name="Path 319" d="M246.623,137.22h-.288a.619.619,0,0,1-.618-.619v-.857a.619.619,0,0,1,.618-.618h.288a.619.619,0,0,1,.618.618v.857A.619.619,0,0,1,246.623,137.22Zm-.288-1.7a.223.223,0,0,0-.223.223v.857a.223.223,0,0,0,.223.223h.288a.223.223,0,0,0,.223-.223v-.857a.223.223,0,0,0-.223-.223Z" transform="translate(-243.786 -133.607)" fill="#e59446"/>
        <path id="Path_320" data-name="Path 320" d="M224.008,117.382c-.324.054-.925.324-.854.606a.439.439,0,0,0,.423.388c.176,0,.494-.176.635-.106s.1.273.362.278.1-.313.379-.348a1.227,1.227,0,0,1,.494.035,1.135,1.135,0,0,1,.357.035c.075.026.058.266.058.266s.35-.273.153-.6c-.185-.3-.331-.257-.556-.35a.956.956,0,0,0-.542-.19,1.414,1.414,0,0,0-.344.071C224.481,117.483,224.331,117.328,224.008,117.382Z" transform="translate(-223.147 -117.37)" fill="#d9ca9c"/>
        <rect id="Rectangle_72" data-name="Rectangle 72" width="0.297" height="2.538" transform="translate(0.786 1.561)" fill="#f8ad38"/>
        <rect id="Rectangle_73" data-name="Rectangle 73" width="0.297" height="2.538" transform="translate(1.379 1.561)" fill="#f8ad38"/>
        <rect id="Rectangle_74" data-name="Rectangle 74" width="0.297" height="2.538" transform="translate(1.973 1.561)" fill="#f8ad38"/>
        <rect id="Rectangle_75" data-name="Rectangle 75" width="2.406" height="0.468" transform="translate(0.3 3.981)" fill="#c17f3f"/>
      </g>
      <g id="Group_83" data-name="Group 83" transform="translate(78.464 52.257)">
        <rect id="Rectangle_76" data-name="Rectangle 76" width="2.164" height="3.29" transform="translate(0.269 0.707)" fill="#e59446"/>
        <path id="Path_321" data-name="Path 321" d="M495.008,126.287h-.259a.557.557,0,0,1-.556-.556v-.77a.557.557,0,0,1,.556-.556h.259a.557.557,0,0,1,.556.556v.77A.557.557,0,0,1,495.008,126.287Zm-.259-1.527a.2.2,0,0,0-.2.2v.77a.2.2,0,0,0,.2.2h.259a.2.2,0,0,0,.2-.2v-.77a.2.2,0,0,0-.2-.2Z" transform="translate(-492.456 -123.039)" fill="#e59446"/>
        <path id="Path_322" data-name="Path 322" d="M474.672,108.449c-.291.048-.832.291-.768.545a.4.4,0,0,0,.381.349c.159,0,.444-.159.571-.1s.091.246.325.25.087-.281.341-.313a1.1,1.1,0,0,1,.444.032,1.022,1.022,0,0,1,.321.032c.067.024.052.239.052.239s.315-.245.138-.536c-.167-.273-.3-.231-.5-.315a.861.861,0,0,0-.488-.171,1.271,1.271,0,0,0-.309.063C475.1,108.54,474.963,108.4,474.672,108.449Z" transform="translate(-473.898 -108.439)" fill="#d9ca9c"/>
        <rect id="Rectangle_77" data-name="Rectangle 77" width="0.267" height="2.282" transform="translate(0.707 1.403)" fill="#f8ad38"/>
        <rect id="Rectangle_78" data-name="Rectangle 78" width="0.267" height="2.282" transform="translate(1.24 1.403)" fill="#f8ad38"/>
        <rect id="Rectangle_79" data-name="Rectangle 79" width="0.267" height="2.282" transform="translate(1.774 1.403)" fill="#f8ad38"/>
        <rect id="Rectangle_80" data-name="Rectangle 80" width="2.164" height="0.42" transform="translate(0.269 3.579)" fill="#c17f3f"/>
      </g>
      <path id="Path_323" data-name="Path 323" d="M48.41,74.128s-.391-.4-.531-.12-.835,8.808-1.011,9.061-.756.595-1.04-.113-.064-9.142-.724-9.168c-.66.015-.577,8.452-.872,9.155s-.871.351-1.042.1-.727-8.8-.865-9.077-.532.112-.532.112-.753,10.1,0,11.429a2.878,2.878,0,0,0,2.095,1.359s-.028,1.069-.069,2.668c-.118,4.6-.348,13.606-.346,14.265,0,1.649,1.377,1.469,1.377,1.469s1.369.2,1.4-1.447c.012-.66-.071-9.69-.115-14.287-.015-1.589-.025-2.65-.025-2.65a2.877,2.877,0,0,0,2.116-1.325C49,84.244,48.41,74.128,48.41,74.128Z" transform="translate(0 -24.497)" fill="#cbbba0"/>
      <path id="Path_324" data-name="Path 324" d="M577.8,73.45a.94.94,0,0,0-1.8.094c-.031.113.036,7.633-.071,15.1q-.009.663-.021,1.324c-.116,6.715-.464,13.258-.3,13.667.457,1.156,2.308,1.266,2.655.039.229-.81-.212-13.359-.212-13.359a2.224,2.224,0,0,0,1.167-1.671C580.334,84.507,578.257,74.365,577.8,73.45Z" transform="translate(-488.401 -23.611)" fill="#cbbba0"/>
    </g>
  </g>
</svg>
