 <!DOCTYPE svg PUBLIC "-//W3C//DTD SVG 1.1//EN" "http://www.w3.org/Graphics/SVG/1.1/DTD/svg11.dtd">
<svg id="b3b2e439-e33c-448f-b491-eddc0ca37b68" data-name="Layer 1" xmlns="http://www.w3.org/2000/svg" width="865.76" height="682.89" viewBox="0 0 865.76 682.89">
<defs>
<style xmlns="http://www.w3.org/1999/xhtml">*, ::after, ::before { box-sizing: border-box; }
img, svg { vertical-align: middle; }
</style>
<style xmlns="http://www.w3.org/1999/xhtml">*, body, html { -webkit-font-smoothing: antialiased; }
img, svg { max-width: 100%; }
</style>
</defs>
<path d="M339.05,334.87h20.32a22.4,22.4,0,0,1,22.4,22.4v0a0,0,0,0,1,0,0H316.65a0,0,0,0,1,0,0v0A22.4,22.4,0,0,1,339.05,334.87Z" fill="#3f3d56"/>
<ellipse cx="149.36" cy="666.79" rx="8.96" ry="13.33" fill="#2f2e41" data-secondary="true"/>
<ellipse cx="149.36" cy="666.79" rx="8.96" ry="13.33" fill="#231f20" opacity="0.2"/>
<rect x="238.04" y="547.09" width="18.53" height="50.79" fill="#ccc"/>
<path d="M367.24,341.39l-90.07-16.86,28.1-60.33h15.12l-9.79,31.09,96.67,31.09A26.8,26.8,0,0,0,423,324.25s11.5-7.24,18.74-2.56c0,0,6-3.4,10.22-.42l9.79.85s6.39-6.91,13.63,4.64l10.48,15.58a2.88,2.88,0,0,1-2.14,4.47l-31.85,2.68a10.09,10.09,0,0,1-6.78-1.9l-1.65-1.19s3.62,3.19-37.26,3.4a11.13,11.13,0,0,0-8-3.3l-31-5.11" fill="#f9b499"/>
<rect x="564.6" y="673.9" width="18.56" height="6.22" fill="#ccc"/>
<rect x="807.08" y="673.9" width="18.56" height="6.22" fill="#ccc"/>
<rect x="211.63" y="673.9" width="18.56" height="6.22" fill="#ccc"/>
<rect x="454.11" y="673.9" width="18.56" height="6.22" fill="#ccc"/>
<path d="M251.35,170.52c-9.91-19.15-33.54-19.7-33.54-19.7H91.11c-62-7.55-56.21,54.82-56.21,54.82A66.51,66.51,0,0,0,42,228.07a168,168,0,0,1,9.43,20.45c12,32.6,40.87,116.28,42.16,172.83l1.9,36.25a46,46,0,0,0,8.1,24.3c7.14,10.06,20.46,20,44.72,16.11l115.55.86L260,460.11l-87.86-.74a9.25,9.25,0,0,1-8.43-12.91l26.11-60.88h34.84s19.16-13.21-1.71-31.09H144.14L133.06,205l8.09-37.37,76.66-3.73Z" fill="#2f2e41" data-secondary="true"/>
<path d="M106.23,354.49S84.51,267.61,69.61,238.22c0,0-17.89-31.94-14.48-50.68,0,0-.44-38.75,25.33-36.62l25.77-.09S88,155.46,89.11,190a94.4,94.4,0,0,0,5.07,27,172.53,172.53,0,0,0,6.26,16.31c2,4.42,4,8.88,5.67,13.46,8.71,24,31.8,89.1,32.49,107.75Z" fill="#3f3d56"/>
<path d="M144.14,354.49c-4.69-40.89-33.22-108.18-33.22-108.18-13.21-28.53-14.27-38.75-14.27-38.75-12.53-47.68,16.82-56.73,16.82-56.73h63.46s19.16-1.19,34.49,18l6.39,185.69Z" fill="#3f3d56"/>
<path d="M214.72,167.63c-10.22-14.69-27.78-16.81-27.78-16.81h30.87s21.67,1.35,29.58,15.47Z" fill="#3f3d56"/>
<g opacity="0.3">
<path d="M106.23,354.49S84.51,267.61,69.61,238.22c0,0-17.89-31.94-14.48-50.68,0,0-.44-38.75,25.33-36.62l25.77-.09S88,155.46,89.11,190a94.4,94.4,0,0,0,5.07,27,172.53,172.53,0,0,0,6.26,16.31c2,4.42,4,8.88,5.67,13.46,8.71,24,31.8,89.1,32.49,107.75Z" fill="#231f20"/>
<path d="M144.14,354.49c-4.69-40.89-33.22-108.18-33.22-108.18-13.21-28.53-14.27-38.75-14.27-38.75-12.53-47.68,16.82-56.73,16.82-56.73h63.46s19.16-1.19,34.49,18l6.39,185.69Z" fill="#231f20"/>
<path d="M214.72,167.63c-10.22-14.69-27.78-16.81-27.78-16.81h30.87s21.67,1.35,29.58,15.47Z" fill="#231f20"/>
</g>
<path d="M216.53,242.06l-10.22,27.68c-25.55,5.53-51.1-13.2-51.1-13.2l23.85-74.12s7.66-22.56,33.64-17.88l112.43-.64s28.11,2.77,25.56,28.75l-25.56,78.11H314.91s-26.4,71.38-26,113.54l-147.78,1.28s17-103.49,31.09-132.88" fill="#0071f2" data-primary="true"/>
<path d="M357.82,321.27l17.57,26.51s-2.56,3.51-8.79,0c0,0-5.59,3.51-11,0,0,0-11.17,3.51-12.77-.64,0,0-7.35,7.67-12.78,0l-8.3-11.23s-29.07,18.26-32.9,11.55l-90.18-16-32.37-8.09s-23-3.83-17-23.43c0,0,4.43-27.14,10.63-40.43a68.75,68.75,0,0,0,43.9,10.67l-7.26,24.23L293.19,326s7.67,3.84,21.72-3c0,0,7.24-6,13.63-1.7,0,0,4.26-3,7.67-.43,0,0,4.68-3.83,8.51.43C344.72,321.27,349.62,317.44,357.82,321.27Z" fill="#f9b499"/>
<path d="M195.67,385.11V367.05a5.33,5.33,0,0,0-5.33-5.32H107.08C90.47,360.45,96.65,380,96.65,380c.63,7.67,15.54,5.54,15.54,5.54s7.24,56.21,6.39,68.14c0,0,.85,16.18,4.26,17.46,0,0,22.15-25.13,34.92-24.28h0a13,13,0,0,0,12.79,12.53l17,.25" fill="#3f3d56"/>
<path d="M195.67,385.11V367.05a5.33,5.33,0,0,0-5.33-5.32H107.08C90.47,360.45,96.65,380,96.65,380c.63,7.67,15.54,5.54,15.54,5.54s7.24,56.21,6.39,68.14c0,0,.85,16.18,4.26,17.46,0,0,22.15-25.13,34.92-24.28h0a13,13,0,0,0,12.79,12.53l17,.25" fill="#231f20" opacity="0.3"/>
<path d="M151.37,498c-30.69-.23-29.38-16.2-29.38-16.2-2.13-10.65,8.09-10.65,8.09-10.65h109s14.47-.82,18.31,13.43c0,0,4,10.46-11.42,13.42Z" fill="#2f2e41" data-secondary="true"/>
<rect x="233.57" y="493.11" width="26.83" height="58.77" fill="#2f2e41" data-secondary="true"/>
<rect x="233.57" y="594.68" width="26.83" height="42.8" fill="#2f2e41" data-secondary="true"/>
<rect x="159.88" y="357.27" width="282.4" height="21.16" fill="#ccc"/>
<rect x="442.27" y="357.27" width="353.46" height="21.16" fill="#ccc"/>
<rect x="442.27" y="357.27" width="353.46" height="21.16" opacity="0.2"/>
<rect x="553.62" y="657.93" width="283" height="15.97" fill="#ccc"/>
<polygon points="605.36 378.43 715.88 657.93 765.07 657.93 656.47 378.43 605.36 378.43" fill="#ccc"/>
<rect x="200.77" y="657.93" width="281.76" height="15.97" fill="#ccc"/>
<rect x="444.25" y="657.93" width="38.28" height="15.97" opacity="0.2"/>
<rect x="797.22" y="657.93" width="38.28" height="15.97" opacity="0.2"/>
<path d="M309.59,388.35l74.1,8.3s26.83,1.28,25.56,44.72L422.66,634s3.19,9.26-15.65,5.11l-31,1.07-24.6-180.9H323Z" fill="#2f2e41" data-secondary="true"/>
<path d="M327.48,518.18l4.47,122h-54.3L255.72,459.68H189.79s-29,2.13-32-12.78l9.37-61.32,116.27-1.23Z" fill="#2f2e41" data-secondary="true"/>
<path d="M327.48,518.18l4.47,122h-54.3L255.72,459.68H189.79s-29.89,1.57-32-12.78l9.37-61.32,116.27-1.23Z" fill="#2f2e41" opacity="0.2" data-secondary="true"/>
<g opacity="0.2">
<path d="M327.48,518.18l4.47,122h-54.3L255.72,459.68H189.79s-29,2.13-32-12.78l9.37-61.32,116.27-1.23Z" fill="#231f20"/>
<path d="M327.48,518.18l4.47,122h-54.3L255.72,459.68H189.79s-29.89,1.57-32-12.78l9.37-61.32,116.27-1.23Z" fill="#231f20" opacity="0.2"/>
</g>
<path d="M125.09,489.74l18.62-104.16h23.42L148.26,498S132,497.23,125.09,489.74Z" fill="#ccc"/>
<path d="M265.73,673.9h83a0,0,0,0,1,0,0v4.32a1.9,1.9,0,0,1-1.9,1.9H267.62a1.9,1.9,0,0,1-1.9-1.9V673.9A0,0,0,0,1,265.73,673.9Z" fill="#ccc"/>
<path d="M361.37,673.9h83a0,0,0,0,1,0,0v4.32a1.9,1.9,0,0,1-1.9,1.9H363.27a1.9,1.9,0,0,1-1.9-1.9V673.9A0,0,0,0,1,361.37,673.9Z" fill="#ccc"/>
<g opacity="0.2">
<path d="M265.73,673.9h83a0,0,0,0,1,0,0v4.32a1.9,1.9,0,0,1-1.9,1.9H267.62a1.9,1.9,0,0,1-1.9-1.9V673.9A0,0,0,0,1,265.73,673.9Z"/>
<path d="M361.37,673.9h83a0,0,0,0,1,0,0v4.32a1.9,1.9,0,0,1-1.9,1.9H363.27a1.9,1.9,0,0,1-1.9-1.9V673.9A0,0,0,0,1,361.37,673.9Z"/>
</g>
<polygon points="121.7 653.46 121.7 643.71 233.57 637.49 366.23 643.71 366.23 653.46 121.7 653.46" fill="#ccc"/>
<ellipse cx="129.36" cy="666.79" rx="8.96" ry="13.33" fill="#2f2e41" data-secondary="true"/>
<ellipse cx="129.36" cy="666.79" rx="8.96" ry="13.33" fill="#231f20" opacity="0.2"/>
<ellipse cx="125.68" cy="666.79" rx="8.96" ry="13.33" fill="#2f2e41" data-secondary="true"/>
<ellipse cx="125.27" cy="666.75" rx="4.87" ry="6.32" fill="#ccc"/>
<ellipse cx="153.04" cy="666.79" rx="8.96" ry="13.33" fill="#2f2e41" data-secondary="true"/>
<ellipse cx="153.82" cy="666.75" rx="4.87" ry="6.32" fill="#ccc"/>
<rect x="364.77" y="107.84" width="293.7" height="186.81" rx="2.26" fill="#2f2e41" data-secondary="true"/>
<rect x="364.77" y="107.84" width="293.7" height="186.81" rx="2.26" fill="#231f20" opacity="0.3"/>
<rect x="360.28" y="107.84" width="293.7" height="186.81" rx="2.26" fill="#2f2e41" data-secondary="true"/>
<path d="M511.47,175.19h32.27a2.34,2.34,0,0,1,2.34,2.34V345.6a0,0,0,0,1,0,0h-37a0,0,0,0,1,0,0V177.54a2.34,2.34,0,0,1,2.34-2.34Z" fill="#2f2e41" data-secondary="true"/>
<path d="M511.47,175.19h32.27a2.34,2.34,0,0,1,2.34,2.34V345.6a0,0,0,0,1,0,0h-37a0,0,0,0,1,0,0V177.54a2.34,2.34,0,0,1,2.34-2.34Z" fill="#231f20" opacity="0.4"/>
<path d="M507.2,175.19h32.27a2.34,2.34,0,0,1,2.34,2.34V345.6a0,0,0,0,1,0,0h-37a0,0,0,0,1,0,0V177.54a2.34,2.34,0,0,1,2.34-2.34Z" fill="#2f2e41" data-secondary="true"/>
<path d="M522.83,208.84h8.77a2.21,2.21,0,0,1,2.21,2.21V345.6a0,0,0,0,1,0,0h-13.2a0,0,0,0,1,0,0V211.05A2.21,2.21,0,0,1,522.83,208.84Z" fill="#231f20" opacity="0.3"/>
<polygon points="553.62 201.25 643.05 112.64 579.81 201.25 641.78 287.09 553.62 201.25" fill="#231f20" opacity="0.3"/>
<polygon points="493.43 201.25 381.78 287.09 466.05 199.87 381.78 115 493.43 201.25" fill="#231f20" opacity="0.3"/>
<rect x="495.27" y="345.6" width="65.37" height="11.67" fill="#2f2e41" data-secondary="true"/>
<polygon points="572.14 357.27 572.14 351.43 560.65 345.6 560.65 357.27 572.14 357.27" fill="#2f2e41" data-secondary="true"/>
<polygon points="572.14 357.27 572.14 351.43 560.65 345.6 560.65 357.27 572.14 357.27" fill="#231f20" opacity="0.3"/>
<polygon points="421.17 357.27 421.17 353.42 495.27 345.6 495.27 357.27 421.17 357.27" fill="#2f2e41" data-secondary="true"/>
<polygon points="421.17 357.27 421.17 353.42 495.27 345.6 495.27 357.27 421.17 357.27" fill="#231f20" opacity="0.3"/>
<ellipse cx="339.62" cy="114.87" rx="17.16" ry="7.56" transform="translate(184.01 437.87) rotate(-82.96)" fill="#3f3d56"/>
<ellipse cx="339.62" cy="114.87" rx="17.16" ry="7.56" transform="translate(184.01 437.87) rotate(-82.96)" fill="#2f2e41" data-secondary="true"/>
<path d="M342.6,41s15.33-4.26,13.62,12.35c0,0,.69,25.23-9.87,25.23l-62.74.32s-12.84,2.11-11.85,23H238.68s-13.78-37.39,8.93-64.2c9.48-11.19,23.53-17.42,38.18-18.1C303,18.84,329.66,21.22,342.6,41Z" fill="#2f2e41" data-secondary="true"/>
<path d="M342.6,41s15.33-4.26,13.62,12.35c0,0,.69,25.23-9.87,25.23l-62.74.32s-12.84,2.11-11.85,23H238.68s-13.78-37.39,8.93-64.2c9.48-11.19,23.53-17.42,38.18-18.1C303,18.84,329.66,21.22,342.6,41Z" fill="#fff" opacity="0.05"/>
<ellipse cx="339.09" cy="115" rx="10.98" ry="3.95" transform="translate(183.42 437.45) rotate(-82.96)" fill="#3f3d56"/>
<path d="M245.79,164.2c-.7-1,9-12.32,9.65-25.31,0,0-3.32-.67-3-5.66l-1.83-32.63,21.14,1.33s-1.66-21.64,13.65-23.31h60.94S338,136.56,331.7,149.54s-14.32,16.32-34,11.33l.41,4.93a14.93,14.93,0,0,1-3.2,10.89c-3.66,4.37-11.18,8.15-26.51,3.82A45,45,0,0,1,245.79,164.2Z" fill="#f9b499"/>
<path d="M245.75,94.7V56.45s2.35-34.76,36.69-38.92c0,0,27-2.61,45.2,9.87,0,0-56.38-24.63-69.37,28.49L258.06,93Z" fill="#2f2e41" data-secondary="true"/>
<ellipse cx="256.81" cy="112.05" rx="16.08" ry="22.47" fill="#3f3d56"/>
<ellipse cx="256.81" cy="112.05" rx="16.08" ry="22.47" fill="#231f20" opacity="0.3"/>
<ellipse cx="251.35" cy="112.64" rx="16.08" ry="21.03" fill="#2f2e41" data-secondary="true"/>
<ellipse cx="249" cy="112.61" rx="13.73" ry="17.91" fill="#3f3d56"/>
<ellipse cx="249" cy="112.61" rx="13.73" ry="17.91" fill="#231f20" opacity="0.3"/>
<ellipse cx="244.11" cy="111.74" rx="13.73" ry="17.04" fill="#2f2e41" data-secondary="true"/>
<polygon points="250.82 374.93 363.25 657.93 422.66 657.93 310.23 374.93 250.82 374.93" fill="#ccc"/>
<polygon points="298.73 374.93 350.85 502.06 411.16 657.93 422.66 657.93 310.23 374.93 298.73 374.93" opacity="0.2"/>
<polygon points="360.69 501.96 703.74 501.96 656.47 378.43 666.69 378.43 774.65 657.93 765.07 657.93 714.6 528.88 370.85 527.51 360.69 501.96" fill="#ccc"/>
<polygon points="359.42 501.96 702.46 501.96 655.19 378.43 665.41 378.43 773.37 657.93 763.79 657.93 713.32 528.88 369.57 527.51 359.42 501.96" opacity="0.2"/>
<rect x="242.51" y="633.97" width="8.3" height="19.48" fill="#2f2e41" data-secondary="true"/>
<path d="M530.46,128.35l.26,9.56a7.37,7.37,0,0,0-1.7-1.69v-7.87h-8.41l.12,7.87a7.27,7.27,0,0,0-2.25,2.58V128.66l-6.86-4.15v29.71l6.86,4.15v-13a7.33,7.33,0,0,0,2.41,2.71l.18,12.09,3.75,3.75,4.2-3.29V147.94a7.21,7.21,0,0,0,1.91-2l.33,12.45,6.71-4.15V124.51Z" fill="#231f20" opacity="0.3"/>
</svg>