<svg id="Group_6489" data-name="Group 6489" xmlns="http://www.w3.org/2000/svg" width="51" height="48" viewBox="0 0 51 48">
  <g id="Ellipse_241" data-name="Ellipse 241" fill="#fff" stroke="#161837" stroke-width="2">
    <ellipse cx="25.5" cy="24" rx="25.5" ry="24" stroke="none"/>
    <ellipse cx="25.5" cy="24" rx="24.5" ry="23" fill="none"/>
  </g>
  <g id="Group_405" data-name="Group 405" transform="translate(-706.77 -840.122)">
    <path id="Path_38" data-name="Path 38" d="M200.68,367.466c.034.064.064.129.092.195a2.914,2.914,0,0,1,.833-.689l1.315-.722a2.353,2.353,0,0,1,1.433-.5,2.193,2.193,0,0,1,.665.1,1.117,1.117,0,0,0-.132-.156l-11.619-11.625a1.207,1.207,0,0,0-1.689-.019l-12.57,12.02a1.208,1.208,0,0,0-.374.873v14.39a1.158,1.158,0,0,0,1.134,1.181h12.649l-.243-.237a2.927,2.927,0,0,1,.161-4.341l1.465-1.266-1.323-2.841-1.137.462-.053.016a2.554,2.554,0,0,1-3.066-1.231l-.91-1.725a2.556,2.556,0,0,1,1.069-3.455l1.259-.664a2.241,2.241,0,0,1,1.176-2.035l1.2-.632a2.171,2.171,0,0,1,1.016-.25,2.313,2.313,0,0,1,1.327.427l1.562-.824a2.553,2.553,0,0,1,3.454,1.066l1.308,2.48Z" transform="translate(541.336 496.296)" fill="#15224b"/>
    <path id="Path_39" data-name="Path 39" d="M286.61,459.19h.649a1.158,1.158,0,0,0,1.133-1.181v-5.857a4.994,4.994,0,0,1-1.268.177h0c-.045,0-.09,0-.134,0l-1.6,1.957.886,1.493a3.828,3.828,0,0,1,.536,2.919,2.442,2.442,0,0,1-.2.5Z" transform="translate(458.183 419.623)" fill="#15224b"/>
    <path id="Path_40" data-name="Path 40" d="M188.107,343.574l1.205-1.309a.819.819,0,0,0-.022-1.126l-7.261-7.265v-6.638a.625.625,0,0,0-.624-.625h-2.387a.625.625,0,0,0-.625.625v3l-7.082-7.086a1.588,1.588,0,0,0-2.238-.027l-18.824,18a.82.82,0,0,0-.047,1.126l1.177,1.337a.743.743,0,0,0,1.081.05l17.165-16.416a.744.744,0,0,1,1.047.012L187.025,343.6a.742.742,0,0,0,1.082-.023Z" transform="translate(563.639 520.477)" fill="#15224b"/>
    <path id="Path_41" data-name="Path 41" d="M234.708,409.175,233.4,406.7a.853.853,0,0,0-1.152-.356l-2.81,1.482-.327-.552a.6.6,0,0,0-.768-.284l-1.2.633a.6.6,0,0,0-.2.793l.271.582-2.508,1.323a.853.853,0,0,0-.357,1.153l.909,1.723a.853.853,0,0,0,1.023.411l2.589-1.052,1.8,3.873,2.557-2.21-1.642-2.766,2.631-1.07a.851.851,0,0,0,.485-1.206Z" transform="translate(505.799 455.383)" fill="#10bed2"/>
    <path id="Path_42" data-name="Path 42" d="M267.881,471.453c.4.578.922.888,1.277.7l2.111-1.112c.444-.235.391-1.123-.1-1.946l-.569-.96-2.721,3.319Z" transform="translate(471.818 407.174)" fill="#10bed2"/>
    <path id="Path_43" data-name="Path 43" d="M257.486,421.227l.77-1.489a.572.572,0,0,0,.047-.8l-.51-.5-1.021,1.049a.6.6,0,0,1-.405.184l-1.586.041a.169.169,0,0,1-.176-.172v-1.587a.6.6,0,0,1,.174-.411L255.8,416.5l-.509-.5a.573.573,0,0,0-.8.067l-1.469.81a1.173,1.173,0,0,0-.546.65c-.262.783-.74,2.384-.382,2.731l.231.225-8.292,7.166a1.224,1.224,0,0,0-.075,1.82l1.18,1.15a1.224,1.224,0,0,0,1.818-.122l6.946-8.476.231.225c.357.347,1.945-.172,2.72-.455a1.172,1.172,0,0,0,.636-.561Z" transform="translate(490.743 447.888)" fill="#10bed2"/>
  </g>
</svg>
