<svg xmlns="http://www.w3.org/2000/svg" width="113.817" height="89.367" viewBox="0 0 113.817 89.367">
  <g id="Group_6540" data-name="Group 6540" transform="translate(0 -0.002)">
    <circle id="Ellipse_266" data-name="Ellipse 266" cx="10.501" cy="10.501" r="10.501" transform="translate(78.344 12.546)" fill="#020413"/>
    <path id="Path_1751" data-name="Path 1751" d="M766.7,566.454V542.318a1.277,1.277,0,0,1,1.275-1.275h2.9a1.277,1.277,0,0,1,1.275,1.275v24.136a1.277,1.277,0,0,1-1.275,1.275h-2.9a1.277,1.277,0,0,1-1.275-1.275Z" transform="translate(-677.086 -478.495)" fill="#2f2e41"/>
    <path id="Path_1752" data-name="Path 1752" d="M735.509,566.454V542.318a1.277,1.277,0,0,1,1.275-1.275h2.9a1.277,1.277,0,0,1,1.275,1.275v24.136a1.277,1.277,0,0,1-1.275,1.275h-2.9a1.277,1.277,0,0,1-1.275-1.275Z" transform="translate(-652.013 -478.495)" fill="#2f2e41"/>
    <path id="Path_1753" data-name="Path 1753" d="M723.346,435.259V413.884a7.854,7.854,0,0,1,7.854-7.854h0a7.854,7.854,0,0,1,7.854,7.854v21.375a1.275,1.275,0,0,1-1.275,1.275H724.621A1.275,1.275,0,0,1,723.346,435.259Z" transform="translate(-642.237 -369.971)" fill="#2f2e41"/>
    <path id="Path_1754" data-name="Path 1754" d="M706.479,336l.011-.392a3.245,3.245,0,0,1-1.857-.419,1.206,1.206,0,0,1-.467-.888.69.69,0,0,1,.226-.568,1.188,1.188,0,0,1,1.214-.011l.325.149-.623-4.55-.389.053.53,3.87a1.385,1.385,0,0,0-1.31.189,1.073,1.073,0,0,0-.365.881,1.6,1.6,0,0,0,.628,1.192A3.613,3.613,0,0,0,706.479,336Z" transform="translate(-626.502 -308.315)" fill="#2f2e41"/>
    <rect id="Rectangle_1495" data-name="Rectangle 1495" width="2.113" height="0.392" transform="translate(81.052 21.396)" fill="#2f2e41"/>
    <path id="Path_1755" data-name="Path 1755" d="M778.159,446.576a1.266,1.266,0,0,1-.411-.886l-1-24.115a1.275,1.275,0,0,1,1.221-1.327l2.893-.12a1.277,1.277,0,0,1,1.327,1.221l1,24.115a1.277,1.277,0,0,1-1.221,1.327l-2.893.12a1.287,1.287,0,0,1-.276-.018A1.266,1.266,0,0,1,778.159,446.576Z" transform="translate(-685.16 -381.303)" fill="#020413"/>
    <path id="Path_1756" data-name="Path 1756" d="M778.243,424.32h-4.709a1.277,1.277,0,0,1-1.275-1.275v-6.671a3.63,3.63,0,1,1,7.259,0v6.671A1.277,1.277,0,0,1,778.243,424.32Z" transform="translate(-681.553 -375.368)" fill="#2f2e41"/>
    <path id="Path_1757" data-name="Path 1757" d="M639.878,436.567l-1.846-2.231a1.277,1.277,0,0,1,.17-1.8l18.6-15.385a1.276,1.276,0,0,1,1.8.17l1.846,2.231a1.275,1.275,0,0,1-.17,1.8l-18.6,15.385a1.277,1.277,0,0,1-1.6.023A1.29,1.29,0,0,1,639.878,436.567Z" transform="translate(-573.427 -378.679)" fill="#020413"/>
    <path id="Path_1758" data-name="Path 1758" d="M705.135,423.261l-2.983-3.644a1.277,1.277,0,0,1,.179-1.795l5.162-4.226a3.63,3.63,0,0,1,4.6,5.617l-5.162,4.226A1.277,1.277,0,0,1,705.135,423.261Z" transform="translate(-624.969 -375.394)" fill="#2f2e41"/>
    <path id="Path_1759" data-name="Path 1759" d="M727.939,281.058a4.313,4.313,0,0,0,.772-3,2.132,2.132,0,0,0-1.877-1.818,6.6,6.6,0,0,0-1.79.206,6.719,6.719,0,0,1-1.461.095,7.258,7.258,0,0,1-2.835-.719,6.959,6.959,0,0,1-3.739-4.381,7.309,7.309,0,0,1,1.264-6.408l-.492-.13.64,2.1a.3.3,0,0,0,.432.176,10.137,10.137,0,0,1,7.887-1.261,9.6,9.6,0,0,1,2.164.832c.334.178.632-.33.3-.508a10.732,10.732,0,0,0-8.42-.645,10.244,10.244,0,0,0-2.226,1.074l.432.176-.641-2.1a.3.3,0,0,0-.492-.13,7.889,7.889,0,0,0-1.617,5.981,7.444,7.444,0,0,0,3.223,5.164,7.938,7.938,0,0,0,5.995,1.205,3.118,3.118,0,0,1,1.794-.028,1.55,1.55,0,0,1,.831,1.022,3.788,3.788,0,0,1-.781,3.018Z" transform="translate(-636.462 -256.234)" fill="#2f2e41"/>
    <path id="Path_1760" data-name="Path 1760" d="M747.418,414.285h-.007a.484.484,0,0,1-.471-.378l.038-8.175a.5.5,0,0,1,.275-.56,6.038,6.038,0,0,1,4.5-.274.491.491,0,0,1,.335.6l-4.192,8.426a.484.484,0,0,1-.474.365Z" transform="translate(-661.201 -368.815)" fill="#ccc"/>
    <path id="Path_1761" data-name="Path 1761" d="M688.905,676.136H640.247a.2.2,0,0,1,0-.392h48.658a.2.2,0,1,1,0,.392Z" transform="translate(-575.284 -586.767)" fill="#3f3d56"/>
    <path id="Path_1762" data-name="Path 1762" d="M488.807,407.342H452.313a1.866,1.866,0,0,1-1.864-1.864V378.4a1.866,1.866,0,0,1,1.864-1.864h36.494a1.866,1.866,0,0,1,1.864,1.864v27.076A1.866,1.866,0,0,1,488.807,407.342Z" transform="translate(-422.883 -346.266)" fill="#fff"/>
    <path id="Path_1763" data-name="Path 1763" d="M484.027,447.136l7.058.116H495.2a.688.688,0,0,0,.687-.687v-.24l-3.54-3.806a.687.687,0,0,0-.988-.018l-3.481,3.481a.491.491,0,0,1-.693,0l-.515-.514a.687.687,0,0,0-.971,0Z" transform="translate(-449.872 -399.125)" fill="#020413"/>
    <path id="Path_1764" data-name="Path 1764" d="M488.807,407.342H452.313a1.866,1.866,0,0,1-1.864-1.864V378.4a1.866,1.866,0,0,1,1.864-1.864h36.494a1.866,1.866,0,0,1,1.864,1.864v27.076A1.866,1.866,0,0,1,488.807,407.342Zm-36.494-30.215a1.277,1.277,0,0,0-1.275,1.275v27.076a1.277,1.277,0,0,0,1.275,1.275h36.494a1.277,1.277,0,0,0,1.275-1.275V378.4a1.277,1.277,0,0,0-1.275-1.275Z" transform="translate(-422.883 -346.266)" fill="#3f3d56"/>
    <path id="Path_1765" data-name="Path 1765" d="M506.791,396.215H478.538a.589.589,0,1,1,0-1.177h28.253a.589.589,0,1,1,0,1.177Z" transform="translate(-444.987 -361.136)" fill="#3f3d56"/>
    <path id="Path_1766" data-name="Path 1766" d="M507.291,412.715H479.038a.589.589,0,1,1,0-1.177h28.253a.589.589,0,1,1,0,1.177Z" transform="translate(-445.389 -374.399)" fill="#3f3d56"/>
    <path id="Path_1767" data-name="Path 1767" d="M568.076,429.215H554.538a.589.589,0,1,1,0-1.177h13.538a.589.589,0,1,1,0,1.177Z" transform="translate(-506.076 -387.661)" fill="#3f3d56"/>
    <path id="Path_1768" data-name="Path 1768" d="M568.576,445.715H555.038a.589.589,0,1,1,0-1.177h13.538a.589.589,0,1,1,0,1.177Z" transform="translate(-506.478 -400.924)" fill="#3f3d56"/>
    <path id="Path_1769" data-name="Path 1769" d="M569.076,462.215H555.538a.589.589,0,1,1,0-1.177h13.538a.589.589,0,1,1,0,1.177Z" transform="translate(-506.879 -414.187)" fill="#3f3d56"/>
    <path id="Path_1770" data-name="Path 1770" d="M509.291,478.715H481.038a.589.589,0,1,1,0-1.177h28.253a.589.589,0,0,1,0,1.177Z" transform="translate(-446.997 -427.449)" fill="#3f3d56"/>
    <path id="Path_1771" data-name="Path 1771" d="M509.791,495.215H481.538a.589.589,0,0,1,0-1.177h28.253a.589.589,0,1,1,0,1.177Z" transform="translate(-447.398 -440.712)" fill="#3f3d56"/>
    <path id="Path_1772" data-name="Path 1772" d="M510.291,511.715H482.038a.589.589,0,1,1,0-1.177h28.253a.589.589,0,0,1,0,1.177Z" transform="translate(-447.8 -453.975)" fill="#3f3d56"/>
    <path id="Path_1773" data-name="Path 1773" d="M491.917,435.886H480.93a.965.965,0,0,1-.468-.12h0l-.05-.03a.977.977,0,0,1-.461-.831v-5.886a.982.982,0,0,1,.981-.981h10.987a.982.982,0,0,1,.981.981v5.886A.982.982,0,0,1,491.917,435.886Zm-11.324-.5.028.017a.57.57,0,0,0,.308.089h10.987a.589.589,0,0,0,.589-.589v-5.886a.589.589,0,0,0-.589-.589H480.93a.589.589,0,0,0-.589.589v5.886a.586.586,0,0,0,.252.482Z" transform="translate(-446.595 -387.661)" fill="#3f3d56"/>
    <path id="Path_1774" data-name="Path 1774" d="M310.37,542.291a.534.534,0,0,0-.225.935l2.36,1.937a.347.347,0,0,1,.084.1.325.325,0,0,1,.033.128l.168,3.577a.522.522,0,0,0,.414.5h0a.521.521,0,0,0,.584-.267l.838-1.55a.321.321,0,0,1,.286-.166.311.311,0,0,1,.228.1l4.09,4.313a.53.53,0,0,0,.467.16.535.535,0,0,0,.4-.291l5.889-11.959a.534.534,0,0,0-.592-.758l-.193.041Zm-.091.77a.321.321,0,0,1,.136-.561l14.827-3.2.2-.043a.321.321,0,0,1,.355.454l-5.889,11.959a.32.32,0,0,1-.519.079l-4.09-4.313a.512.512,0,0,0-.139-.106l10.283-7.554a.214.214,0,0,0-.178-.38.184.184,0,0,0-.034.012l-12.507,5.672a.528.528,0,0,0-.083-.084l-2.36-1.937Z" transform="translate(-309.949 -476.883)" fill="#e6e6e6"/>
    <path id="Path_1775" data-name="Path 1775" d="M310.37,542.291a.534.534,0,0,0-.225.935l2.36,1.937a.347.347,0,0,1,.084.1.325.325,0,0,1,.033.128l.168,3.577a.522.522,0,0,0,.414.5h0a.521.521,0,0,0,.584-.267l.838-1.55a.321.321,0,0,1,.286-.166.311.311,0,0,1,.228.1l4.09,4.313a.53.53,0,0,0,.467.16.535.535,0,0,0,.4-.291l5.889-11.959a.534.534,0,0,0-.592-.758l-.193.041Zm-.091.77a.321.321,0,0,1,.136-.561l14.827-3.2.2-.043a.321.321,0,0,1,.355.454l-5.889,11.959a.32.32,0,0,1-.519.079l-4.09-4.313a.512.512,0,0,0-.139-.106.519.519,0,0,0-.242-.06h-.037a.532.532,0,0,0-.437.278L313.6,549.1a.311.311,0,0,1-.351.159h0a.31.31,0,0,1-.248-.3l-.168-3.577a.5.5,0,0,0-.017-.112h0a.512.512,0,0,0-.039-.1.5.5,0,0,0-.057-.089.528.528,0,0,0-.083-.084l-2.36-1.937Z" transform="translate(-309.949 -476.883)" fill="#ccc"/>
    <path id="Path_1776" data-name="Path 1776" d="M323.888,546.53l12.507-5.672a.185.185,0,0,1,.034-.012.214.214,0,0,1,.178.38l-10.283,7.554-.181.134-.126-.172.028-.021h0l10.435-7.667-12.5,5.667h0l-.054.024-.088-.194Z" transform="translate(-321.115 -478.331)" fill="#ccc"/>
    <path id="Path_1777" data-name="Path 1777" d="M627.6,573.292l-14.832-3.2-.193-.042a.534.534,0,0,0-.592.758l5.889,11.959a.533.533,0,0,0,.865.131l4.09-4.313a.31.31,0,0,1,.228-.1.321.321,0,0,1,.286.166l.838,1.55a.521.521,0,0,0,.584.267h0a.522.522,0,0,0,.414-.5l.168-3.577a.325.325,0,0,1,.033-.129.346.346,0,0,1,.084-.1l2.36-1.937a.534.534,0,0,0-.225-.935Zm.091.77L625.333,576a.535.535,0,0,0-.083.084l-12.507-5.672a.183.183,0,0,0-.034-.012.214.214,0,0,0-.178.38l10.283,7.554a.514.514,0,0,0-.139.106l-4.09,4.313a.32.32,0,0,1-.519-.078l-5.889-11.959a.321.321,0,0,1,.355-.454l.2.043,14.828,3.2a.321.321,0,0,1,.136.561Z" transform="translate(-552.681 -501.801)" fill="#e6e6e6"/>
    <path id="Path_1778" data-name="Path 1778" d="M627.6,573.292l-14.832-3.2-.193-.042a.534.534,0,0,0-.592.758l5.889,11.959a.533.533,0,0,0,.865.131l4.09-4.313a.31.31,0,0,1,.228-.1.321.321,0,0,1,.286.166l.838,1.55a.521.521,0,0,0,.584.267h0a.522.522,0,0,0,.414-.5l.168-3.577a.325.325,0,0,1,.033-.129.346.346,0,0,1,.084-.1l2.36-1.937a.534.534,0,0,0-.225-.935Zm.091.77L625.333,576a.535.535,0,0,0-.083.084.5.5,0,0,0-.057.089.513.513,0,0,0-.039.1h0a.509.509,0,0,0-.017.112l-.168,3.577a.31.31,0,0,1-.248.3h0a.311.311,0,0,1-.351-.159l-.838-1.551a.532.532,0,0,0-.437-.278h-.037a.519.519,0,0,0-.242.06.512.512,0,0,0-.139.106l-4.09,4.313a.32.32,0,0,1-.519-.079l-5.889-11.959a.321.321,0,0,1,.355-.454l.2.043,14.828,3.2a.321.321,0,0,1,.136.561Z" transform="translate(-552.681 -501.801)" fill="#ccc"/>
    <path id="Path_1779" data-name="Path 1779" d="M627.392,577.551l-.088.194-.055-.024h0l-12.5-5.667,10.435,7.667h0l.028.021-.126.172-.181-.134-10.283-7.554a.214.214,0,0,1,.178-.38.187.187,0,0,1,.034.012l12.507,5.672Z" transform="translate(-554.776 -503.248)" fill="#ccc"/>
    <path id="Path_1780" data-name="Path 1780" d="M368.138,222.484a.737.737,0,0,0-1.258.386l-.615,4.063a.462.462,0,0,1-.063.169.443.443,0,0,1-.128.127l-4.09,2.667a.7.7,0,0,0-.292.82l0,.005a.715.715,0,0,0,.726.489l2.414-.1a.443.443,0,0,1,.4.215.411.411,0,0,1,.044.332l-2.19,7.7a.7.7,0,0,0,.141.65.741.741,0,0,0,.623.258l18.221-1.474a.739.739,0,0,0,.442-.192.708.708,0,0,0,.033-1.015l-.185-.194-14.221-14.9Zm-.97.428a.429.429,0,0,1,.134-.25.446.446,0,0,1,.622.02l14.216,14.9.189.2a.428.428,0,0,1,.116.257.434.434,0,0,1-.4.467l-18.221,1.474a.447.447,0,0,1-.153-.014.43.43,0,0,1-.305-.53l2.19-7.7a.676.676,0,0,0,.027-.234l16.136,6.643a.3.3,0,0,0,.325-.062.284.284,0,0,0,0-.406.257.257,0,0,0-.038-.031l-15.49-10.511a.7.7,0,0,0,.04-.154l.615-4.063Z" transform="translate(-351.508 -222.256)" fill="#e6e6e6"/>
    <path id="Path_1781" data-name="Path 1781" d="M368.138,222.484a.737.737,0,0,0-1.258.386l-.615,4.063a.462.462,0,0,1-.063.169.443.443,0,0,1-.128.127l-4.09,2.667a.7.7,0,0,0-.292.82l0,.005a.715.715,0,0,0,.726.489l2.414-.1a.443.443,0,0,1,.4.215.411.411,0,0,1,.044.332l-2.19,7.7a.7.7,0,0,0,.141.65.741.741,0,0,0,.623.258l18.221-1.474a.739.739,0,0,0,.442-.192.708.708,0,0,0,.033-1.015l-.185-.194-14.221-14.9Zm-.97.428a.429.429,0,0,1,.134-.25.446.446,0,0,1,.622.02l14.216,14.9.189.2a.428.428,0,0,1,.116.257.434.434,0,0,1-.4.467l-18.221,1.474a.447.447,0,0,1-.153-.014.43.43,0,0,1-.306-.53l2.19-7.7a.676.676,0,0,0,.027-.234.689.689,0,0,0-.1-.321c-.008-.014-.017-.028-.026-.041h0a.735.735,0,0,0-.635-.312l-2.415.105a.426.426,0,0,1-.435-.295v0a.413.413,0,0,1,.175-.492l4.09-2.667a.689.689,0,0,0,.12-.1h0a.689.689,0,0,0,.092-.115.661.661,0,0,0,.065-.127.7.7,0,0,0,.04-.154l.615-4.063Z" transform="translate(-351.508 -222.256)" fill="#ccc"/>
    <path id="Path_1782" data-name="Path 1782" d="M381.445,246.92l15.49,10.511a.252.252,0,0,1,.038.031.283.283,0,0,1,.063.318.3.3,0,0,1-.385.15l-16.136-6.643-.285-.117.114-.264.044.017h0l16.376,6.741-15.477-10.5h0l-.067-.046.166-.236Z" transform="translate(-366.441 -242.047)" fill="#ccc"/>
  </g>
</svg>
