<svg xmlns="http://www.w3.org/2000/svg" width="53.901" height="53.901" viewBox="0 0 53.901 53.901">
  <g id="Group_6489" data-name="Group 6489" transform="translate(1.451 2.95)">
    <g id="Ellipse_241" data-name="Ellipse 241" fill="#fff" stroke="#161837" stroke-width="2">
      <ellipse cx="25.5" cy="24" rx="25.5" ry="24" stroke="none"/>
      <ellipse cx="25.5" cy="24" rx="24.5" ry="23" fill="none"/>
    </g>
    <g id="Group_406" data-name="Group 406" transform="translate(-417.934 -164.514)">
      <g id="Group_6432" data-name="Group 6432" transform="translate(416.483 161.564)">
        <g id="Group_6431" data-name="Group 6431" transform="translate(0 0)">
          <g id="Group_6430" data-name="Group 6430">
            <g id="Group_6429" data-name="Group 6429">
              <g id="Group_6428" data-name="Group 6428">
                <circle id="Ellipse_159" data-name="Ellipse 159" cx="19.057" cy="19.057" r="19.057" transform="translate(0 26.95) rotate(-45)" fill="#f77c5b"/>
              </g>
            </g>
          </g>
        </g>
      </g>
      <g id="Group_6473" data-name="Group 6473" transform="translate(430.199 173.961)">
        <g id="Group_6436" data-name="Group 6436" transform="translate(0 7.991)">
          <g id="Group_6435" data-name="Group 6435">
            <g id="Group_6434" data-name="Group 6434">
              <g id="Group_6433" data-name="Group 6433">
                <path id="Path_1153" data-name="Path 1153" d="M471.109,239.645a10.079,10.079,0,0,0-.66.812c-5.088,6.953,3.763,14.443,3.763,14.443s7.49,8.851,14.443,3.763a10.159,10.159,0,0,0,.812-.66.562.562,0,0,0,.057-.811l-1.373-1.373-1.514-1.514-1.112-1.112a.906.906,0,0,0-1.28,0l-2.032,2.032a12.24,12.24,0,0,1-8.325-8.326l2.031-2.031a.905.905,0,0,0,0-1.28l-1.112-1.112-1.514-1.514-1.373-1.373A.563.563,0,0,0,471.109,239.645Z" transform="translate(-468.873 -239.441)" fill="#edf3f3"/>
              </g>
            </g>
          </g>
        </g>
        <g id="Group_6458" data-name="Group 6458" transform="translate(7.422)">
          <g id="Group_6440" data-name="Group 6440">
            <g id="Group_6439" data-name="Group 6439">
              <g id="Group_6438" data-name="Group 6438">
                <g id="Group_6437" data-name="Group 6437">
                  <path id="Path_1154" data-name="Path 1154" d="M511,219.122v-7.074a1.137,1.137,0,0,0-1.135-1.135h-.377v-2l-2,2h-9.128a1.137,1.137,0,0,0-1.135,1.135v7.074a1.137,1.137,0,0,0,1.135,1.135h11.5A1.137,1.137,0,0,0,511,219.122Z" transform="translate(-497.224 -208.917)" fill="#fdda92"/>
                </g>
              </g>
            </g>
          </g>
          <g id="Group_6457" data-name="Group 6457" transform="translate(1.61 6.238)">
            <g id="Group_6444" data-name="Group 6444">
              <g id="Group_6443" data-name="Group 6443">
                <g id="Group_6442" data-name="Group 6442">
                  <g id="Group_6441" data-name="Group 6441">
                    <circle id="Ellipse_160" data-name="Ellipse 160" cx="0.732" cy="0.732" r="0.732" fill="#243239"/>
                  </g>
                </g>
              </g>
            </g>
            <g id="Group_6448" data-name="Group 6448" transform="translate(3.029 0)">
              <g id="Group_6447" data-name="Group 6447">
                <g id="Group_6446" data-name="Group 6446">
                  <g id="Group_6445" data-name="Group 6445">
                    <path id="Path_1155" data-name="Path 1155" d="M516.408,233.476a.732.732,0,1,1-.732-.732A.732.732,0,0,1,516.408,233.476Z" transform="translate(-514.943 -232.744)" fill="#243239"/>
                  </g>
                </g>
              </g>
            </g>
            <g id="Group_6452" data-name="Group 6452" transform="translate(6.058)">
              <g id="Group_6451" data-name="Group 6451">
                <g id="Group_6450" data-name="Group 6450">
                  <g id="Group_6449" data-name="Group 6449">
                    <circle id="Ellipse_161" data-name="Ellipse 161" cx="0.732" cy="0.732" r="0.732" fill="#243239"/>
                  </g>
                </g>
              </g>
            </g>
            <g id="Group_6456" data-name="Group 6456" transform="translate(9.088 0)">
              <g id="Group_6455" data-name="Group 6455">
                <g id="Group_6454" data-name="Group 6454">
                  <g id="Group_6453" data-name="Group 6453">
                    <path id="Path_1156" data-name="Path 1156" d="M539.55,233.476a.732.732,0,1,1-.732-.732A.732.732,0,0,1,539.55,233.476Z" transform="translate(-538.085 -232.744)" fill="#243239"/>
                  </g>
                </g>
              </g>
            </g>
          </g>
        </g>
        <g id="Group_6472" data-name="Group 6472" transform="translate(12.698 9.178)">
          <g id="Group_6462" data-name="Group 6462">
            <g id="Group_6461" data-name="Group 6461">
              <g id="Group_6460" data-name="Group 6460">
                <g id="Group_6459" data-name="Group 6459">
                  <path id="Path_1157" data-name="Path 1157" d="M517.377,245.111v7.074a1.137,1.137,0,0,0,1.135,1.135h.377v2l2-2h9.128a1.137,1.137,0,0,0,1.135-1.135v-7.074a1.137,1.137,0,0,0-1.135-1.135h-11.5A1.137,1.137,0,0,0,517.377,245.111Z" transform="translate(-517.377 -243.976)" fill="#243239"/>
                </g>
              </g>
            </g>
          </g>
          <g id="Group_6471" data-name="Group 6471" transform="translate(3.933 1.717)">
            <g id="Group_6466" data-name="Group 6466">
              <g id="Group_6465" data-name="Group 6465">
                <g id="Group_6464" data-name="Group 6464">
                  <g id="Group_6463" data-name="Group 6463">
                    <path id="Path_1158" data-name="Path 1158" d="M538.119,252.9l-.683-.124a2.167,2.167,0,0,0-.111-.266l.4-.57a.23.23,0,0,0-.028-.292l-.5-.5a.229.229,0,0,0-.292-.027l-.571.4a2.185,2.185,0,0,0-.266-.111l-.124-.683a.229.229,0,0,0-.226-.187H535a.23.23,0,0,0-.226.187l-.124.683a2.2,2.2,0,0,0-.266.111l-.571-.4a.23.23,0,0,0-.292.027l-.5.5a.23.23,0,0,0-.028.292l.4.57a2.2,2.2,0,0,0-.111.266l-.683.124a.23.23,0,0,0-.187.226v.714a.229.229,0,0,0,.187.226l.683.124a2.187,2.187,0,0,0,.111.266l-.4.571a.23.23,0,0,0,.028.292l.5.5a.229.229,0,0,0,.292.027l.571-.4a2.2,2.2,0,0,0,.266.111l.124.683a.23.23,0,0,0,.226.187h.714a.229.229,0,0,0,.226-.187l.124-.683a2.186,2.186,0,0,0,.266-.111l.571.4a.229.229,0,0,0,.292-.027l.5-.5a.229.229,0,0,0,.028-.292l-.4-.571a2.15,2.15,0,0,0,.111-.266l.683-.124a.229.229,0,0,0,.187-.226v-.714A.23.23,0,0,0,538.119,252.9Z" transform="translate(-532.401 -250.533)" fill="#fff"/>
                  </g>
                </g>
              </g>
            </g>
            <g id="Group_6470" data-name="Group 6470" transform="translate(1.508 1.508)">
              <g id="Group_6469" data-name="Group 6469">
                <g id="Group_6468" data-name="Group 6468">
                  <g id="Group_6467" data-name="Group 6467">
                    <circle id="Ellipse_162" data-name="Ellipse 162" cx="1.445" cy="1.445" r="1.445" fill="#243239"/>
                  </g>
                </g>
              </g>
            </g>
          </g>
        </g>
      </g>
    </g>
  </g>
</svg>
