<svg xmlns="http://www.w3.org/2000/svg" width="36" height="36" viewBox="0 0 36 36">
  <path id="Icon_simple-tesla" data-name="Icon simple-tesla" d="M18,8.043,21.712,3.5A35.531,35.531,0,0,1,34.419,6.585a11.283,11.283,0,0,1-4.847,3.657c-.219-2.158-1.731-2.685-6.531-2.685L18,36,12.929,7.551c-4.77,0-6.282.531-6.5,2.688A11.229,11.229,0,0,1,1.582,6.594,35.525,35.525,0,0,1,14.288,3.51L18,8.043l-.006,0H18Zm0-5.848a41.243,41.243,0,0,1,16.992,3.42A13.86,13.86,0,0,0,36,3.522,49.163,49.163,0,0,0,18,0,49.074,49.074,0,0,0,0,3.523,17.782,17.782,0,0,0,1.008,5.618,41.284,41.284,0,0,1,18,2.19v0Z" fill="#161837"/>
</svg>
